Aleo-Regular.ufo
<glyph name="exclam" format="1">
  <advance width="194"/>
  <unicode hex="0021"/>
  <note>
    exclam
  </note>
  <outline>
    <contour>
      <point x="140" y="716" type="line"/>
      <point x="56" y="716" type="line"/>
      <point x="56" y="430" type="line"/>
      <point x="56" y="386" type="line" smooth="yes"/>
      <point x="56" y="372"/>
      <point x="57" y="357"/>
      <point x="58" y="343" type="curve" smooth="yes"/>
      <point x="59" y="329"/>
      <point x="60" y="313"/>
      <point x="62" y="298" type="curve" smooth="yes"/>
      <point x="64" y="283"/>
      <point x="65" y="268"/>
      <point x="67" y="250" type="curve"/>
      <point x="128" y="250" type="line"/>
      <point x="130" y="268"/>
      <point x="130" y="283"/>
      <point x="132" y="298" type="curve" smooth="yes"/>
      <point x="134" y="313"/>
      <point x="135" y="328"/>
      <point x="136" y="342" type="curve" smooth="yes"/>
      <point x="137" y="356"/>
      <point x="138" y="372"/>
      <point x="138" y="386" type="curve" smooth="yes"/>
      <point x="138" y="430" type="line"/>
    </contour>
    <contour>
      <point x="32" y="45"/>
      <point x="34" y="38"/>
      <point x="37" y="30" type="curve" smooth="yes"/>
      <point x="40" y="22"/>
      <point x="44" y="16"/>
      <point x="50" y="10" type="curve" smooth="yes"/>
      <point x="56" y="4"/>
      <point x="62" y="0"/>
      <point x="70" y="-3" type="curve" smooth="yes"/>
      <point x="78" y="-6"/>
      <point x="86" y="-8"/>
      <point x="94" y="-8" type="curve" smooth="yes"/>
      <point x="102" y="-8"/>
      <point x="110" y="-6"/>
      <point x="118" y="-3" type="curve" smooth="yes"/>
      <point x="126" y="0"/>
      <point x="131" y="4"/>
      <point x="137" y="10" type="curve" smooth="yes"/>
      <point x="143" y="16"/>
      <point x="147" y="22"/>
      <point x="150" y="30" type="curve" smooth="yes"/>
      <point x="153" y="38"/>
      <point x="154" y="45"/>
      <point x="154" y="54" type="curve" smooth="yes"/>
      <point x="154" y="62"/>
      <point x="153" y="70"/>
      <point x="150" y="78" type="curve" smooth="yes"/>
      <point x="147" y="86"/>
      <point x="143" y="92"/>
      <point x="137" y="98" type="curve" smooth="yes"/>
      <point x="131" y="104"/>
      <point x="126" y="107"/>
      <point x="118" y="111" type="curve" smooth="yes"/>
      <point x="110" y="115"/>
      <point x="102" y="116"/>
      <point x="94" y="116" type="curve" smooth="yes"/>
      <point x="86" y="116"/>
      <point x="78" y="115"/>
      <point x="70" y="111" type="curve" smooth="yes"/>
      <point x="62" y="107"/>
      <point x="56" y="104"/>
      <point x="50" y="98" type="curve" smooth="yes"/>
      <point x="44" y="92"/>
      <point x="40" y="86"/>
      <point x="37" y="78" type="curve" smooth="yes"/>
      <point x="34" y="70"/>
      <point x="32" y="62"/>
      <point x="32" y="54" type="curve" smooth="yes"/>
    </contour>
  </outline>
</glyph>
<glyph name="numbersign" format="1">
  <advance width="569"/>
  <unicode hex="0023"/>
  <note>
    numbersign
  </note>
  <outline>
    <contour>
      <point x="392" y="212" type="line"/>
      <point x="510" y="212" type="line"/>
      <point x="514" y="240" type="line"/>
      <point x="514" y="242"/>
      <point x="515" y="244"/>
      <point x="515" y="246" type="curve" smooth="yes"/>
      <point x="515" y="251" type="line" smooth="yes"/>
      <point x="515" y="261"/>
      <point x="512" y="267"/>
      <point x="508" y="271" type="curve" smooth="yes"/>
      <point x="504" y="275"/>
      <point x="498" y="277"/>
      <point x="490" y="277" type="curve" smooth="yes"/>
      <point x="400" y="277" type="line"/>
      <point x="433" y="440" type="line"/>
      <point x="502" y="440" type="line" smooth="yes"/>
      <point x="514" y="440"/>
      <point x="524" y="442"/>
      <point x="530" y="446" type="curve" smooth="yes"/>
      <point x="536" y="450"/>
      <point x="540" y="458"/>
      <point x="542" y="468" type="curve"/>
      <point x="548" y="505" type="line"/>
      <point x="442" y="505" type="line"/>
      <point x="478" y="682" type="line"/>
      <point x="478" y="684"/>
      <point x="479" y="686"/>
      <point x="479" y="688" type="curve" smooth="yes"/>
      <point x="479" y="696"/>
      <point x="476" y="703"/>
      <point x="470" y="708" type="curve" smooth="yes"/>
      <point x="464" y="713"/>
      <point x="458" y="716"/>
      <point x="450" y="716" type="curve" smooth="yes"/>
      <point x="410" y="716" type="line"/>
      <point x="368" y="504" type="line"/>
      <point x="244" y="504" type="line"/>
      <point x="286" y="716" type="line"/>
      <point x="246" y="716" type="line" smooth="yes"/>
      <point x="236" y="716"/>
      <point x="228" y="713"/>
      <point x="221" y="707" type="curve" smooth="yes"/>
      <point x="214" y="701"/>
      <point x="210" y="694"/>
      <point x="208" y="684" type="curve" smooth="yes"/>
      <point x="172" y="504" type="line"/>
      <point x="92" y="504" type="line" smooth="yes"/>
      <point x="79" y="504"/>
      <point x="70" y="502"/>
      <point x="64" y="498" type="curve" smooth="yes"/>
      <point x="58" y="494"/>
      <point x="54" y="486"/>
      <point x="52" y="476" type="curve" smooth="yes"/>
      <point x="46" y="440" type="line"/>
      <point x="162" y="440" type="line"/>
      <point x="130" y="276" type="line"/>
      <point x="28" y="276" type="line"/>
      <point x="24" y="248" type="line"/>
      <point x="24" y="246"/>
      <point x="22" y="244"/>
      <point x="22" y="242" type="curve" smooth="yes"/>
      <point x="22" y="236" type="line" smooth="yes"/>
      <point x="22" y="226"/>
      <point x="25" y="220"/>
      <point x="29" y="216" type="curve" smooth="yes"/>
      <point x="33" y="212"/>
      <point x="39" y="210"/>
      <point x="47" y="210" type="curve" smooth="yes"/>
      <point x="120" y="210" type="line"/>
      <point x="78" y="-1" type="line"/>
      <point x="117" y="-1" type="line" smooth="yes"/>
      <point x="127" y="-1"/>
      <point x="134" y="1"/>
      <point x="142" y="6" type="curve" smooth="yes"/>
      <point x="150" y="11"/>
      <point x="156" y="20"/>
      <point x="158" y="32" type="curve" smooth="yes"/>
      <point x="193" y="210" type="line"/>
      <point x="316" y="210" type="line"/>
      <point x="281" y="37" type="line"/>
      <point x="281" y="35"/>
      <point x="280" y="34"/>
      <point x="280" y="33" type="curve" smooth="yes"/>
      <point x="280" y="29" type="line" smooth="yes"/>
      <point x="280" y="20"/>
      <point x="282" y="13"/>
      <point x="288" y="7" type="curve" smooth="yes"/>
      <point x="294" y="1"/>
      <point x="300" y="-2"/>
      <point x="308" y="-2" type="curve" smooth="yes"/>
      <point x="348" y="-2" type="line"/>
    </contour>
    <contour>
      <point x="202" y="276" type="line"/>
      <point x="235" y="438" type="line"/>
      <point x="358" y="438" type="line"/>
      <point x="326" y="276" type="line"/>
    </contour>
  </outline>
</glyph>
<glyph name="dollar" format="1">
  <advance width="515"/>
  <unicode hex="0024"/>
  <note>
    dollar
  </note>
  <outline>
    <contour>
      <point x="212" y="-6" type="line"/>
      <point x="205" y="-119" type="line"/>
      <point x="238" y="-119" type="line" smooth="yes"/>
      <point x="245" y="-119"/>
      <point x="251" y="-117"/>
      <point x="255" y="-112" type="curve" smooth="yes"/>
      <point x="259" y="-107"/>
      <point x="262" y="-100"/>
      <point x="262" y="-94" type="curve"/>
      <point x="268" y="-6" type="line"/>
      <point x="304" y="-4"/>
      <point x="336" y="3"/>
      <point x="364" y="15" type="curve" smooth="yes"/>
      <point x="392" y="27"/>
      <point x="415" y="44"/>
      <point x="434" y="64" type="curve" smooth="yes"/>
      <point x="453" y="84"/>
      <point x="468" y="107"/>
      <point x="478" y="133" type="curve" smooth="yes"/>
      <point x="488" y="159"/>
      <point x="492" y="188"/>
      <point x="492" y="218" type="curve" smooth="yes"/>
      <point x="492" y="248"/>
      <point x="487" y="274"/>
      <point x="475" y="294" type="curve" smooth="yes"/>
      <point x="463" y="314"/>
      <point x="448" y="331"/>
      <point x="430" y="345" type="curve" smooth="yes"/>
      <point x="412" y="359"/>
      <point x="391" y="370"/>
      <point x="367" y="378" type="curve" smooth="yes"/>
      <point x="343" y="386"/>
      <point x="320" y="394"/>
      <point x="296" y="402" type="curve"/>
      <point x="312" y="644" type="line"/>
      <point x="328" y="642"/>
      <point x="344" y="638"/>
      <point x="356" y="632" type="curve" smooth="yes"/>
      <point x="368" y="626"/>
      <point x="379" y="622"/>
      <point x="389" y="616" type="curve" smooth="yes"/>
      <point x="399" y="610"/>
      <point x="407" y="605"/>
      <point x="414" y="601" type="curve" smooth="yes"/>
      <point x="421" y="597"/>
      <point x="426" y="595"/>
      <point x="430" y="595" type="curve" smooth="yes"/>
      <point x="438" y="595"/>
      <point x="447" y="600"/>
      <point x="453" y="610" type="curve" smooth="yes"/>
      <point x="474" y="643" type="line"/>
      <point x="454" y="663"/>
      <point x="432" y="678"/>
      <point x="406" y="692" type="curve" smooth="yes"/>
      <point x="380" y="706"/>
      <point x="351" y="716"/>
      <point x="316" y="720" type="curve"/>
      <point x="323" y="818" type="line"/>
      <point x="290" y="818" type="line" smooth="yes"/>
      <point x="282" y="818"/>
      <point x="276" y="816"/>
      <point x="272" y="811" type="curve" smooth="yes"/>
      <point x="268" y="806"/>
      <point x="264" y="800"/>
      <point x="264" y="794" type="curve"/>
      <point x="260" y="722" type="line"/>
      <point x="226" y="720"/>
      <point x="194" y="714"/>
      <point x="168" y="702" type="curve" smooth="yes"/>
      <point x="142" y="690"/>
      <point x="119" y="676"/>
      <point x="101" y="658" type="curve" smooth="yes"/>
      <point x="83" y="640"/>
      <point x="70" y="619"/>
      <point x="60" y="596" type="curve" smooth="yes"/>
      <point x="50" y="573"/>
      <point x="45" y="549"/>
      <point x="45" y="525" type="curve" smooth="yes"/>
      <point x="45" y="493"/>
      <point x="51" y="466"/>
      <point x="62" y="444" type="curve" smooth="yes"/>
      <point x="73" y="422"/>
      <point x="87" y="404"/>
      <point x="105" y="390" type="curve" smooth="yes"/>
      <point x="123" y="376"/>
      <point x="144" y="365"/>
      <point x="166" y="356" type="curve" smooth="yes"/>
      <point x="188" y="347"/>
      <point x="210" y="339"/>
      <point x="234" y="332" type="curve"/>
      <point x="216" y="66" type="line"/>
      <point x="194" y="68"/>
      <point x="174" y="74"/>
      <point x="158" y="82" type="curve" smooth="yes"/>
      <point x="142" y="90"/>
      <point x="128" y="97"/>
      <point x="116" y="105" type="curve" smooth="yes"/>
      <point x="104" y="113"/>
      <point x="95" y="120"/>
      <point x="87" y="126" type="curve" smooth="yes"/>
      <point x="79" y="132"/>
      <point x="72" y="136"/>
      <point x="66" y="136" type="curve" smooth="yes"/>
      <point x="62" y="136"/>
      <point x="56" y="134"/>
      <point x="52" y="132" type="curve" smooth="yes"/>
      <point x="48" y="130"/>
      <point x="44" y="128"/>
      <point x="42" y="124" type="curve"/>
      <point x="15" y="82" type="line"/>
      <point x="39" y="57"/>
      <point x="67" y="37"/>
      <point x="100" y="21" type="curve" smooth="yes"/>
      <point x="133" y="5"/>
      <point x="170" y="-4"/>
      <point x="210" y="-8" type="curve"/>
    </contour>
    <contour>
      <point x="407" y="201" type="line"/>
      <point x="407" y="183"/>
      <point x="404" y="166"/>
      <point x="398" y="150" type="curve" smooth="yes"/>
      <point x="392" y="134"/>
      <point x="384" y="122"/>
      <point x="372" y="110" type="curve" smooth="yes"/>
      <point x="360" y="98"/>
      <point x="347" y="89"/>
      <point x="330" y="81" type="curve" smooth="yes"/>
      <point x="313" y="73"/>
      <point x="294" y="68"/>
      <point x="272" y="66" type="curve"/>
      <point x="288" y="316" type="line"/>
      <point x="304" y="310"/>
      <point x="321" y="304"/>
      <point x="335" y="298" type="curve" smooth="yes"/>
      <point x="349" y="292"/>
      <point x="362" y="283"/>
      <point x="372" y="275" type="curve" smooth="yes"/>
      <point x="382" y="267"/>
      <point x="392" y="256"/>
      <point x="398" y="244" type="curve" smooth="yes"/>
      <point x="404" y="232"/>
      <point x="406" y="217"/>
      <point x="406" y="201" type="curve"/>
    </contour>
    <contour>
      <point x="129" y="533" type="line"/>
      <point x="129" y="547"/>
      <point x="131" y="560"/>
      <point x="136" y="572" type="curve" smooth="yes"/>
      <point x="141" y="584"/>
      <point x="149" y="596"/>
      <point x="159" y="606" type="curve" smooth="yes"/>
      <point x="169" y="616"/>
      <point x="182" y="624"/>
      <point x="198" y="630" type="curve" smooth="yes"/>
      <point x="214" y="636"/>
      <point x="232" y="642"/>
      <point x="254" y="644" type="curve"/>
      <point x="239" y="418" type="line"/>
      <point x="223" y="424"/>
      <point x="210" y="430"/>
      <point x="196" y="436" type="curve" smooth="yes"/>
      <point x="182" y="442"/>
      <point x="170" y="451"/>
      <point x="160" y="460" type="curve" smooth="yes"/>
      <point x="150" y="469"/>
      <point x="143" y="479"/>
      <point x="137" y="491" type="curve" smooth="yes"/>
      <point x="131" y="503"/>
      <point x="128" y="517"/>
      <point x="128" y="533" type="curve"/>
    </contour>
  </outline>
</glyph>
<glyph name="parenleft" format="1">
  <advance width="240"/>
  <unicode hex="0028"/>
  <note>
    parenleft
  </note>
  <outline>
    <contour>
      <point x="109" y="314" type="line"/>
      <point x="109" y="386"/>
      <point x="118" y="455"/>
      <point x="136" y="523" type="curve" smooth="yes"/>
      <point x="154" y="591"/>
      <point x="181" y="655"/>
      <point x="216" y="715" type="curve"/>
      <point x="220" y="721"/>
      <point x="220" y="727"/>
      <point x="220" y="732" type="curve" smooth="yes"/>
      <point x="220" y="736"/>
      <point x="219" y="741"/>
      <point x="217" y="744" type="curve" smooth="yes"/>
      <point x="215" y="747"/>
      <point x="212" y="750"/>
      <point x="208" y="752" type="curve"/>
      <point x="168" y="776" type="line"/>
      <point x="143" y="738"/>
      <point x="122" y="700"/>
      <point x="104" y="662" type="curve" smooth="yes"/>
      <point x="86" y="624"/>
      <point x="73" y="586"/>
      <point x="62" y="548" type="curve" smooth="yes"/>
      <point x="51" y="510"/>
      <point x="43" y="472"/>
      <point x="38" y="434" type="curve" smooth="yes"/>
      <point x="33" y="396"/>
      <point x="30" y="355"/>
      <point x="30" y="315" type="curve" smooth="yes"/>
      <point x="30" y="275"/>
      <point x="33" y="234"/>
      <point x="38" y="196" type="curve" smooth="yes"/>
      <point x="43" y="158"/>
      <point x="51" y="120"/>
      <point x="62" y="82" type="curve" smooth="yes"/>
      <point x="73" y="44"/>
      <point x="86" y="6"/>
      <point x="104" y="-32" type="curve" smooth="yes"/>
      <point x="122" y="-70"/>
      <point x="143" y="-108"/>
      <point x="168" y="-146" type="curve"/>
      <point x="208" y="-122" type="line"/>
      <point x="212" y="-120"/>
      <point x="214" y="-117"/>
      <point x="216" y="-114" type="curve" smooth="yes"/>
      <point x="218" y="-111"/>
      <point x="220" y="-106"/>
      <point x="220" y="-102" type="curve" smooth="yes"/>
      <point x="220" y="-100"/>
      <point x="219" y="-97"/>
      <point x="219" y="-95" type="curve" smooth="yes"/>
      <point x="219" y="-93"/>
      <point x="217" y="-90"/>
      <point x="215" y="-86" type="curve"/>
      <point x="181" y="-25"/>
      <point x="154" y="39"/>
      <point x="136" y="106" type="curve" smooth="yes"/>
      <point x="118" y="173"/>
      <point x="108" y="242"/>
      <point x="108" y="314" type="curve"/>
    </contour>
  </outline>
</glyph>
<glyph name="parenright" format="1">
  <advance width="240"/>
  <unicode hex="0029"/>
  <note>
    parenright
  </note>
  <outline>
    <contour>
      <point x="132" y="242"/>
      <point x="123" y="173"/>
      <point x="105" y="106" type="curve" smooth="yes"/>
      <point x="87" y="39"/>
      <point x="60" y="-25"/>
      <point x="26" y="-86" type="curve"/>
      <point x="24" y="-90"/>
      <point x="22" y="-92"/>
      <point x="22" y="-94" type="curve" smooth="yes"/>
      <point x="22" y="-96"/>
      <point x="20" y="-100"/>
      <point x="20" y="-102" type="curve" smooth="yes"/>
      <point x="20" y="-106"/>
      <point x="22" y="-111"/>
      <point x="24" y="-114" type="curve" smooth="yes"/>
      <point x="26" y="-117"/>
      <point x="29" y="-120"/>
      <point x="33" y="-122" type="curve"/>
      <point x="72" y="-146" type="line"/>
      <point x="97" y="-108"/>
      <point x="118" y="-70"/>
      <point x="136" y="-32" type="curve" smooth="yes"/>
      <point x="154" y="6"/>
      <point x="167" y="44"/>
      <point x="178" y="82" type="curve" smooth="yes"/>
      <point x="189" y="120"/>
      <point x="197" y="158"/>
      <point x="202" y="196" type="curve" smooth="yes"/>
      <point x="207" y="234"/>
      <point x="210" y="275"/>
      <point x="210" y="315" type="curve" smooth="yes"/>
      <point x="210" y="355"/>
      <point x="207" y="396"/>
      <point x="202" y="434" type="curve" smooth="yes"/>
      <point x="197" y="472"/>
      <point x="189" y="510"/>
      <point x="178" y="548" type="curve" smooth="yes"/>
      <point x="167" y="586"/>
      <point x="154" y="623"/>
      <point x="136" y="661" type="curve" smooth="yes"/>
      <point x="118" y="699"/>
      <point x="97" y="737"/>
      <point x="72" y="775" type="curve"/>
      <point x="32" y="750" type="line"/>
      <point x="28" y="748"/>
      <point x="26" y="745"/>
      <point x="24" y="742" type="curve" smooth="yes"/>
      <point x="22" y="739"/>
      <point x="20" y="735"/>
      <point x="20" y="731" type="curve" smooth="yes"/>
      <point x="20" y="726"/>
      <point x="21" y="720"/>
      <point x="25" y="714" type="curve"/>
      <point x="60" y="654"/>
      <point x="86" y="590"/>
      <point x="104" y="522" type="curve" smooth="yes"/>
      <point x="122" y="454"/>
      <point x="132" y="386"/>
      <point x="132" y="314" type="curve" smooth="yes"/>
    </contour>
  </outline>
</glyph>
<glyph name="plus" format="1">
  <advance width="534"/>
  <unicode hex="002B"/>
  <note>
    plus
  </note>
  <outline>
    <contour>
      <point x="303" y="583" type="line"/>
      <point x="230" y="583" type="line"/>
      <point x="230" y="370" type="line"/>
      <point x="28" y="370" type="line"/>
      <point x="28" y="302" type="line"/>
      <point x="230" y="302" type="line"/>
      <point x="230" y="87" type="line"/>
      <point x="303" y="87" type="line"/>
      <point x="303" y="302" type="line"/>
      <point x="506" y="302" type="line"/>
      <point x="506" y="370" type="line"/>
      <point x="303" y="370" type="line"/>
    </contour>
  </outline>
</glyph>
<glyph name="comma" format="1">
  <advance width="208"/>
  <unicode hex="002C"/>
  <note>
    comma
  </note>
  <outline>
    <contour>
      <point x="121" y="-96"/>
      <point x="166" y="-23"/>
      <point x="166" y="47" type="curve" smooth="yes"/>
      <point x="166" y="85"/>
      <point x="147" y="118"/>
      <point x="104" y="118" type="curve" smooth="yes"/>
      <point x="72" y="118"/>
      <point x="45" y="92"/>
      <point x="45" y="61" type="curve"/>
      <point x="45" y="30"/>
      <point x="66" y="0"/>
      <point x="104" y="0" type="curve" smooth="yes"/>
      <point x="110" y="0" type="line"/>
      <point x="106" y="-24"/>
      <point x="91" y="-54"/>
      <point x="70" y="-79" type="curve" smooth="yes"/>
      <point x="58" y="-94"/>
      <point x="50" y="-96"/>
      <point x="50" y="-107" type="curve" smooth="yes"/>
      <point x="50" y="-113"/>
      <point x="52" y="-117"/>
      <point x="56" y="-121" type="curve" smooth="yes"/>
      <point x="71" y="-136" type="line"/>
    </contour>
  </outline>
</glyph>
<glyph name="hyphen" format="1">
  <advance width="341"/>
  <unicode hex="002D"/>
  <note>
    hyphen
  </note>
  <outline>
    <contour>
      <point x="48" y="338" type="line"/>
      <point x="48" y="262" type="line"/>
      <point x="294" y="262" type="line"/>
      <point x="294" y="338" type="line"/>
    </contour>
  </outline>
</glyph>
<glyph name="one" format="1">
  <advance width="465"/>
  <unicode hex="0031"/>
  <note>
    one
  </note>
  <outline>
    <contour>
      <point x="304" y="68" type="line"/>
      <point x="304" y="718" type="line"/>
      <point x="232" y="718" type="line"/>
      <point x="19" y="534" type="line"/>
      <point x="47" y="495" type="line"/>
      <point x="54" y="484"/>
      <point x="72" y="478"/>
      <point x="89" y="492" type="curve" smooth="yes"/>
      <point x="217" y="601" type="line"/>
      <point x="216" y="586"/>
      <point x="216" y="570"/>
      <point x="216" y="556" type="curve" smooth="yes"/>
      <point x="216" y="68" type="line"/>
      <point x="76" y="58" type="line"/>
      <point x="66" y="56"/>
      <point x="62" y="50"/>
      <point x="62" y="40" type="curve" smooth="yes"/>
      <point x="62" y="0" type="line"/>
      <point x="446" y="0" type="line"/>
      <point x="446" y="40" type="line" smooth="yes"/>
      <point x="446" y="50"/>
      <point x="442" y="56"/>
      <point x="432" y="58" type="curve"/>
    </contour>
  </outline>
</glyph>
<glyph name="three" format="1">
  <advance width="530"/>
  <unicode hex="0033"/>
  <note>
    three
  </note>
  <outline>
    <contour>
      <point x="276" y="724" type="line" smooth="yes"/>
      <point x="246" y="724"/>
      <point x="216" y="720"/>
      <point x="190" y="711" type="curve" smooth="yes"/>
      <point x="164" y="702"/>
      <point x="140" y="689"/>
      <point x="120" y="672" type="curve" smooth="yes"/>
      <point x="100" y="655"/>
      <point x="83" y="634"/>
      <point x="69" y="609" type="curve" smooth="yes"/>
      <point x="55" y="584"/>
      <point x="46" y="554"/>
      <point x="42" y="522" type="curve"/>
      <point x="88" y="514" type="line"/>
      <point x="95" y="514" type="line"/>
      <point x="100" y="514" type="line" smooth="yes"/>
      <point x="108" y="514"/>
      <point x="115" y="516"/>
      <point x="121" y="520" type="curve" smooth="yes"/>
      <point x="127" y="524"/>
      <point x="131" y="531"/>
      <point x="133" y="541" type="curve"/>
      <point x="137" y="557"/>
      <point x="143" y="571"/>
      <point x="151" y="584" type="curve" smooth="yes"/>
      <point x="159" y="597"/>
      <point x="169" y="608"/>
      <point x="181" y="618" type="curve" smooth="yes"/>
      <point x="193" y="628"/>
      <point x="206" y="634"/>
      <point x="222" y="640" type="curve" smooth="yes"/>
      <point x="238" y="646"/>
      <point x="254" y="648"/>
      <point x="272" y="648" type="curve" smooth="yes"/>
      <point x="290" y="648"/>
      <point x="306" y="645"/>
      <point x="322" y="640" type="curve" smooth="yes"/>
      <point x="338" y="635"/>
      <point x="350" y="628"/>
      <point x="362" y="618" type="curve" smooth="yes"/>
      <point x="374" y="608"/>
      <point x="384" y="596"/>
      <point x="390" y="580" type="curve" smooth="yes"/>
      <point x="396" y="564"/>
      <point x="399" y="546"/>
      <point x="399" y="526" type="curve" smooth="yes"/>
      <point x="399" y="508"/>
      <point x="396" y="491"/>
      <point x="390" y="475" type="curve" smooth="yes"/>
      <point x="384" y="459"/>
      <point x="374" y="447"/>
      <point x="360" y="436" type="curve" smooth="yes"/>
      <point x="346" y="425"/>
      <point x="330" y="416"/>
      <point x="308" y="410" type="curve" smooth="yes"/>
      <point x="286" y="404"/>
      <point x="260" y="399"/>
      <point x="230" y="399" type="curve"/>
      <point x="230" y="334" type="line"/>
      <point x="268" y="334"/>
      <point x="298" y="330"/>
      <point x="322" y="324" type="curve" smooth="yes"/>
      <point x="346" y="318"/>
      <point x="364" y="310"/>
      <point x="378" y="298" type="curve" smooth="yes"/>
      <point x="392" y="286"/>
      <point x="401" y="272"/>
      <point x="406" y="256" type="curve" smooth="yes"/>
      <point x="411" y="240"/>
      <point x="414" y="223"/>
      <point x="414" y="203" type="curve" smooth="yes"/>
      <point x="414" y="187"/>
      <point x="410" y="172"/>
      <point x="404" y="156" type="curve" smooth="yes"/>
      <point x="398" y="140"/>
      <point x="388" y="125"/>
      <point x="376" y="112" type="curve" smooth="yes"/>
      <point x="364" y="99"/>
      <point x="347" y="88"/>
      <point x="328" y="80" type="curve" smooth="yes"/>
      <point x="309" y="72"/>
      <point x="287" y="68"/>
      <point x="262" y="68" type="curve" smooth="yes"/>
      <point x="237" y="68"/>
      <point x="217" y="72"/>
      <point x="200" y="80" type="curve" smooth="yes"/>
      <point x="183" y="88"/>
      <point x="169" y="96"/>
      <point x="157" y="106" type="curve" smooth="yes"/>
      <point x="145" y="116"/>
      <point x="136" y="128"/>
      <point x="130" y="140" type="curve" smooth="yes"/>
      <point x="124" y="152"/>
      <point x="118" y="163"/>
      <point x="114" y="173" type="curve"/>
      <point x="114" y="175"/>
      <point x="112" y="176"/>
      <point x="112" y="178" type="curve" smooth="yes"/>
      <point x="112" y="180"/>
      <point x="110" y="180"/>
      <point x="110" y="182" type="curve"/>
      <point x="108" y="188"/>
      <point x="104" y="193"/>
      <point x="99" y="196" type="curve" smooth="yes"/>
      <point x="94" y="199"/>
      <point x="88" y="200"/>
      <point x="82" y="200" type="curve" smooth="yes"/>
      <point x="75" y="200"/>
      <point x="67" y="199"/>
      <point x="60" y="196" type="curve" smooth="yes"/>
      <point x="22" y="180" type="line"/>
      <point x="30" y="154"/>
      <point x="41" y="128"/>
      <point x="53" y="105" type="curve" smooth="yes"/>
      <point x="65" y="82"/>
      <point x="81" y="62"/>
      <point x="99" y="46" type="curve" smooth="yes"/>
      <point x="117" y="30"/>
      <point x="141" y="16"/>
      <point x="168" y="6" type="curve" smooth="yes"/>
      <point x="195" y="-4"/>
      <point x="227" y="-8"/>
      <point x="265" y="-8" type="curve" smooth="yes"/>
      <point x="298" y="-8"/>
      <point x="329" y="-3"/>
      <point x="358" y="7" type="curve" smooth="yes"/>
      <point x="387" y="17"/>
      <point x="412" y="32"/>
      <point x="434" y="50" type="curve" smooth="yes"/>
      <point x="456" y="68"/>
      <point x="472" y="91"/>
      <point x="484" y="117" type="curve" smooth="yes"/>
      <point x="496" y="143"/>
      <point x="503" y="173"/>
      <point x="503" y="206" type="curve" smooth="yes"/>
      <point x="503" y="250"/>
      <point x="492" y="286"/>
      <point x="468" y="315" type="curve" smooth="yes"/>
      <point x="444" y="344"/>
      <point x="408" y="365"/>
      <point x="362" y="377" type="curve"/>
      <point x="381" y="383"/>
      <point x="398" y="390"/>
      <point x="414" y="400" type="curve" smooth="yes"/>
      <point x="430" y="410"/>
      <point x="443" y="420"/>
      <point x="454" y="434" type="curve" smooth="yes"/>
      <point x="465" y="448"/>
      <point x="473" y="463"/>
      <point x="479" y="481" type="curve" smooth="yes"/>
      <point x="485" y="499"/>
      <point x="488" y="520"/>
      <point x="488" y="542" type="curve" smooth="yes"/>
      <point x="488" y="570"/>
      <point x="482" y="594"/>
      <point x="472" y="616" type="curve" smooth="yes"/>
      <point x="462" y="638"/>
      <point x="447" y="658"/>
      <point x="429" y="674" type="curve" smooth="yes"/>
      <point x="411" y="690"/>
      <point x="389" y="704"/>
      <point x="363" y="712" type="curve" smooth="yes"/>
      <point x="337" y="720"/>
      <point x="309" y="724"/>
      <point x="279" y="724" type="curve" smooth="yes"/>
    </contour>
  </outline>
</glyph>
<glyph name="six" format="1">
  <advance width="537"/>
  <unicode hex="0036"/>
  <note>
    six
  </note>
  <outline>
    <contour>
      <point x="299" y="439" type="line"/>
      <point x="275" y="439"/>
      <point x="252" y="435"/>
      <point x="232" y="429" type="curve" smooth="yes"/>
      <point x="212" y="423"/>
      <point x="193" y="414"/>
      <point x="176" y="402" type="curve"/>
      <point x="424" y="716" type="line"/>
      <point x="345" y="716" type="line" smooth="yes"/>
      <point x="335" y="716"/>
      <point x="324" y="714"/>
      <point x="316" y="710" type="curve" smooth="yes"/>
      <point x="308" y="706"/>
      <point x="301" y="702"/>
      <point x="297" y="696" type="curve"/>
      <point x="116" y="451" type="line" smooth="yes"/>
      <point x="86" y="411"/>
      <point x="63" y="373"/>
      <point x="49" y="337" type="curve" smooth="yes"/>
      <point x="35" y="301"/>
      <point x="28" y="268"/>
      <point x="28" y="236" type="curve" smooth="yes"/>
      <point x="28" y="198"/>
      <point x="33" y="165"/>
      <point x="44" y="135" type="curve" smooth="yes"/>
      <point x="55" y="105"/>
      <point x="72" y="79"/>
      <point x="92" y="58" type="curve" smooth="yes"/>
      <point x="112" y="37"/>
      <point x="137" y="22"/>
      <point x="166" y="10" type="curve" smooth="yes"/>
      <point x="195" y="-2"/>
      <point x="228" y="-8"/>
      <point x="264" y="-8" type="curve" smooth="yes"/>
      <point x="300" y="-8"/>
      <point x="334" y="-2"/>
      <point x="364" y="10" type="curve" smooth="yes"/>
      <point x="394" y="22"/>
      <point x="420" y="39"/>
      <point x="442" y="60" type="curve" smooth="yes"/>
      <point x="464" y="81"/>
      <point x="480" y="106"/>
      <point x="492" y="134" type="curve" smooth="yes"/>
      <point x="504" y="162"/>
      <point x="510" y="193"/>
      <point x="510" y="226" type="curve" smooth="yes"/>
      <point x="510" y="260"/>
      <point x="506" y="290"/>
      <point x="494" y="316" type="curve" smooth="yes"/>
      <point x="482" y="342"/>
      <point x="467" y="365"/>
      <point x="447" y="383" type="curve" smooth="yes"/>
      <point x="427" y="401"/>
      <point x="406" y="414"/>
      <point x="380" y="424" type="curve" smooth="yes"/>
      <point x="354" y="434"/>
      <point x="326" y="438"/>
      <point x="298" y="438" type="curve"/>
    </contour>
    <contour>
      <point x="114" y="240"/>
      <point x="117" y="259"/>
      <point x="124" y="277" type="curve" smooth="yes"/>
      <point x="131" y="295"/>
      <point x="141" y="311"/>
      <point x="155" y="325" type="curve" smooth="yes"/>
      <point x="169" y="339"/>
      <point x="184" y="350"/>
      <point x="204" y="358" type="curve" smooth="yes"/>
      <point x="224" y="366"/>
      <point x="246" y="370"/>
      <point x="270" y="370" type="curve" smooth="yes"/>
      <point x="292" y="370"/>
      <point x="313" y="367"/>
      <point x="331" y="360" type="curve" smooth="yes"/>
      <point x="349" y="353"/>
      <point x="365" y="343"/>
      <point x="379" y="330" type="curve" smooth="yes"/>
      <point x="393" y="317"/>
      <point x="402" y="301"/>
      <point x="410" y="282" type="curve" smooth="yes"/>
      <point x="418" y="263"/>
      <point x="422" y="242"/>
      <point x="422" y="218" type="curve" smooth="yes"/>
      <point x="422" y="196"/>
      <point x="418" y="175"/>
      <point x="410" y="157" type="curve" smooth="yes"/>
      <point x="402" y="139"/>
      <point x="392" y="123"/>
      <point x="378" y="109" type="curve" smooth="yes"/>
      <point x="364" y="95"/>
      <point x="348" y="86"/>
      <point x="328" y="78" type="curve" smooth="yes"/>
      <point x="308" y="70"/>
      <point x="287" y="66"/>
      <point x="263" y="66" type="curve" smooth="yes"/>
      <point x="239" y="66"/>
      <point x="218" y="69"/>
      <point x="200" y="77" type="curve" smooth="yes"/>
      <point x="182" y="85"/>
      <point x="166" y="94"/>
      <point x="153" y="108" type="curve" smooth="yes"/>
      <point x="140" y="122"/>
      <point x="130" y="139"/>
      <point x="124" y="158" type="curve" smooth="yes"/>
      <point x="118" y="177"/>
      <point x="114" y="197"/>
      <point x="114" y="220" type="curve" smooth="yes"/>
    </contour>
  </outline>
</glyph>
<glyph name="seven" format="1">
  <advance width="543"/>
  <unicode hex="0037"/>
  <note>
    seven
  </note>
  <outline>
    <contour>
      <point x="31" y="716" type="line"/>
      <point x="31" y="542" type="line"/>
      <point x="80" y="542" type="line" smooth="yes"/>
      <point x="92" y="542"/>
      <point x="98" y="547"/>
      <point x="100" y="559" type="curve"/>
      <point x="101" y="563"/>
      <point x="104" y="588"/>
      <point x="108" y="634" type="curve"/>
      <point x="428" y="634" type="line"/>
      <point x="418" y="623"/>
      <point x="409" y="609"/>
      <point x="399" y="591" type="curve"/>
      <point x="98" y="0" type="line"/>
      <point x="162" y="0" type="line" smooth="yes"/>
      <point x="184" y="0"/>
      <point x="200" y="11"/>
      <point x="210" y="32" type="curve" smooth="yes"/>
      <point x="507" y="630" type="line"/>
      <point x="515" y="644"/>
      <point x="518" y="660"/>
      <point x="518" y="676" type="curve" smooth="yes"/>
      <point x="518" y="716" type="line"/>
    </contour>
  </outline>
</glyph>
<glyph name="eight" format="1">
  <advance width="537"/>
  <unicode hex="0038"/>
  <note>
    eight
  </note>
  <outline>
    <contour>
      <point x="270" y="-8" type="line"/>
      <point x="306" y="-8"/>
      <point x="337" y="-4"/>
      <point x="367" y="6" type="curve" smooth="yes"/>
      <point x="397" y="16"/>
      <point x="422" y="28"/>
      <point x="443" y="46" type="curve" smooth="yes"/>
      <point x="464" y="64"/>
      <point x="480" y="85"/>
      <point x="492" y="110" type="curve" smooth="yes"/>
      <point x="504" y="135"/>
      <point x="510" y="163"/>
      <point x="510" y="195" type="curve" smooth="yes"/>
      <point x="510" y="241"/>
      <point x="498" y="279"/>
      <point x="474" y="309" type="curve" smooth="yes"/>
      <point x="450" y="339"/>
      <point x="416" y="360"/>
      <point x="372" y="372" type="curve"/>
      <point x="410" y="386"/>
      <point x="437" y="408"/>
      <point x="457" y="436" type="curve" smooth="yes"/>
      <point x="477" y="464"/>
      <point x="486" y="497"/>
      <point x="486" y="535" type="curve" smooth="yes"/>
      <point x="486" y="561"/>
      <point x="480" y="586"/>
      <point x="470" y="609" type="curve" smooth="yes"/>
      <point x="460" y="632"/>
      <point x="445" y="652"/>
      <point x="426" y="669" type="curve" smooth="yes"/>
      <point x="407" y="686"/>
      <point x="384" y="699"/>
      <point x="358" y="709" type="curve" smooth="yes"/>
      <point x="332" y="719"/>
      <point x="302" y="724"/>
      <point x="270" y="724" type="curve" smooth="yes"/>
      <point x="238" y="724"/>
      <point x="207" y="719"/>
      <point x="181" y="709" type="curve" smooth="yes"/>
      <point x="155" y="699"/>
      <point x="131" y="686"/>
      <point x="112" y="669" type="curve" smooth="yes"/>
      <point x="93" y="652"/>
      <point x="78" y="632"/>
      <point x="68" y="609" type="curve" smooth="yes"/>
      <point x="58" y="586"/>
      <point x="53" y="561"/>
      <point x="53" y="535" type="curve" smooth="yes"/>
      <point x="53" y="497"/>
      <point x="63" y="463"/>
      <point x="82" y="435" type="curve" smooth="yes"/>
      <point x="101" y="407"/>
      <point x="128" y="386"/>
      <point x="166" y="372" type="curve"/>
      <point x="122" y="360"/>
      <point x="88" y="338"/>
      <point x="64" y="308" type="curve" smooth="yes"/>
      <point x="40" y="278"/>
      <point x="28" y="240"/>
      <point x="28" y="194" type="curve" smooth="yes"/>
      <point x="28" y="162"/>
      <point x="33" y="134"/>
      <point x="45" y="109" type="curve" smooth="yes"/>
      <point x="57" y="84"/>
      <point x="72" y="63"/>
      <point x="94" y="45" type="curve" smooth="yes"/>
      <point x="116" y="27"/>
      <point x="141" y="14"/>
      <point x="171" y="4" type="curve" smooth="yes"/>
      <point x="201" y="-6"/>
      <point x="232" y="-10"/>
      <point x="268" y="-10" type="curve"/>
    </contour>
    <contour>
      <point x="268" y="62" type="line"/>
      <point x="244" y="62"/>
      <point x="224" y="65"/>
      <point x="206" y="71" type="curve" smooth="yes"/>
      <point x="188" y="77"/>
      <point x="171" y="86"/>
      <point x="158" y="98" type="curve" smooth="yes"/>
      <point x="145" y="110"/>
      <point x="135" y="125"/>
      <point x="128" y="141" type="curve" smooth="yes"/>
      <point x="121" y="157"/>
      <point x="118" y="176"/>
      <point x="118" y="196" type="curve" smooth="yes"/>
      <point x="118" y="220"/>
      <point x="122" y="240"/>
      <point x="130" y="258" type="curve" smooth="yes"/>
      <point x="138" y="276"/>
      <point x="149" y="290"/>
      <point x="163" y="301" type="curve" smooth="yes"/>
      <point x="177" y="312"/>
      <point x="193" y="320"/>
      <point x="211" y="325" type="curve" smooth="yes"/>
      <point x="229" y="330"/>
      <point x="248" y="332"/>
      <point x="268" y="332" type="curve" smooth="yes"/>
      <point x="288" y="332"/>
      <point x="306" y="330"/>
      <point x="324" y="325" type="curve" smooth="yes"/>
      <point x="342" y="320"/>
      <point x="358" y="312"/>
      <point x="372" y="301" type="curve" smooth="yes"/>
      <point x="386" y="290"/>
      <point x="397" y="276"/>
      <point x="405" y="258" type="curve" smooth="yes"/>
      <point x="413" y="240"/>
      <point x="417" y="219"/>
      <point x="417" y="195" type="curve" smooth="yes"/>
      <point x="417" y="175"/>
      <point x="413" y="156"/>
      <point x="406" y="140" type="curve" smooth="yes"/>
      <point x="399" y="124"/>
      <point x="389" y="110"/>
      <point x="376" y="98" type="curve" smooth="yes"/>
      <point x="363" y="86"/>
      <point x="348" y="76"/>
      <point x="330" y="70" type="curve" smooth="yes"/>
      <point x="312" y="64"/>
      <point x="290" y="60"/>
      <point x="266" y="60" type="curve"/>
    </contour>
    <contour>
      <point x="266" y="404" type="line"/>
      <point x="242" y="404"/>
      <point x="222" y="407"/>
      <point x="206" y="414" type="curve" smooth="yes"/>
      <point x="190" y="421"/>
      <point x="176" y="431"/>
      <point x="166" y="443" type="curve" smooth="yes"/>
      <point x="156" y="455"/>
      <point x="148" y="468"/>
      <point x="144" y="484" type="curve" smooth="yes"/>
      <point x="140" y="500"/>
      <point x="136" y="516"/>
      <point x="136" y="532" type="curve" smooth="yes"/>
      <point x="136" y="548"/>
      <point x="138" y="564"/>
      <point x="144" y="578" type="curve" smooth="yes"/>
      <point x="150" y="592"/>
      <point x="158" y="606"/>
      <point x="169" y="617" type="curve" smooth="yes"/>
      <point x="180" y="628"/>
      <point x="194" y="637"/>
      <point x="210" y="643" type="curve" smooth="yes"/>
      <point x="226" y="649"/>
      <point x="244" y="652"/>
      <point x="266" y="652" type="curve" smooth="yes"/>
      <point x="288" y="652"/>
      <point x="306" y="649"/>
      <point x="322" y="643" type="curve" smooth="yes"/>
      <point x="338" y="637"/>
      <point x="351" y="628"/>
      <point x="362" y="617" type="curve" smooth="yes"/>
      <point x="373" y="606"/>
      <point x="380" y="592"/>
      <point x="386" y="578" type="curve" smooth="yes"/>
      <point x="392" y="564"/>
      <point x="394" y="548"/>
      <point x="394" y="532" type="curve" smooth="yes"/>
      <point x="394" y="516"/>
      <point x="392" y="500"/>
      <point x="388" y="484" type="curve" smooth="yes"/>
      <point x="384" y="468"/>
      <point x="375" y="455"/>
      <point x="365" y="443" type="curve" smooth="yes"/>
      <point x="355" y="431"/>
      <point x="340" y="421"/>
      <point x="324" y="414" type="curve" smooth="yes"/>
      <point x="308" y="407"/>
      <point x="288" y="404"/>
      <point x="264" y="404" type="curve"/>
    </contour>
  </outline>
</glyph>
<glyph name="nine" format="1">
  <advance width="522"/>
  <unicode hex="0039"/>
  <note>
    nine
  </note>
  <outline>
    <contour>
      <point x="254" y="294"/>
      <point x="279" y="298"/>
      <point x="302" y="306" type="curve" smooth="yes"/>
      <point x="325" y="314"/>
      <point x="346" y="324"/>
      <point x="364" y="338" type="curve"/>
      <point x="358" y="330"/>
      <point x="352" y="321"/>
      <point x="346" y="313" type="curve" smooth="yes"/>
      <point x="340" y="305"/>
      <point x="332" y="296"/>
      <point x="324" y="286" type="curve" smooth="yes"/>
      <point x="106" y="0" type="line"/>
      <point x="188" y="0" type="line" smooth="yes"/>
      <point x="198" y="0"/>
      <point x="208" y="2"/>
      <point x="216" y="6" type="curve" smooth="yes"/>
      <point x="224" y="10"/>
      <point x="230" y="16"/>
      <point x="234" y="22" type="curve" smooth="yes"/>
      <point x="409" y="274" type="line" smooth="yes"/>
      <point x="422" y="292"/>
      <point x="434" y="310"/>
      <point x="444" y="328" type="curve" smooth="yes"/>
      <point x="454" y="346"/>
      <point x="462" y="362"/>
      <point x="470" y="380" type="curve" smooth="yes"/>
      <point x="478" y="398"/>
      <point x="482" y="416"/>
      <point x="486" y="434" type="curve" smooth="yes"/>
      <point x="490" y="452"/>
      <point x="492" y="473"/>
      <point x="492" y="493" type="curve" smooth="yes"/>
      <point x="492" y="527"/>
      <point x="487" y="560"/>
      <point x="476" y="588" type="curve" smooth="yes"/>
      <point x="465" y="616"/>
      <point x="450" y="641"/>
      <point x="430" y="661" type="curve" smooth="yes"/>
      <point x="410" y="681"/>
      <point x="386" y="697"/>
      <point x="358" y="709" type="curve" smooth="yes"/>
      <point x="330" y="721"/>
      <point x="298" y="726"/>
      <point x="264" y="726" type="curve" smooth="yes"/>
      <point x="230" y="726"/>
      <point x="197" y="720"/>
      <point x="168" y="708" type="curve" smooth="yes"/>
      <point x="139" y="696"/>
      <point x="115" y="680"/>
      <point x="94" y="660" type="curve" smooth="yes"/>
      <point x="73" y="640"/>
      <point x="56" y="616"/>
      <point x="44" y="588" type="curve" smooth="yes"/>
      <point x="32" y="560"/>
      <point x="27" y="532"/>
      <point x="27" y="500" type="curve" smooth="yes"/>
      <point x="27" y="467"/>
      <point x="33" y="438"/>
      <point x="44" y="412" type="curve" smooth="yes"/>
      <point x="55" y="386"/>
      <point x="70" y="366"/>
      <point x="88" y="348" type="curve" smooth="yes"/>
      <point x="106" y="330"/>
      <point x="127" y="317"/>
      <point x="151" y="308" type="curve" smooth="yes"/>
      <point x="175" y="299"/>
      <point x="201" y="294"/>
      <point x="228" y="294" type="curve" smooth="yes"/>
    </contour>
    <contour>
      <point x="406" y="504" type="line"/>
      <point x="406" y="486"/>
      <point x="402" y="467"/>
      <point x="396" y="450" type="curve" smooth="yes"/>
      <point x="390" y="433"/>
      <point x="380" y="419"/>
      <point x="368" y="406" type="curve" smooth="yes"/>
      <point x="356" y="393"/>
      <point x="340" y="382"/>
      <point x="322" y="374" type="curve" smooth="yes"/>
      <point x="304" y="366"/>
      <point x="282" y="362"/>
      <point x="258" y="362" type="curve" smooth="yes"/>
      <point x="236" y="362"/>
      <point x="217" y="366"/>
      <point x="199" y="372" type="curve" smooth="yes"/>
      <point x="181" y="378"/>
      <point x="166" y="388"/>
      <point x="154" y="400" type="curve" smooth="yes"/>
      <point x="142" y="412"/>
      <point x="132" y="428"/>
      <point x="126" y="446" type="curve" smooth="yes"/>
      <point x="120" y="464"/>
      <point x="116" y="484"/>
      <point x="116" y="506" type="curve" smooth="yes"/>
      <point x="116" y="527"/>
      <point x="120" y="546"/>
      <point x="127" y="564" type="curve" smooth="yes"/>
      <point x="134" y="582"/>
      <point x="144" y="597"/>
      <point x="157" y="609" type="curve" smooth="yes"/>
      <point x="170" y="621"/>
      <point x="186" y="631"/>
      <point x="204" y="638" type="curve" smooth="yes"/>
      <point x="222" y="645"/>
      <point x="242" y="649"/>
      <point x="264" y="649" type="curve" smooth="yes"/>
      <point x="285" y="649"/>
      <point x="303" y="645"/>
      <point x="321" y="638" type="curve" smooth="yes"/>
      <point x="339" y="631"/>
      <point x="354" y="621"/>
      <point x="366" y="609" type="curve" smooth="yes"/>
      <point x="378" y="597"/>
      <point x="389" y="581"/>
      <point x="396" y="563" type="curve" smooth="yes"/>
      <point x="403" y="545"/>
      <point x="406" y="524"/>
      <point x="406" y="502" type="curve"/>
    </contour>
  </outline>
</glyph>
<glyph name="less" format="1">
  <advance width="454"/>
  <unicode hex="003C"/>
  <note>
    less
  </note>
  <outline>
    <contour>
      <point x="30" y="355" type="line"/>
      <point x="30" y="318" type="line"/>
      <point x="418" y="117" type="line"/>
      <point x="418" y="181" type="line" smooth="yes"/>
      <point x="418" y="187"/>
      <point x="416" y="192"/>
      <point x="414" y="196" type="curve" smooth="yes"/>
      <point x="412" y="200"/>
      <point x="406" y="204"/>
      <point x="400" y="208" type="curve"/>
      <point x="176" y="322" type="line"/>
      <point x="170" y="326"/>
      <point x="162" y="328"/>
      <point x="154" y="330" type="curve" smooth="yes"/>
      <point x="130" y="336" type="line"/>
      <point x="138" y="338"/>
      <point x="146" y="341"/>
      <point x="154" y="343" type="curve" smooth="yes"/>
      <point x="162" y="345"/>
      <point x="170" y="348"/>
      <point x="176" y="352" type="curve"/>
      <point x="400" y="466" type="line"/>
      <point x="406" y="470"/>
      <point x="412" y="473"/>
      <point x="414" y="477" type="curve" smooth="yes"/>
      <point x="416" y="481"/>
      <point x="418" y="486"/>
      <point x="418" y="492" type="curve" smooth="yes"/>
      <point x="418" y="555" type="line"/>
    </contour>
  </outline>
</glyph>
<glyph name="greater" format="1">
  <advance width="455"/>
  <unicode hex="003E"/>
  <note>
    greater
  </note>
  <outline>
    <contour>
      <point x="38" y="117" type="line"/>
      <point x="425" y="318" type="line"/>
      <point x="425" y="355" type="line"/>
      <point x="38" y="556" type="line"/>
      <point x="38" y="492" type="line" smooth="yes"/>
      <point x="38" y="486"/>
      <point x="40" y="482"/>
      <point x="42" y="478" type="curve" smooth="yes"/>
      <point x="44" y="474"/>
      <point x="50" y="470"/>
      <point x="56" y="466" type="curve"/>
      <point x="280" y="352" type="line"/>
      <point x="286" y="348"/>
      <point x="294" y="345"/>
      <point x="301" y="343" type="curve" smooth="yes"/>
      <point x="308" y="341"/>
      <point x="316" y="338"/>
      <point x="324" y="336" type="curve"/>
      <point x="316" y="334"/>
      <point x="307" y="332"/>
      <point x="300" y="330" type="curve" smooth="yes"/>
      <point x="293" y="328"/>
      <point x="286" y="325"/>
      <point x="280" y="321" type="curve"/>
      <point x="56" y="208" type="line"/>
      <point x="50" y="204"/>
      <point x="44" y="200"/>
      <point x="42" y="196" type="curve" smooth="yes"/>
      <point x="40" y="192"/>
      <point x="38" y="186"/>
      <point x="38" y="180" type="curve" smooth="yes"/>
    </contour>
  </outline>
</glyph>
<glyph name="question" format="1">
  <advance width="411"/>
  <unicode hex="003F"/>
  <note>
    question
  </note>
  <outline>
    <contour>
      <point x="22" y="652" type="line"/>
      <point x="45" y="615" type="line"/>
      <point x="49" y="607"/>
      <point x="56" y="604"/>
      <point x="64" y="604" type="curve" smooth="yes"/>
      <point x="68" y="604"/>
      <point x="74" y="606"/>
      <point x="80" y="611" type="curve" smooth="yes"/>
      <point x="86" y="616"/>
      <point x="94" y="622"/>
      <point x="104" y="628" type="curve" smooth="yes"/>
      <point x="114" y="634"/>
      <point x="126" y="639"/>
      <point x="140" y="644" type="curve" smooth="yes"/>
      <point x="154" y="649"/>
      <point x="172" y="652"/>
      <point x="192" y="652" type="curve" smooth="yes"/>
      <point x="207" y="652"/>
      <point x="221" y="649"/>
      <point x="234" y="645" type="curve" smooth="yes"/>
      <point x="247" y="641"/>
      <point x="258" y="634"/>
      <point x="268" y="626" type="curve" smooth="yes"/>
      <point x="278" y="618"/>
      <point x="285" y="608"/>
      <point x="291" y="596" type="curve" smooth="yes"/>
      <point x="297" y="584"/>
      <point x="300" y="572"/>
      <point x="300" y="558" type="curve" smooth="yes"/>
      <point x="300" y="538"/>
      <point x="296" y="520"/>
      <point x="288" y="506" type="curve" smooth="yes"/>
      <point x="280" y="492"/>
      <point x="272" y="478"/>
      <point x="260" y="466" type="curve" smooth="yes"/>
      <point x="248" y="454"/>
      <point x="235" y="445"/>
      <point x="222" y="435" type="curve" smooth="yes"/>
      <point x="209" y="425"/>
      <point x="198" y="416"/>
      <point x="186" y="406" type="curve" smooth="yes"/>
      <point x="174" y="396"/>
      <point x="165" y="387"/>
      <point x="157" y="376" type="curve" smooth="yes"/>
      <point x="149" y="365"/>
      <point x="146" y="352"/>
      <point x="146" y="338" type="curve" smooth="yes"/>
      <point x="146" y="333" type="line"/>
      <point x="152" y="250" type="line"/>
      <point x="212" y="250" type="line"/>
      <point x="222" y="326" type="line"/>
      <point x="224" y="337"/>
      <point x="228" y="347"/>
      <point x="236" y="356" type="curve" smooth="yes"/>
      <point x="244" y="365"/>
      <point x="255" y="375"/>
      <point x="267" y="384" type="curve" smooth="yes"/>
      <point x="279" y="393"/>
      <point x="291" y="402"/>
      <point x="305" y="412" type="curve" smooth="yes"/>
      <point x="319" y="422"/>
      <point x="330" y="434"/>
      <point x="342" y="448" type="curve" smooth="yes"/>
      <point x="354" y="462"/>
      <point x="363" y="478"/>
      <point x="371" y="496" type="curve" smooth="yes"/>
      <point x="379" y="514"/>
      <point x="382" y="536"/>
      <point x="382" y="562" type="curve" smooth="yes"/>
      <point x="382" y="587"/>
      <point x="378" y="610"/>
      <point x="368" y="630" type="curve" smooth="yes"/>
      <point x="358" y="650"/>
      <point x="345" y="667"/>
      <point x="329" y="681" type="curve" smooth="yes"/>
      <point x="313" y="695"/>
      <point x="292" y="706"/>
      <point x="270" y="714" type="curve" smooth="yes"/>
      <point x="248" y="722"/>
      <point x="223" y="725"/>
      <point x="197" y="725" type="curve" smooth="yes"/>
      <point x="177" y="725"/>
      <point x="159" y="723"/>
      <point x="142" y="719" type="curve" smooth="yes"/>
      <point x="125" y="715"/>
      <point x="109" y="709"/>
      <point x="94" y="703" type="curve" smooth="yes"/>
      <point x="79" y="697"/>
      <point x="64" y="688"/>
      <point x="52" y="680" type="curve" smooth="yes"/>
      <point x="40" y="672"/>
      <point x="28" y="664"/>
      <point x="18" y="654" type="curve"/>
    </contour>
    <contour>
      <point x="116" y="47"/>
      <point x="117" y="39"/>
      <point x="120" y="31" type="curve" smooth="yes"/>
      <point x="123" y="23"/>
      <point x="128" y="18"/>
      <point x="134" y="12" type="curve" smooth="yes"/>
      <point x="140" y="6"/>
      <point x="145" y="1"/>
      <point x="153" y="-2" type="curve" smooth="yes"/>
      <point x="161" y="-5"/>
      <point x="169" y="-6"/>
      <point x="177" y="-6" type="curve" smooth="yes"/>
      <point x="185" y="-6"/>
      <point x="193" y="-5"/>
      <point x="201" y="-2" type="curve" smooth="yes"/>
      <point x="209" y="1"/>
      <point x="214" y="6"/>
      <point x="220" y="12" type="curve" smooth="yes"/>
      <point x="226" y="18"/>
      <point x="231" y="23"/>
      <point x="234" y="31" type="curve" smooth="yes"/>
      <point x="237" y="39"/>
      <point x="238" y="47"/>
      <point x="238" y="56" type="curve" smooth="yes"/>
      <point x="238" y="64"/>
      <point x="237" y="72"/>
      <point x="234" y="80" type="curve" smooth="yes"/>
      <point x="231" y="88"/>
      <point x="226" y="93"/>
      <point x="220" y="99" type="curve" smooth="yes"/>
      <point x="214" y="105"/>
      <point x="209" y="108"/>
      <point x="201" y="112" type="curve" smooth="yes"/>
      <point x="193" y="116"/>
      <point x="185" y="118"/>
      <point x="177" y="118" type="curve" smooth="yes"/>
      <point x="169" y="118"/>
      <point x="161" y="116"/>
      <point x="153" y="112" type="curve" smooth="yes"/>
      <point x="145" y="108"/>
      <point x="140" y="105"/>
      <point x="134" y="99" type="curve" smooth="yes"/>
      <point x="128" y="93"/>
      <point x="123" y="88"/>
      <point x="120" y="80" type="curve" smooth="yes"/>
      <point x="117" y="72"/>
      <point x="116" y="64"/>
      <point x="116" y="56" type="curve" smooth="yes"/>
    </contour>
  </outline>
</glyph>
<glyph name="A" format="1">
  <advance width="772"/>
  <unicode hex="0041"/>
  <note>
    A
  </note>
  <outline>
    <contour>
      <point x="695" y="68" type="line"/>
      <point x="436" y="716" type="line"/>
      <point x="338" y="716" type="line"/>
      <point x="78" y="68" type="line"/>
      <point x="38" y="56" type="line"/>
      <point x="30" y="54"/>
      <point x="25" y="49"/>
      <point x="25" y="40" type="curve" smooth="yes"/>
      <point x="25" y="0" type="line"/>
      <point x="230" y="0" type="line"/>
      <point x="230" y="40" type="line" smooth="yes"/>
      <point x="230" y="49"/>
      <point x="226" y="54"/>
      <point x="217" y="56" type="curve"/>
      <point x="176" y="68" type="line"/>
      <point x="232" y="212" type="line"/>
      <point x="541" y="212" type="line"/>
      <point x="597" y="68" type="line"/>
      <point x="556" y="56" type="line"/>
      <point x="547" y="54"/>
      <point x="542" y="49"/>
      <point x="542" y="40" type="curve" smooth="yes"/>
      <point x="542" y="0" type="line"/>
      <point x="748" y="0" type="line"/>
      <point x="748" y="40" type="line" smooth="yes"/>
      <point x="748" y="49"/>
      <point x="743" y="54"/>
      <point x="735" y="56" type="curve"/>
    </contour>
    <contour>
      <point x="259" y="282" type="line"/>
      <point x="366" y="557" type="line" smooth="yes"/>
      <point x="373" y="576"/>
      <point x="379" y="598"/>
      <point x="386" y="625" type="curve"/>
      <point x="394" y="598"/>
      <point x="401" y="575"/>
      <point x="408" y="557" type="curve"/>
      <point x="514" y="282" type="line"/>
    </contour>
    <contour>
      <point x="695" y="10" type="move" name="ogonek"/>
    </contour>
    <contour>
      <point x="386" y="0" type="move" name="bottom"/>
    </contour>
    <contour>
      <point x="386" y="716" type="move" name="top"/>
    </contour>
  </outline>
</glyph>
<glyph name="D" format="1">
  <advance width="743"/>
  <unicode hex="0044"/>
  <note>
    D
  </note>
  <outline>
    <contour>
      <point x="718" y="568"/>
      <point x="583" y="716"/>
      <point x="365" y="716" type="curve" smooth="yes"/>
      <point x="34" y="716" type="line"/>
      <point x="34" y="674" type="line" smooth="yes"/>
      <point x="34" y="664"/>
      <point x="40" y="657"/>
      <point x="50" y="655" type="curve"/>
      <point x="106" y="643" type="line"/>
      <point x="106" y="72" type="line"/>
      <point x="50" y="61" type="line" smooth="yes"/>
      <point x="40" y="59"/>
      <point x="34" y="52"/>
      <point x="34" y="42" type="curve" smooth="yes"/>
      <point x="34" y="0" type="line"/>
      <point x="365" y="0" type="line" smooth="yes"/>
      <point x="578" y="0"/>
      <point x="718" y="145"/>
      <point x="718" y="358" type="curve" smooth="yes"/>
    </contour>
    <contour>
      <point x="618" y="187"/>
      <point x="527" y="78"/>
      <point x="365" y="78" type="curve" smooth="yes"/>
      <point x="204" y="78" type="line"/>
      <point x="204" y="638" type="line"/>
      <point x="365" y="638" type="line" smooth="yes"/>
      <point x="529" y="638"/>
      <point x="618" y="525"/>
      <point x="618" y="358" type="curve" smooth="yes"/>
    </contour>
    <contour>
      <point x="372" y="358" type="move" name="center"/>
    </contour>
    <contour>
      <point x="372" y="0" type="move" name="bottom"/>
    </contour>
    <contour>
      <point x="372" y="716" type="move" name="top"/>
    </contour>
  </outline>
</glyph>
<glyph name="E" format="1">
  <advance width="587"/>
  <unicode hex="0045"/>
  <note>
    E
  </note>
  <outline>
    <contour>
      <point x="34" y="716" type="line"/>
      <point x="34" y="674" type="line" smooth="yes"/>
      <point x="34" y="664"/>
      <point x="39" y="657"/>
      <point x="49" y="655" type="curve"/>
      <point x="55" y="653"/>
      <point x="74" y="649"/>
      <point x="106" y="643" type="curve"/>
      <point x="106" y="72" type="line"/>
      <point x="49" y="61" type="line" smooth="yes"/>
      <point x="39" y="59"/>
      <point x="34" y="52"/>
      <point x="34" y="42" type="curve" smooth="yes"/>
      <point x="34" y="0" type="line"/>
      <point x="548" y="0" type="line"/>
      <point x="548" y="166" type="line"/>
      <point x="500" y="166" type="line" smooth="yes"/>
      <point x="488" y="166"/>
      <point x="480" y="162"/>
      <point x="478" y="150" type="curve"/>
      <point x="478" y="147"/>
      <point x="476" y="122"/>
      <point x="472" y="78" type="curve"/>
      <point x="204" y="78" type="line"/>
      <point x="204" y="323" type="line"/>
      <point x="468" y="323" type="line"/>
      <point x="468" y="399" type="line"/>
      <point x="204" y="399" type="line"/>
      <point x="204" y="637" type="line"/>
      <point x="472" y="637" type="line"/>
      <point x="476" y="589"/>
      <point x="479" y="563"/>
      <point x="479" y="560" type="curve"/>
      <point x="481" y="548"/>
      <point x="488" y="543"/>
      <point x="500" y="543" type="curve" smooth="yes"/>
      <point x="548" y="543" type="line"/>
      <point x="548" y="716" type="line"/>
    </contour>
    <contour>
      <point x="528" y="10" type="move" name="ogonek"/>
    </contour>
    <contour>
      <point x="294" y="716" type="move" name="top"/>
    </contour>
    <contour>
      <point x="20" y="716" type="move" name="topleft"/>
    </contour>
    <contour>
      <point x="294" y="0" type="move" name="bottom"/>
    </contour>
  </outline>
</glyph>
<glyph name="F" format="1">
  <advance width="584"/>
  <unicode hex="0046"/>
  <note>
    F
  </note>
  <outline>
    <contour>
      <point x="106" y="716" type="line"/>
      <point x="34" y="716" type="line"/>
      <point x="34" y="674" type="line" smooth="yes"/>
      <point x="34" y="664"/>
      <point x="39" y="657"/>
      <point x="49" y="655" type="curve"/>
      <point x="55" y="653"/>
      <point x="74" y="649"/>
      <point x="106" y="643" type="curve"/>
      <point x="106" y="72" type="line"/>
      <point x="49" y="61" type="line" smooth="yes"/>
      <point x="39" y="59"/>
      <point x="34" y="52"/>
      <point x="34" y="42" type="curve" smooth="yes"/>
      <point x="34" y="0" type="line"/>
      <point x="276" y="0" type="line"/>
      <point x="276" y="42" type="line" smooth="yes"/>
      <point x="276" y="52"/>
      <point x="270" y="59"/>
      <point x="260" y="61" type="curve" smooth="yes"/>
      <point x="230" y="67"/>
      <point x="212" y="70"/>
      <point x="204" y="72" type="curve"/>
      <point x="204" y="308" type="line"/>
      <point x="476" y="308" type="line"/>
      <point x="476" y="386" type="line"/>
      <point x="204" y="386" type="line"/>
      <point x="204" y="637" type="line"/>
      <point x="488" y="637" type="line"/>
      <point x="492" y="589"/>
      <point x="496" y="563"/>
      <point x="496" y="560" type="curve"/>
      <point x="498" y="548"/>
      <point x="504" y="543"/>
      <point x="516" y="543" type="curve" smooth="yes"/>
      <point x="565" y="543" type="line"/>
      <point x="565" y="716" type="line"/>
    </contour>
    <contour>
      <point x="292" y="716" type="move" name="top"/>
    </contour>
    <contour>
      <point x="292" y="0" type="move" name="bottom"/>
    </contour>
  </outline>
</glyph>
<glyph name="G" format="1">
  <advance width="684"/>
  <unicode hex="0047"/>
  <note>
    G
  </note>
  <outline>
    <contour>
      <point x="306" y="70"/>
      <point x="243" y="96"/>
      <point x="195" y="146" type="curve" smooth="yes"/>
      <point x="146" y="198"/>
      <point x="122" y="268"/>
      <point x="122" y="358" type="curve" smooth="yes"/>
      <point x="122" y="444"/>
      <point x="145" y="513"/>
      <point x="193" y="564" type="curve" smooth="yes"/>
      <point x="216" y="588"/>
      <point x="244" y="607"/>
      <point x="276" y="620" type="curve" smooth="yes"/>
      <point x="308" y="633"/>
      <point x="350" y="640"/>
      <point x="398" y="640" type="curve" smooth="yes"/>
      <point x="446" y="640"/>
      <point x="489" y="634"/>
      <point x="527" y="624" type="curve"/>
      <point x="537" y="622"/>
      <point x="548" y="618"/>
      <point x="564" y="613" type="curve"/>
      <point x="568" y="557"/>
      <point x="572" y="527"/>
      <point x="572" y="522" type="curve"/>
      <point x="574" y="510"/>
      <point x="581" y="506"/>
      <point x="593" y="506" type="curve" smooth="yes"/>
      <point x="641" y="506" type="line"/>
      <point x="641" y="672" type="line"/>
      <point x="550" y="706"/>
      <point x="466" y="724"/>
      <point x="388" y="724" type="curve" smooth="yes"/>
      <point x="276" y="724"/>
      <point x="187" y="690"/>
      <point x="120" y="622" type="curve" smooth="yes"/>
      <point x="54" y="556"/>
      <point x="22" y="468"/>
      <point x="22" y="358" type="curve" smooth="yes"/>
      <point x="22" y="250"/>
      <point x="55" y="161"/>
      <point x="121" y="93" type="curve" smooth="yes"/>
      <point x="187" y="25"/>
      <point x="272" y="-8"/>
      <point x="376" y="-8" type="curve" smooth="yes"/>
      <point x="486" y="-8"/>
      <point x="576" y="17"/>
      <point x="648" y="69" type="curve"/>
      <point x="648" y="344" type="line"/>
      <point x="428" y="344" type="line"/>
      <point x="428" y="289" type="line" smooth="yes"/>
      <point x="428" y="283"/>
      <point x="430" y="280"/>
      <point x="434" y="276" type="curve" smooth="yes"/>
      <point x="438" y="272"/>
      <point x="444" y="270"/>
      <point x="450" y="270" type="curve" smooth="yes"/>
      <point x="561" y="270" type="line"/>
      <point x="561" y="112" type="line"/>
      <point x="508" y="84"/>
      <point x="450" y="70"/>
      <point x="384" y="70" type="curve" smooth="yes"/>
    </contour>
    <contour>
      <point x="342" y="716" type="move" name="top"/>
    </contour>
    <contour>
      <point x="342" y="0" type="move" name="bottom"/>
    </contour>
  </outline>
</glyph>
<glyph name="H" format="1">
  <advance width="789"/>
  <unicode hex="0048"/>
  <note>
    H
  </note>
  <outline>
    <contour>
      <point x="744" y="655" type="line" smooth="yes"/>
      <point x="754" y="657"/>
      <point x="759" y="664"/>
      <point x="759" y="674" type="curve" smooth="yes"/>
      <point x="759" y="716" type="line"/>
      <point x="517" y="716" type="line"/>
      <point x="517" y="674" type="line" smooth="yes"/>
      <point x="517" y="664"/>
      <point x="521" y="658"/>
      <point x="529" y="656" type="curve" smooth="yes"/>
      <point x="537" y="654"/>
      <point x="557" y="650"/>
      <point x="589" y="644" type="curve"/>
      <point x="589" y="397" type="line"/>
      <point x="203" y="397" type="line"/>
      <point x="203" y="644" type="line"/>
      <point x="237" y="650"/>
      <point x="257" y="654"/>
      <point x="264" y="656" type="curve" smooth="yes"/>
      <point x="271" y="658"/>
      <point x="274" y="664"/>
      <point x="274" y="674" type="curve" smooth="yes"/>
      <point x="274" y="716" type="line"/>
      <point x="33" y="716" type="line"/>
      <point x="33" y="674" type="line" smooth="yes"/>
      <point x="33" y="664"/>
      <point x="37" y="658"/>
      <point x="45" y="656" type="curve" smooth="yes"/>
      <point x="53" y="654"/>
      <point x="73" y="650"/>
      <point x="105" y="644" type="curve"/>
      <point x="105" y="73" type="line"/>
      <point x="48" y="62" type="line" smooth="yes"/>
      <point x="38" y="60"/>
      <point x="33" y="53"/>
      <point x="33" y="43" type="curve" smooth="yes"/>
      <point x="33" y="0" type="line"/>
      <point x="274" y="0" type="line"/>
      <point x="274" y="43" type="line" smooth="yes"/>
      <point x="274" y="53"/>
      <point x="250" y="63"/>
      <point x="202" y="73" type="curve"/>
      <point x="202" y="326" type="line"/>
      <point x="588" y="326" type="line"/>
      <point x="588" y="73" type="line"/>
      <point x="532" y="62" type="line" smooth="yes"/>
      <point x="522" y="60"/>
      <point x="516" y="53"/>
      <point x="516" y="43" type="curve" smooth="yes"/>
      <point x="516" y="0" type="line"/>
      <point x="758" y="0" type="line"/>
      <point x="758" y="43" type="line" smooth="yes"/>
      <point x="758" y="53"/>
      <point x="754" y="59"/>
      <point x="746" y="61" type="curve" smooth="yes"/>
      <point x="738" y="63"/>
      <point x="718" y="67"/>
      <point x="686" y="73" type="curve"/>
      <point x="686" y="644" type="line"/>
    </contour>
    <contour>
      <point x="395" y="0" type="move" name="bottom"/>
    </contour>
    <contour>
      <point x="395" y="716" type="move" name="top"/>
    </contour>
    <contour>
      <point x="20" y="716" type="move" name="topleft"/>
    </contour>
    <contour>
      <point x="395" y="358" type="move" name="center"/>
    </contour>
  </outline>
</glyph>
<glyph name="J" format="1">
  <advance width="442"/>
  <unicode hex="004A"/>
  <note>
    J
  </note>
  <outline>
    <contour>
      <point x="118" y="73" type="line"/>
      <point x="102" y="73"/>
      <point x="88" y="75"/>
      <point x="78" y="78" type="curve" smooth="yes"/>
      <point x="68" y="81"/>
      <point x="60" y="82"/>
      <point x="54" y="82" type="curve" smooth="yes"/>
      <point x="48" y="82"/>
      <point x="42" y="80"/>
      <point x="38" y="76" type="curve" smooth="yes"/>
      <point x="34" y="72"/>
      <point x="30" y="48"/>
      <point x="27" y="6" type="curve"/>
      <point x="62" y="-4"/>
      <point x="97" y="-8"/>
      <point x="131" y="-8" type="curve" smooth="yes"/>
      <point x="165" y="-8"/>
      <point x="196" y="-2"/>
      <point x="224" y="10" type="curve" smooth="yes"/>
      <point x="310" y="46"/>
      <point x="354" y="125"/>
      <point x="354" y="248" type="curve" smooth="yes"/>
      <point x="354" y="644" type="line"/>
      <point x="410" y="655" type="line" smooth="yes"/>
      <point x="420" y="657"/>
      <point x="426" y="664"/>
      <point x="426" y="674" type="curve" smooth="yes"/>
      <point x="426" y="716" type="line"/>
      <point x="176" y="716" type="line"/>
      <point x="176" y="674" type="line" smooth="yes"/>
      <point x="176" y="664"/>
      <point x="180" y="657"/>
      <point x="190" y="655" type="curve"/>
      <point x="196" y="653"/>
      <point x="219" y="649"/>
      <point x="257" y="643" type="curve"/>
      <point x="257" y="245" type="line" smooth="yes"/>
      <point x="257" y="130"/>
      <point x="210" y="72"/>
      <point x="118" y="72" type="curve"/>
    </contour>
    <contour>
      <point x="221" y="716" type="move" name="top"/>
    </contour>
    <contour>
      <point x="221" y="0" type="move" name="bottom"/>
    </contour>
  </outline>
</glyph>
<glyph name="L" format="1">
  <advance width="570"/>
  <unicode hex="004C"/>
  <note>
    L
  </note>
  <outline>
    <contour>
      <point x="536" y="156" type="line"/>
      <point x="487" y="156" type="line" smooth="yes"/>
      <point x="477" y="156"/>
      <point x="468" y="149"/>
      <point x="466" y="139" type="curve"/>
      <point x="465" y="135"/>
      <point x="462" y="110"/>
      <point x="460" y="82" type="curve"/>
      <point x="202" y="82" type="line"/>
      <point x="202" y="644" type="line"/>
      <point x="204" y="644"/>
      <point x="251" y="653"/>
      <point x="259" y="655" type="curve" smooth="yes"/>
      <point x="268" y="657"/>
      <point x="274" y="665"/>
      <point x="274" y="674" type="curve" smooth="yes"/>
      <point x="274" y="716" type="line"/>
      <point x="202" y="716" type="line"/>
      <point x="202" y="716" type="line"/>
      <point x="106" y="716" type="line"/>
      <point x="34" y="716" type="line"/>
      <point x="34" y="674" type="line" smooth="yes"/>
      <point x="34" y="665"/>
      <point x="40" y="657"/>
      <point x="49" y="655" type="curve" smooth="yes"/>
      <point x="58" y="653"/>
      <point x="106" y="644"/>
      <point x="106" y="644" type="curve"/>
      <point x="106" y="73" type="line"/>
      <point x="106" y="73"/>
      <point x="58" y="64"/>
      <point x="49" y="62" type="curve" smooth="yes"/>
      <point x="40" y="60"/>
      <point x="34" y="52"/>
      <point x="34" y="43" type="curve" smooth="yes"/>
      <point x="34" y="0" type="line"/>
      <point x="106" y="0" type="line"/>
      <point x="504" y="0" type="line"/>
      <point x="512" y="0" type="line"/>
      <point x="536" y="0" type="line"/>
    </contour>
    <contour>
      <point x="285" y="0" type="move" name="bottom"/>
    </contour>
    <contour>
      <point x="285" y="716" type="move" name="top"/>
    </contour>
    <contour>
      <point x="550" y="716" type="move" name="topright"/>
    </contour>
    <contour>
      <point x="285" y="358" type="move" name="center"/>
    </contour>
  </outline>
</glyph>
<glyph name="M" format="1">
  <advance width="954"/>
  <unicode hex="004D"/>
  <note>
    M
  </note>
  <outline>
    <contour>
      <point x="188" y="575" type="line"/>
      <point x="438" y="126" type="line" smooth="yes"/>
      <point x="446" y="111"/>
      <point x="459" y="103"/>
      <point x="474" y="103" type="curve" smooth="yes"/>
      <point x="488" y="103" type="line" smooth="yes"/>
      <point x="503" y="103"/>
      <point x="514" y="111"/>
      <point x="522" y="126" type="curve" smooth="yes"/>
      <point x="768" y="574" type="line"/>
      <point x="766" y="558"/>
      <point x="766" y="541"/>
      <point x="766" y="527" type="curve" smooth="yes"/>
      <point x="766" y="74" type="line"/>
      <point x="731" y="68"/>
      <point x="709" y="64"/>
      <point x="699" y="62" type="curve" smooth="yes"/>
      <point x="689" y="60"/>
      <point x="684" y="54"/>
      <point x="684" y="44" type="curve" smooth="yes"/>
      <point x="684" y="0" type="line"/>
      <point x="924" y="0" type="line"/>
      <point x="924" y="44" type="line" smooth="yes"/>
      <point x="924" y="54"/>
      <point x="918" y="60"/>
      <point x="908" y="62" type="curve"/>
      <point x="902" y="64"/>
      <point x="883" y="68"/>
      <point x="851" y="74" type="curve"/>
      <point x="851" y="644" type="line"/>
      <point x="908" y="656" type="line" smooth="yes"/>
      <point x="918" y="658"/>
      <point x="924" y="664"/>
      <point x="924" y="674" type="curve" smooth="yes"/>
      <point x="924" y="718" type="line"/>
      <point x="780" y="718" type="line" smooth="yes"/>
      <point x="772" y="718"/>
      <point x="764" y="717"/>
      <point x="760" y="715" type="curve" smooth="yes"/>
      <point x="756" y="713"/>
      <point x="750" y="710"/>
      <point x="746" y="702" type="curve"/>
      <point x="504" y="261" type="line"/>
      <point x="496" y="245"/>
      <point x="488" y="228"/>
      <point x="481" y="208" type="curve"/>
      <point x="472" y="232"/>
      <point x="464" y="250"/>
      <point x="458" y="260" type="curve" smooth="yes"/>
      <point x="211" y="702" type="line"/>
      <point x="207" y="710"/>
      <point x="202" y="713"/>
      <point x="198" y="715" type="curve" smooth="yes"/>
      <point x="194" y="717"/>
      <point x="186" y="718"/>
      <point x="178" y="718" type="curve" smooth="yes"/>
      <point x="34" y="718" type="line"/>
      <point x="34" y="674" type="line" smooth="yes"/>
      <point x="34" y="664"/>
      <point x="40" y="658"/>
      <point x="50" y="656" type="curve"/>
      <point x="56" y="654"/>
      <point x="74" y="650"/>
      <point x="106" y="644" type="curve"/>
      <point x="106" y="74" type="line"/>
      <point x="50" y="62" type="line" smooth="yes"/>
      <point x="40" y="60"/>
      <point x="34" y="54"/>
      <point x="34" y="44" type="curve" smooth="yes"/>
      <point x="34" y="0" type="line"/>
      <point x="273" y="0" type="line"/>
      <point x="273" y="44" type="line" smooth="yes"/>
      <point x="273" y="54"/>
      <point x="269" y="60"/>
      <point x="260" y="62" type="curve" smooth="yes"/>
      <point x="251" y="64"/>
      <point x="228" y="68"/>
      <point x="192" y="74" type="curve"/>
      <point x="192" y="528" type="line" smooth="yes"/>
      <point x="192" y="543"/>
      <point x="191" y="558"/>
      <point x="189" y="576" type="curve"/>
    </contour>
    <contour>
      <point x="477" y="716" type="move" name="top"/>
    </contour>
    <contour>
      <point x="477" y="0" type="move" name="bottom"/>
    </contour>
  </outline>
</glyph>
<glyph name="O" format="1">
  <advance width="754"/>
  <unicode hex="004F"/>
  <note>
    O
  </note>
  <outline>
    <contour>
      <point x="729" y="358" type="line"/>
      <point x="729" y="574"/>
      <point x="587" y="724"/>
      <point x="376" y="724" type="curve" smooth="yes"/>
      <point x="164" y="724"/>
      <point x="22" y="570"/>
      <point x="22" y="357" type="curve" smooth="yes"/>
      <point x="22" y="144"/>
      <point x="166" y="-10"/>
      <point x="376" y="-10" type="curve" smooth="yes"/>
      <point x="582" y="-10"/>
      <point x="728" y="139"/>
      <point x="728" y="356" type="curve"/>
    </contour>
    <contour>
      <point x="629" y="356" type="line"/>
      <point x="629" y="190"/>
      <point x="535" y="74"/>
      <point x="375" y="74" type="curve" smooth="yes"/>
      <point x="218" y="74"/>
      <point x="120" y="186"/>
      <point x="120" y="356" type="curve" smooth="yes"/>
      <point x="120" y="519"/>
      <point x="209" y="638"/>
      <point x="374" y="638" type="curve" smooth="yes"/>
      <point x="539" y="638"/>
      <point x="628" y="525"/>
      <point x="628" y="356" type="curve"/>
    </contour>
    <contour>
      <point x="377" y="0" type="move" name="bottom"/>
    </contour>
    <contour>
      <point x="679" y="10" type="move" name="ogonek"/>
    </contour>
    <contour>
      <point x="377" y="716" type="move" name="top"/>
    </contour>
    <contour>
      <point x="734" y="716" type="move" name="topright"/>
    </contour>
    <contour>
      <point x="20" y="716" type="move" name="topleft"/>
    </contour>
    <contour>
      <point x="377" y="358" type="move" name="center"/>
    </contour>
  </outline>
</glyph>
<glyph name="Q" format="1">
  <advance width="769"/>
  <unicode hex="0051"/>
  <note>
    Q
  </note>
  <outline>
    <contour>
      <point x="729" y="358" type="line"/>
      <point x="729" y="412"/>
      <point x="721" y="461"/>
      <point x="704" y="506" type="curve" smooth="yes"/>
      <point x="687" y="551"/>
      <point x="663" y="590"/>
      <point x="632" y="622" type="curve" smooth="yes"/>
      <point x="601" y="654"/>
      <point x="564" y="679"/>
      <point x="520" y="697" type="curve" smooth="yes"/>
      <point x="476" y="715"/>
      <point x="428" y="724"/>
      <point x="376" y="724" type="curve" smooth="yes"/>
      <point x="324" y="724"/>
      <point x="276" y="715"/>
      <point x="232" y="697" type="curve" smooth="yes"/>
      <point x="188" y="679"/>
      <point x="151" y="653"/>
      <point x="120" y="621" type="curve" smooth="yes"/>
      <point x="89" y="589"/>
      <point x="65" y="550"/>
      <point x="48" y="505" type="curve" smooth="yes"/>
      <point x="31" y="460"/>
      <point x="22" y="411"/>
      <point x="22" y="357" type="curve" smooth="yes"/>
      <point x="22" y="303"/>
      <point x="31" y="254"/>
      <point x="48" y="209" type="curve" smooth="yes"/>
      <point x="65" y="164"/>
      <point x="89" y="125"/>
      <point x="120" y="93" type="curve" smooth="yes"/>
      <point x="151" y="61"/>
      <point x="188" y="36"/>
      <point x="232" y="18" type="curve" smooth="yes"/>
      <point x="276" y="0"/>
      <point x="324" y="-10"/>
      <point x="376" y="-10" type="curve" smooth="yes"/>
      <point x="398" y="-10"/>
      <point x="420" y="-8"/>
      <point x="440" y="-4" type="curve" smooth="yes"/>
      <point x="460" y="0"/>
      <point x="480" y="4"/>
      <point x="499" y="10" type="curve"/>
      <point x="625" y="-128" type="line"/>
      <point x="633" y="-136"/>
      <point x="640" y="-142"/>
      <point x="650" y="-146" type="curve" smooth="yes"/>
      <point x="660" y="-150"/>
      <point x="670" y="-150"/>
      <point x="682" y="-150" type="curve" smooth="yes"/>
      <point x="762" y="-150" type="line"/>
      <point x="578" y="48" type="line"/>
      <point x="602" y="64"/>
      <point x="624" y="82"/>
      <point x="642" y="104" type="curve" smooth="yes"/>
      <point x="660" y="126"/>
      <point x="676" y="148"/>
      <point x="689" y="174" type="curve" smooth="yes"/>
      <point x="702" y="200"/>
      <point x="712" y="229"/>
      <point x="719" y="259" type="curve" smooth="yes"/>
      <point x="726" y="289"/>
      <point x="730" y="321"/>
      <point x="730" y="355" type="curve"/>
    </contour>
    <contour>
      <point x="630" y="311"/>
      <point x="624" y="271"/>
      <point x="612" y="236" type="curve" smooth="yes"/>
      <point x="600" y="201"/>
      <point x="583" y="172"/>
      <point x="561" y="148" type="curve" smooth="yes"/>
      <point x="539" y="124"/>
      <point x="513" y="105"/>
      <point x="481" y="92" type="curve" smooth="yes"/>
      <point x="449" y="79"/>
      <point x="414" y="73"/>
      <point x="376" y="73" type="curve" smooth="yes"/>
      <point x="338" y="73"/>
      <point x="303" y="79"/>
      <point x="271" y="92" type="curve" smooth="yes"/>
      <point x="239" y="105"/>
      <point x="212" y="124"/>
      <point x="190" y="148" type="curve" smooth="yes"/>
      <point x="168" y="172"/>
      <point x="152" y="201"/>
      <point x="140" y="236" type="curve" smooth="yes"/>
      <point x="128" y="271"/>
      <point x="122" y="311"/>
      <point x="122" y="355" type="curve" smooth="yes"/>
      <point x="122" y="399"/>
      <point x="128" y="439"/>
      <point x="140" y="474" type="curve" smooth="yes"/>
      <point x="152" y="509"/>
      <point x="168" y="538"/>
      <point x="190" y="562" type="curve" smooth="yes"/>
      <point x="212" y="586"/>
      <point x="238" y="605"/>
      <point x="270" y="618" type="curve" smooth="yes"/>
      <point x="302" y="631"/>
      <point x="338" y="637"/>
      <point x="376" y="637" type="curve" smooth="yes"/>
      <point x="414" y="637"/>
      <point x="448" y="631"/>
      <point x="480" y="618" type="curve" smooth="yes"/>
      <point x="512" y="605"/>
      <point x="538" y="586"/>
      <point x="560" y="562" type="curve" smooth="yes"/>
      <point x="582" y="538"/>
      <point x="600" y="509"/>
      <point x="612" y="474" type="curve" smooth="yes"/>
      <point x="624" y="439"/>
      <point x="630" y="399"/>
      <point x="630" y="355" type="curve" smooth="yes"/>
    </contour>
    <contour>
      <point x="385" y="716" type="move" name="top"/>
    </contour>
    <contour>
      <point x="385" y="0" type="move" name="bottom"/>
    </contour>
  </outline>
</glyph>
<glyph name="R" format="1">
  <advance width="669"/>
  <unicode hex="0052"/>
  <note>
    R
  </note>
  <outline>
    <contour>
      <point x="628" y="62" type="line"/>
      <point x="620" y="64"/>
      <point x="578" y="71"/>
      <point x="572" y="72" type="curve"/>
      <point x="417" y="284" type="line" smooth="yes"/>
      <point x="407" y="298"/>
      <point x="397" y="307"/>
      <point x="385" y="314" type="curve"/>
      <point x="413" y="320"/>
      <point x="437" y="331"/>
      <point x="459" y="343" type="curve" smooth="yes"/>
      <point x="481" y="355"/>
      <point x="499" y="370"/>
      <point x="514" y="388" type="curve" smooth="yes"/>
      <point x="529" y="406"/>
      <point x="541" y="426"/>
      <point x="549" y="448" type="curve" smooth="yes"/>
      <point x="557" y="470"/>
      <point x="561" y="492"/>
      <point x="561" y="518" type="curve" smooth="yes"/>
      <point x="561" y="548"/>
      <point x="556" y="577"/>
      <point x="546" y="601" type="curve" smooth="yes"/>
      <point x="536" y="625"/>
      <point x="520" y="646"/>
      <point x="498" y="664" type="curve" smooth="yes"/>
      <point x="476" y="682"/>
      <point x="449" y="695"/>
      <point x="416" y="704" type="curve" smooth="yes"/>
      <point x="383" y="713"/>
      <point x="344" y="718"/>
      <point x="298" y="718" type="curve" smooth="yes"/>
      <point x="105" y="718" type="line"/>
      <point x="33" y="718" type="line"/>
      <point x="33" y="674" type="line" smooth="yes"/>
      <point x="33" y="665"/>
      <point x="39" y="658"/>
      <point x="48" y="656" type="curve" smooth="yes"/>
      <point x="57" y="654"/>
      <point x="106" y="644"/>
      <point x="106" y="644" type="curve"/>
      <point x="106" y="74" type="line"/>
      <point x="106" y="74"/>
      <point x="57" y="64"/>
      <point x="48" y="62" type="curve" smooth="yes"/>
      <point x="39" y="60"/>
      <point x="33" y="53"/>
      <point x="33" y="44" type="curve" smooth="yes"/>
      <point x="33" y="1" type="line"/>
      <point x="105" y="1" type="line"/>
      <point x="202" y="1" type="line"/>
      <point x="202" y="1" type="line"/>
      <point x="274" y="1" type="line"/>
      <point x="274" y="44" type="line" smooth="yes"/>
      <point x="274" y="53"/>
      <point x="267" y="60"/>
      <point x="258" y="62" type="curve" smooth="yes"/>
      <point x="250" y="64"/>
      <point x="202" y="74"/>
      <point x="202" y="74" type="curve"/>
      <point x="202" y="300" type="line"/>
      <point x="266" y="300" type="line" smooth="yes"/>
      <point x="280" y="300"/>
      <point x="290" y="298"/>
      <point x="296" y="294" type="curve" smooth="yes"/>
      <point x="302" y="290"/>
      <point x="308" y="285"/>
      <point x="314" y="277" type="curve" smooth="yes"/>
      <point x="500" y="21" type="line"/>
      <point x="508" y="7"/>
      <point x="520" y="0"/>
      <point x="538" y="0" type="curve" smooth="yes"/>
      <point x="570" y="0" type="line"/>
      <point x="624" y="0" type="line"/>
      <point x="642" y="0" type="line"/>
      <point x="642" y="44" type="line" smooth="yes"/>
      <point x="642" y="53"/>
      <point x="636" y="60"/>
      <point x="627" y="62" type="curve"/>
    </contour>
    <contour>
      <point x="293" y="370" type="line"/>
      <point x="201" y="370" type="line"/>
      <point x="201" y="640" type="line"/>
      <point x="298" y="640" type="line" smooth="yes"/>
      <point x="354" y="640"/>
      <point x="395" y="630"/>
      <point x="423" y="608" type="curve" smooth="yes"/>
      <point x="451" y="586"/>
      <point x="465" y="554"/>
      <point x="465" y="512" type="curve" smooth="yes"/>
      <point x="465" y="491"/>
      <point x="462" y="472"/>
      <point x="454" y="454" type="curve" smooth="yes"/>
      <point x="446" y="436"/>
      <point x="435" y="422"/>
      <point x="421" y="410" type="curve" smooth="yes"/>
      <point x="407" y="398"/>
      <point x="389" y="387"/>
      <point x="367" y="380" type="curve" smooth="yes"/>
      <point x="345" y="373"/>
      <point x="320" y="370"/>
      <point x="292" y="370" type="curve"/>
    </contour>
    <contour>
      <point x="335" y="716" type="move" name="top"/>
    </contour>
    <contour>
      <point x="335" y="0" type="move" name="bottom"/>
    </contour>
  </outline>
</glyph>
<glyph name="S" format="1">
  <advance width="506"/>
  <unicode hex="0053"/>
  <note>
    S
  </note>
  <outline>
    <contour>
      <point x="376" y="379" type="line"/>
      <point x="352" y="389"/>
      <point x="310" y="404"/>
      <point x="250" y="424" type="curve" smooth="yes"/>
      <point x="229" y="431"/>
      <point x="210" y="439"/>
      <point x="194" y="449" type="curve"/>
      <point x="158" y="469"/>
      <point x="140" y="497"/>
      <point x="140" y="532" type="curve" smooth="yes"/>
      <point x="140" y="564"/>
      <point x="152" y="592"/>
      <point x="174" y="612" type="curve" smooth="yes"/>
      <point x="198" y="634"/>
      <point x="232" y="644"/>
      <point x="274" y="644" type="curve" smooth="yes"/>
      <point x="308" y="644"/>
      <point x="348" y="637"/>
      <point x="392" y="625" type="curve"/>
      <point x="396" y="567"/>
      <point x="399" y="538"/>
      <point x="399" y="536" type="curve"/>
      <point x="401" y="524"/>
      <point x="408" y="519"/>
      <point x="420" y="519" type="curve" smooth="yes"/>
      <point x="468" y="519" type="line"/>
      <point x="468" y="684" type="line"/>
      <point x="400" y="712"/>
      <point x="333" y="724"/>
      <point x="267" y="724" type="curve" smooth="yes"/>
      <point x="201" y="724"/>
      <point x="148" y="704"/>
      <point x="107" y="664" type="curve" smooth="yes"/>
      <point x="69" y="626"/>
      <point x="50" y="582"/>
      <point x="50" y="528" type="curve" smooth="yes"/>
      <point x="50" y="471"/>
      <point x="67" y="426"/>
      <point x="103" y="394" type="curve" smooth="yes"/>
      <point x="119" y="380"/>
      <point x="138" y="367"/>
      <point x="158" y="358" type="curve" smooth="yes"/>
      <point x="178" y="349"/>
      <point x="220" y="336"/>
      <point x="284" y="316" type="curve" smooth="yes"/>
      <point x="304" y="310"/>
      <point x="322" y="302"/>
      <point x="338" y="292" type="curve"/>
      <point x="374" y="272"/>
      <point x="392" y="242"/>
      <point x="392" y="204" type="curve" smooth="yes"/>
      <point x="392" y="164"/>
      <point x="380" y="133"/>
      <point x="354" y="109" type="curve"/>
      <point x="342" y="97"/>
      <point x="326" y="88"/>
      <point x="308" y="82" type="curve" smooth="yes"/>
      <point x="290" y="76"/>
      <point x="266" y="72"/>
      <point x="234" y="72" type="curve" smooth="yes"/>
      <point x="202" y="72"/>
      <point x="162" y="82"/>
      <point x="112" y="100" type="curve"/>
      <point x="112" y="100"/>
      <point x="111" y="116"/>
      <point x="109" y="144" type="curve" smooth="yes"/>
      <point x="107" y="172"/>
      <point x="105" y="189"/>
      <point x="104" y="193" type="curve"/>
      <point x="102" y="205"/>
      <point x="96" y="210"/>
      <point x="84" y="210" type="curve" smooth="yes"/>
      <point x="35" y="210" type="line"/>
      <point x="35" y="30" type="line"/>
      <point x="64" y="20" type="line"/>
      <point x="84" y="14"/>
      <point x="110" y="7"/>
      <point x="144" y="1" type="curve" smooth="yes"/>
      <point x="178" y="-5"/>
      <point x="211" y="-8"/>
      <point x="242" y="-8" type="curve" smooth="yes"/>
      <point x="316" y="-8"/>
      <point x="376" y="13"/>
      <point x="420" y="57" type="curve" smooth="yes"/>
      <point x="462" y="99"/>
      <point x="482" y="152"/>
      <point x="482" y="218" type="curve" smooth="yes"/>
      <point x="482" y="293"/>
      <point x="446" y="347"/>
      <point x="374" y="379" type="curve"/>
    </contour>
    <contour>
      <point x="253" y="716" type="move" name="top"/>
    </contour>
    <contour>
      <point x="253" y="0" type="move" name="bottom"/>
    </contour>
  </outline>
</glyph>
<glyph name="T" format="1">
  <advance width="629"/>
  <unicode hex="0054"/>
  <note>
    T
  </note>
  <outline>
    <contour>
      <point x="596" y="716" type="line"/>
      <point x="562" y="716" type="line"/>
      <point x="22" y="716" type="line"/>
      <point x="22" y="558" type="line"/>
      <point x="70" y="558" type="line" smooth="yes"/>
      <point x="82" y="558"/>
      <point x="88" y="561"/>
      <point x="90" y="568" type="curve" smooth="yes"/>
      <point x="92" y="575"/>
      <point x="95" y="597"/>
      <point x="99" y="635" type="curve"/>
      <point x="268" y="635" type="line"/>
      <point x="268" y="73" type="line"/>
      <point x="242" y="68"/>
      <point x="224" y="64"/>
      <point x="213" y="62" type="curve" smooth="yes"/>
      <point x="202" y="60"/>
      <point x="196" y="52"/>
      <point x="196" y="42" type="curve" smooth="yes"/>
      <point x="196" y="0" type="line"/>
      <point x="438" y="0" type="line"/>
      <point x="438" y="42" type="line" smooth="yes"/>
      <point x="438" y="52"/>
      <point x="435" y="58"/>
      <point x="428" y="60" type="curve" smooth="yes"/>
      <point x="421" y="62"/>
      <point x="404" y="65"/>
      <point x="378" y="70" type="curve"/>
      <point x="370" y="72"/>
      <point x="366" y="72"/>
      <point x="366" y="72" type="curve"/>
      <point x="366" y="634" type="line"/>
      <point x="534" y="634" type="line"/>
      <point x="538" y="596"/>
      <point x="542" y="575"/>
      <point x="544" y="568" type="curve" smooth="yes"/>
      <point x="546" y="561"/>
      <point x="551" y="558"/>
      <point x="563" y="558" type="curve" smooth="yes"/>
      <point x="612" y="558" type="line"/>
      <point x="612" y="716" type="line"/>
    </contour>
    <contour>
      <point x="315" y="358" type="move" name="center"/>
    </contour>
    <contour>
      <point x="315" y="0" type="move" name="bottom"/>
    </contour>
    <contour>
      <point x="315" y="716" type="move" name="top"/>
    </contour>
  </outline>
</glyph>
<glyph name="U" format="1">
  <advance width="749"/>
  <unicode hex="0055"/>
  <note>
    U
  </note>
  <outline>
    <contour>
      <point x="660" y="716" type="line"/>
      <point x="564" y="716" type="line"/>
      <point x="482" y="716" type="line"/>
      <point x="482" y="674" type="line" smooth="yes"/>
      <point x="482" y="664"/>
      <point x="488" y="657"/>
      <point x="498" y="655" type="curve" smooth="yes"/>
      <point x="503" y="654"/>
      <point x="525" y="650"/>
      <point x="564" y="644" type="curve"/>
      <point x="564" y="281" type="line" smooth="yes"/>
      <point x="564" y="220"/>
      <point x="547" y="171"/>
      <point x="514" y="134" type="curve" smooth="yes"/>
      <point x="480" y="96"/>
      <point x="433" y="77"/>
      <point x="375" y="77" type="curve" smooth="yes"/>
      <point x="317" y="77"/>
      <point x="270" y="96"/>
      <point x="236" y="134" type="curve" smooth="yes"/>
      <point x="202" y="171"/>
      <point x="186" y="221"/>
      <point x="186" y="282" type="curve" smooth="yes"/>
      <point x="186" y="644" type="line"/>
      <point x="226" y="650"/>
      <point x="247" y="654"/>
      <point x="252" y="655" type="curve" smooth="yes"/>
      <point x="262" y="657"/>
      <point x="268" y="664"/>
      <point x="268" y="674" type="curve" smooth="yes"/>
      <point x="268" y="716" type="line"/>
      <point x="17" y="716" type="line"/>
      <point x="17" y="674" type="line" smooth="yes"/>
      <point x="17" y="664"/>
      <point x="22" y="657"/>
      <point x="32" y="655" type="curve"/>
      <point x="38" y="653"/>
      <point x="57" y="649"/>
      <point x="89" y="643" type="curve"/>
      <point x="89" y="280" type="line" smooth="yes"/>
      <point x="89" y="196"/>
      <point x="115" y="128"/>
      <point x="166" y="74" type="curve" smooth="yes"/>
      <point x="218" y="19"/>
      <point x="288" y="-9"/>
      <point x="374" y="-9" type="curve" smooth="yes"/>
      <point x="461" y="-9"/>
      <point x="531" y="19"/>
      <point x="583" y="74" type="curve" smooth="yes"/>
      <point x="633" y="128"/>
      <point x="659" y="196"/>
      <point x="659" y="280" type="curve" smooth="yes"/>
      <point x="659" y="643" type="line"/>
      <point x="716" y="654" type="line" smooth="yes"/>
      <point x="726" y="656"/>
      <point x="732" y="663"/>
      <point x="732" y="673" type="curve" smooth="yes"/>
      <point x="732" y="716" type="line"/>
    </contour>
    <contour>
      <point x="477" y="10" type="move" name="ogonek"/>
    </contour>
    <contour>
      <point x="375" y="716" type="move" name="top"/>
    </contour>
    <contour>
      <point x="729" y="716" type="move" name="topright"/>
    </contour>
    <contour>
      <point x="375" y="0" type="move" name="bottom"/>
    </contour>
  </outline>
</glyph>
<glyph name="V" format="1">
  <advance width="779"/>
  <unicode hex="0056"/>
  <note>
    V
  </note>
  <outline>
    <contour>
      <point x="523" y="716" type="line"/>
      <point x="523" y="674" type="line" smooth="yes"/>
      <point x="523" y="664"/>
      <point x="528" y="657"/>
      <point x="538" y="655" type="curve"/>
      <point x="544" y="653"/>
      <point x="563" y="649"/>
      <point x="595" y="643" type="curve"/>
      <point x="414" y="188" type="line"/>
      <point x="406" y="170"/>
      <point x="399" y="143"/>
      <point x="391" y="109" type="curve"/>
      <point x="382" y="145"/>
      <point x="374" y="171"/>
      <point x="367" y="187" type="curve" smooth="yes"/>
      <point x="184" y="642" type="line"/>
      <point x="206" y="646"/>
      <point x="223" y="651"/>
      <point x="236" y="653" type="curve" smooth="yes"/>
      <point x="249" y="655"/>
      <point x="256" y="662"/>
      <point x="256" y="672" type="curve" smooth="yes"/>
      <point x="256" y="716" type="line"/>
      <point x="18" y="716" type="line"/>
      <point x="18" y="672" type="line" smooth="yes"/>
      <point x="18" y="662"/>
      <point x="23" y="656"/>
      <point x="33" y="654" type="curve"/>
      <point x="39" y="652"/>
      <point x="56" y="648"/>
      <point x="84" y="642" type="curve"/>
      <point x="346" y="-2" type="line"/>
      <point x="433" y="-2" type="line"/>
      <point x="696" y="642" type="line"/>
      <point x="746" y="654" type="line"/>
      <point x="756" y="656"/>
      <point x="760" y="662"/>
      <point x="760" y="672" type="curve" smooth="yes"/>
      <point x="760" y="715" type="line"/>
    </contour>
    <contour>
      <point x="390" y="716" type="move" name="top"/>
    </contour>
    <contour>
      <point x="390" y="0" type="move" name="bottom"/>
    </contour>
  </outline>
</glyph>
<glyph name="W" format="1">
  <advance width="1125"/>
  <unicode hex="0057"/>
  <note>
    W
  </note>
  <outline>
    <contour>
      <point x="1066" y="716" type="line"/>
      <point x="870" y="716" type="line"/>
      <point x="870" y="674" type="line" smooth="yes"/>
      <point x="870" y="664"/>
      <point x="876" y="657"/>
      <point x="886" y="655" type="curve" smooth="yes"/>
      <point x="920" y="648"/>
      <point x="938" y="644"/>
      <point x="942" y="644" type="curve"/>
      <point x="809" y="196" type="line"/>
      <point x="807" y="188"/>
      <point x="805" y="178"/>
      <point x="803" y="168" type="curve" smooth="yes"/>
      <point x="801" y="158"/>
      <point x="800" y="146"/>
      <point x="798" y="136" type="curve"/>
      <point x="794" y="158"/>
      <point x="788" y="178"/>
      <point x="782" y="196" type="curve" smooth="yes"/>
      <point x="614" y="694" type="line" smooth="yes"/>
      <point x="608" y="710"/>
      <point x="597" y="718"/>
      <point x="581" y="718" type="curve" smooth="yes"/>
      <point x="553" y="718" type="line" smooth="yes"/>
      <point x="545" y="718"/>
      <point x="538" y="715"/>
      <point x="532" y="710" type="curve" smooth="yes"/>
      <point x="526" y="705"/>
      <point x="522" y="700"/>
      <point x="520" y="694" type="curve" smooth="yes"/>
      <point x="351" y="196" type="line" smooth="yes"/>
      <point x="347" y="184"/>
      <point x="342" y="164"/>
      <point x="336" y="134" type="curve"/>
      <point x="332" y="160"/>
      <point x="326" y="181"/>
      <point x="322" y="196" type="curve" smooth="yes"/>
      <point x="190" y="644" type="line"/>
      <point x="194" y="644"/>
      <point x="212" y="649"/>
      <point x="246" y="656" type="curve" smooth="yes"/>
      <point x="256" y="658"/>
      <point x="262" y="664"/>
      <point x="262" y="674" type="curve" smooth="yes"/>
      <point x="262" y="717" type="line"/>
      <point x="18" y="717" type="line"/>
      <point x="18" y="674" type="line" smooth="yes"/>
      <point x="18" y="664"/>
      <point x="24" y="658"/>
      <point x="34" y="656" type="curve"/>
      <point x="40" y="654"/>
      <point x="56" y="650"/>
      <point x="84" y="644" type="curve"/>
      <point x="284" y="0" type="line"/>
      <point x="372" y="0" type="line"/>
      <point x="554" y="546" type="line"/>
      <point x="556" y="551"/>
      <point x="556" y="558"/>
      <point x="558" y="564" type="curve" smooth="yes"/>
      <point x="560" y="570"/>
      <point x="561" y="576"/>
      <point x="563" y="582" type="curve"/>
      <point x="566" y="568"/>
      <point x="569" y="556"/>
      <point x="573" y="546" type="curve"/>
      <point x="754" y="0" type="line"/>
      <point x="842" y="0" type="line"/>
      <point x="1042" y="643" type="line"/>
      <point x="1092" y="654" type="line" smooth="yes"/>
      <point x="1102" y="656"/>
      <point x="1108" y="663"/>
      <point x="1108" y="673" type="curve" smooth="yes"/>
      <point x="1108" y="716" type="line"/>
    </contour>
    <contour>
      <point x="563" y="716" type="move" name="top"/>
    </contour>
    <contour>
      <point x="563" y="0" type="move" name="bottom"/>
    </contour>
  </outline>
</glyph>
<glyph name="Z" format="1">
  <advance width="607"/>
  <unicode hex="005A"/>
  <note>
    Z
  </note>
  <outline>
    <contour>
      <point x="564" y="648" type="line" smooth="yes"/>
      <point x="571" y="658"/>
      <point x="574" y="668"/>
      <point x="574" y="680" type="curve" smooth="yes"/>
      <point x="574" y="716" type="line"/>
      <point x="50" y="716" type="line"/>
      <point x="50" y="638" type="line"/>
      <point x="50" y="542" type="line"/>
      <point x="98" y="542" type="line" smooth="yes"/>
      <point x="110" y="542"/>
      <point x="118" y="547"/>
      <point x="120" y="559" type="curve"/>
      <point x="121" y="563"/>
      <point x="122" y="590"/>
      <point x="126" y="638" type="curve"/>
      <point x="447" y="638" type="line"/>
      <point x="41" y="66" type="line" smooth="yes"/>
      <point x="35" y="57"/>
      <point x="32" y="48"/>
      <point x="32" y="38" type="curve" smooth="yes"/>
      <point x="32" y="0" type="line"/>
      <point x="568" y="0" type="line"/>
      <point x="568" y="79" type="line"/>
      <point x="568" y="174" type="line"/>
      <point x="519" y="174" type="line" smooth="yes"/>
      <point x="507" y="174"/>
      <point x="500" y="170"/>
      <point x="498" y="158" type="curve"/>
      <point x="497" y="154"/>
      <point x="495" y="127"/>
      <point x="491" y="79" type="curve"/>
      <point x="158" y="79" type="line"/>
    </contour>
    <contour>
      <point x="304" y="716" type="move" name="top"/>
    </contour>
    <contour>
      <point x="304" y="0" type="move" name="bottom"/>
    </contour>
  </outline>
</glyph>
<glyph name="backslash" format="1">
  <advance width="422"/>
  <unicode hex="005C"/>
  <note>
    backslash
  </note>
  <outline>
    <contour>
      <point x="21" y="736" type="line"/>
      <point x="320" y="-10" type="line"/>
      <point x="324" y="-22"/>
      <point x="331" y="-30"/>
      <point x="341" y="-36" type="curve" smooth="yes"/>
      <point x="351" y="-42"/>
      <point x="360" y="-44"/>
      <point x="370" y="-44" type="curve" smooth="yes"/>
      <point x="407" y="-44" type="line"/>
      <point x="106" y="704" type="line" smooth="yes"/>
      <point x="102" y="714"/>
      <point x="96" y="722"/>
      <point x="88" y="728" type="curve" smooth="yes"/>
      <point x="80" y="734"/>
      <point x="71" y="736"/>
      <point x="60" y="736" type="curve" smooth="yes"/>
    </contour>
  </outline>
</glyph>
<glyph name="underscore" format="1">
  <advance width="513"/>
  <unicode hex="005F"/>
  <note>
    underscore
  </note>
  <outline>
    <contour>
      <point x="453" y="-82" type="line"/>
      <point x="59" y="-82" type="line"/>
      <point x="59" y="-142" type="line"/>
      <point x="453" y="-142" type="line"/>
    </contour>
  </outline>
</glyph>
<glyph name="b" format="1">
  <advance width="565"/>
  <unicode hex="0062"/>
  <note>
    b
  </note>
  <outline>
    <contour>
      <point x="542" y="256" type="line"/>
      <point x="542" y="298"/>
      <point x="537" y="336"/>
      <point x="528" y="368" type="curve" smooth="yes"/>
      <point x="519" y="400"/>
      <point x="506" y="426"/>
      <point x="490" y="448" type="curve" smooth="yes"/>
      <point x="474" y="470"/>
      <point x="454" y="487"/>
      <point x="430" y="498" type="curve" smooth="yes"/>
      <point x="406" y="509"/>
      <point x="380" y="514"/>
      <point x="350" y="514" type="curve" smooth="yes"/>
      <point x="315" y="514"/>
      <point x="285" y="507"/>
      <point x="258" y="492" type="curve" smooth="yes"/>
      <point x="231" y="477"/>
      <point x="207" y="457"/>
      <point x="186" y="433" type="curve"/>
      <point x="186" y="736" type="line"/>
      <point x="99" y="736" type="line"/>
      <point x="96" y="736" type="line"/>
      <point x="17" y="736" type="line"/>
      <point x="17" y="693" type="line" smooth="yes"/>
      <point x="17" y="684"/>
      <point x="23" y="676"/>
      <point x="32" y="674" type="curve" smooth="yes"/>
      <point x="40" y="672"/>
      <point x="84" y="666"/>
      <point x="96" y="664" type="curve"/>
      <point x="96" y="101" type="line"/>
      <point x="96" y="28" type="line"/>
      <point x="96" y="20" type="line"/>
      <point x="96" y="20"/>
      <point x="230" y="-8"/>
      <point x="320" y="-8" type="curve" smooth="yes"/>
      <point x="352" y="-8"/>
      <point x="381" y="-2"/>
      <point x="408" y="10" type="curve" smooth="yes"/>
      <point x="435" y="22"/>
      <point x="458" y="38"/>
      <point x="478" y="60" type="curve" smooth="yes"/>
      <point x="498" y="82"/>
      <point x="514" y="110"/>
      <point x="526" y="142" type="curve" smooth="yes"/>
      <point x="538" y="174"/>
      <point x="544" y="211"/>
      <point x="544" y="253" type="curve" smooth="yes"/>
      <point x="544" y="254" type="line"/>
      <point x="544" y="256" type="line"/>
    </contour>
    <contour>
      <point x="412" y="112" type="line"/>
      <point x="400" y="96"/>
      <point x="384" y="82"/>
      <point x="366" y="74" type="curve"/>
      <point x="350" y="66"/>
      <point x="332" y="63"/>
      <point x="312" y="62" type="curve"/>
      <point x="305" y="62" type="line"/>
      <point x="286" y="62" type="line"/>
      <point x="242" y="64"/>
      <point x="199" y="74"/>
      <point x="186" y="78" type="curve"/>
      <point x="186" y="122" type="line"/>
      <point x="186" y="248" type="line"/>
      <point x="186" y="367" type="line"/>
      <point x="204" y="391"/>
      <point x="224" y="410"/>
      <point x="246" y="424" type="curve" smooth="yes"/>
      <point x="268" y="438"/>
      <point x="294" y="444"/>
      <point x="323" y="444" type="curve" smooth="yes"/>
      <point x="343" y="444"/>
      <point x="362" y="441"/>
      <point x="378" y="434" type="curve" smooth="yes"/>
      <point x="394" y="427"/>
      <point x="407" y="415"/>
      <point x="418" y="400" type="curve" smooth="yes"/>
      <point x="429" y="385"/>
      <point x="438" y="366"/>
      <point x="444" y="342" type="curve" smooth="yes"/>
      <point x="450" y="318"/>
      <point x="452" y="291"/>
      <point x="452" y="258" type="curve" smooth="yes"/>
      <point x="452" y="250" type="line" smooth="yes"/>
      <point x="452" y="222"/>
      <point x="448" y="196"/>
      <point x="442" y="174" type="curve" smooth="yes"/>
      <point x="435" y="150"/>
      <point x="425" y="130"/>
      <point x="413" y="114" type="curve"/>
    </contour>
    <contour>
      <point x="283" y="506" type="move" name="top"/>
    </contour>
    <contour>
      <point x="283" y="0" type="move" name="bottom"/>
    </contour>
  </outline>
</glyph>
<glyph name="c" format="1">
  <advance width="453"/>
  <unicode hex="0063"/>
  <note>
    c
  </note>
  <outline>
    <contour>
      <point x="408" y="104" type="line"/>
      <point x="404" y="110"/>
      <point x="399" y="112"/>
      <point x="392" y="112" type="curve" smooth="yes"/>
      <point x="385" y="112"/>
      <point x="378" y="110"/>
      <point x="372" y="104" type="curve"/>
      <point x="340" y="76"/>
      <point x="303" y="62"/>
      <point x="261" y="62" type="curve" smooth="yes"/>
      <point x="215" y="62"/>
      <point x="180" y="79"/>
      <point x="154" y="112" type="curve" smooth="yes"/>
      <point x="128" y="146"/>
      <point x="114" y="194"/>
      <point x="114" y="254" type="curve" smooth="yes"/>
      <point x="114" y="314"/>
      <point x="126" y="360"/>
      <point x="152" y="394" type="curve" smooth="yes"/>
      <point x="165" y="410"/>
      <point x="181" y="423"/>
      <point x="199" y="431" type="curve" smooth="yes"/>
      <point x="217" y="439"/>
      <point x="236" y="444"/>
      <point x="254" y="444" type="curve" smooth="yes"/>
      <point x="272" y="444"/>
      <point x="290" y="443"/>
      <point x="310" y="440" type="curve"/>
      <point x="318" y="438"/>
      <point x="330" y="436"/>
      <point x="346" y="431" type="curve"/>
      <point x="346" y="430"/>
      <point x="347" y="420"/>
      <point x="349" y="398" type="curve" smooth="yes"/>
      <point x="351" y="376"/>
      <point x="352" y="364"/>
      <point x="353" y="360" type="curve"/>
      <point x="355" y="350"/>
      <point x="360" y="346"/>
      <point x="370" y="346" type="curve" smooth="yes"/>
      <point x="410" y="346" type="line"/>
      <point x="410" y="478" type="line"/>
      <point x="348" y="502"/>
      <point x="298" y="514"/>
      <point x="260" y="514" type="curve" smooth="yes"/>
      <point x="185" y="514"/>
      <point x="125" y="490"/>
      <point x="82" y="441" type="curve" smooth="yes"/>
      <point x="41" y="393"/>
      <point x="21" y="332"/>
      <point x="21" y="254" type="curve" smooth="yes"/>
      <point x="21" y="174"/>
      <point x="43" y="110"/>
      <point x="86" y="62" type="curve" smooth="yes"/>
      <point x="127" y="16"/>
      <point x="179" y="-7"/>
      <point x="244" y="-7" type="curve" smooth="yes"/>
      <point x="326" y="-7"/>
      <point x="390" y="19"/>
      <point x="432" y="71" type="curve"/>
    </contour>
    <contour>
      <point x="227" y="506" type="move" name="top"/>
    </contour>
    <contour>
      <point x="227" y="0" type="move" name="bottom"/>
    </contour>
  </outline>
</glyph>
<glyph name="e" format="1">
  <advance width="492"/>
  <unicode hex="0065"/>
  <note>
    e
  </note>
  <outline>
    <contour>
      <point x="258" y="514" type="line"/>
      <point x="222" y="514"/>
      <point x="189" y="508"/>
      <point x="159" y="495" type="curve" smooth="yes"/>
      <point x="129" y="482"/>
      <point x="104" y="464"/>
      <point x="84" y="442" type="curve" smooth="yes"/>
      <point x="64" y="420"/>
      <point x="48" y="392"/>
      <point x="37" y="362" type="curve" smooth="yes"/>
      <point x="26" y="332"/>
      <point x="20" y="300"/>
      <point x="20" y="264" type="curve" smooth="yes"/>
      <point x="20" y="220"/>
      <point x="26" y="182"/>
      <point x="38" y="148" type="curve" smooth="yes"/>
      <point x="50" y="114"/>
      <point x="66" y="86"/>
      <point x="88" y="63" type="curve" smooth="yes"/>
      <point x="110" y="40"/>
      <point x="135" y="22"/>
      <point x="165" y="10" type="curve" smooth="yes"/>
      <point x="195" y="-2"/>
      <point x="227" y="-8"/>
      <point x="262" y="-8" type="curve" smooth="yes"/>
      <point x="280" y="-8"/>
      <point x="299" y="-6"/>
      <point x="317" y="-3" type="curve" smooth="yes"/>
      <point x="335" y="0"/>
      <point x="353" y="5"/>
      <point x="371" y="11" type="curve" smooth="yes"/>
      <point x="389" y="17"/>
      <point x="404" y="26"/>
      <point x="420" y="36" type="curve" smooth="yes"/>
      <point x="436" y="46"/>
      <point x="449" y="56"/>
      <point x="460" y="70" type="curve"/>
      <point x="435" y="103" type="line"/>
      <point x="431" y="109"/>
      <point x="426" y="112"/>
      <point x="418" y="112" type="curve" smooth="yes"/>
      <point x="412" y="112"/>
      <point x="406" y="109"/>
      <point x="398" y="104" type="curve" smooth="yes"/>
      <point x="390" y="99"/>
      <point x="380" y="94"/>
      <point x="368" y="88" type="curve" smooth="yes"/>
      <point x="356" y="82"/>
      <point x="342" y="76"/>
      <point x="326" y="71" type="curve" smooth="yes"/>
      <point x="310" y="66"/>
      <point x="290" y="64"/>
      <point x="268" y="64" type="curve" smooth="yes"/>
      <point x="244" y="64"/>
      <point x="224" y="68"/>
      <point x="204" y="76" type="curve" smooth="yes"/>
      <point x="184" y="84"/>
      <point x="168" y="96"/>
      <point x="154" y="112" type="curve" smooth="yes"/>
      <point x="140" y="128"/>
      <point x="128" y="146"/>
      <point x="120" y="170" type="curve" smooth="yes"/>
      <point x="112" y="194"/>
      <point x="108" y="222"/>
      <point x="108" y="254" type="curve"/>
      <point x="444" y="254" type="line" smooth="yes"/>
      <point x="452" y="254"/>
      <point x="459" y="257"/>
      <point x="462" y="261" type="curve" smooth="yes"/>
      <point x="465" y="265"/>
      <point x="466" y="275"/>
      <point x="466" y="289" type="curve" smooth="yes"/>
      <point x="466" y="325"/>
      <point x="460" y="357"/>
      <point x="450" y="385" type="curve" smooth="yes"/>
      <point x="440" y="413"/>
      <point x="424" y="437"/>
      <point x="406" y="456" type="curve" smooth="yes"/>
      <point x="388" y="475"/>
      <point x="366" y="489"/>
      <point x="340" y="499" type="curve" smooth="yes"/>
      <point x="314" y="509"/>
      <point x="286" y="514"/>
      <point x="256" y="514" type="curve"/>
    </contour>
    <contour>
      <point x="258" y="448" type="line"/>
      <point x="278" y="448"/>
      <point x="297" y="445"/>
      <point x="313" y="438" type="curve" smooth="yes"/>
      <point x="329" y="431"/>
      <point x="343" y="421"/>
      <point x="354" y="409" type="curve" smooth="yes"/>
      <point x="365" y="397"/>
      <point x="372" y="381"/>
      <point x="378" y="364" type="curve" smooth="yes"/>
      <point x="384" y="347"/>
      <point x="387" y="328"/>
      <point x="387" y="308" type="curve"/>
      <point x="112" y="308" type="line"/>
      <point x="118" y="352"/>
      <point x="134" y="387"/>
      <point x="158" y="412" type="curve" smooth="yes"/>
      <point x="182" y="437"/>
      <point x="216" y="449"/>
      <point x="259" y="449" type="curve"/>
    </contour>
    <contour>
      <point x="443" y="10" type="move" name="ogonek"/>
    </contour>
    <contour>
      <point x="246" y="0" type="move" name="bottom"/>
    </contour>
    <contour>
      <point x="246" y="506" type="move" name="top"/>
    </contour>
  </outline>
</glyph>
<glyph name="f" format="1">
  <advance width="372"/>
  <unicode hex="0066"/>
  <note>
    f
  </note>
  <outline>
    <contour>
      <point x="297" y="658" type="line"/>
      <point x="312" y="658" type="line" smooth="yes"/>
      <point x="322" y="658"/>
      <point x="329" y="658"/>
      <point x="335" y="660" type="curve" smooth="yes"/>
      <point x="341" y="662"/>
      <point x="344" y="666"/>
      <point x="344" y="672" type="curve"/>
      <point x="346" y="717" type="line"/>
      <point x="326" y="723"/>
      <point x="305" y="727"/>
      <point x="283" y="727" type="curve" smooth="yes"/>
      <point x="229" y="727"/>
      <point x="187" y="712"/>
      <point x="156" y="680" type="curve" smooth="yes"/>
      <point x="124" y="648"/>
      <point x="109" y="603"/>
      <point x="109" y="545" type="curve" smooth="yes"/>
      <point x="109" y="496" type="line"/>
      <point x="29" y="496" type="line"/>
      <point x="29" y="460" type="line" smooth="yes"/>
      <point x="29" y="448"/>
      <point x="37" y="441"/>
      <point x="53" y="437" type="curve"/>
      <point x="109" y="430" type="line"/>
      <point x="109" y="73" type="line"/>
      <point x="47" y="62" type="line" smooth="yes"/>
      <point x="37" y="60"/>
      <point x="32" y="53"/>
      <point x="32" y="43" type="curve" smooth="yes"/>
      <point x="32" y="0" type="line"/>
      <point x="280" y="0" type="line"/>
      <point x="280" y="43" type="line" smooth="yes"/>
      <point x="280" y="53"/>
      <point x="275" y="60"/>
      <point x="265" y="62" type="curve" smooth="yes"/>
      <point x="260" y="63"/>
      <point x="238" y="67"/>
      <point x="198" y="73" type="curve"/>
      <point x="198" y="432" type="line"/>
      <point x="342" y="432" type="line"/>
      <point x="342" y="496" type="line"/>
      <point x="196" y="496" type="line"/>
      <point x="196" y="543" type="line" smooth="yes"/>
      <point x="196" y="620"/>
      <point x="230" y="658"/>
      <point x="298" y="658" type="curve"/>
    </contour>
    <contour>
      <point x="186" y="506" type="move" name="top"/>
    </contour>
    <contour>
      <point x="186" y="0" type="move" name="bottom"/>
    </contour>
  </outline>
</glyph>
<glyph name="g" format="1">
  <advance width="507"/>
  <unicode hex="0067"/>
  <note>
    g
  </note>
  <outline>
    <contour>
      <point x="231" y="515" type="line"/>
      <point x="203" y="515"/>
      <point x="178" y="512"/>
      <point x="154" y="504" type="curve" smooth="yes"/>
      <point x="130" y="496"/>
      <point x="109" y="485"/>
      <point x="92" y="471" type="curve" smooth="yes"/>
      <point x="75" y="457"/>
      <point x="62" y="440"/>
      <point x="52" y="420" type="curve" smooth="yes"/>
      <point x="42" y="400"/>
      <point x="38" y="377"/>
      <point x="38" y="353" type="curve" smooth="yes"/>
      <point x="38" y="322"/>
      <point x="45" y="295"/>
      <point x="59" y="272" type="curve" smooth="yes"/>
      <point x="73" y="249"/>
      <point x="93" y="230"/>
      <point x="118" y="216" type="curve"/>
      <point x="108" y="210"/>
      <point x="98" y="205"/>
      <point x="90" y="198" type="curve" smooth="yes"/>
      <point x="82" y="191"/>
      <point x="75" y="184"/>
      <point x="69" y="176" type="curve" smooth="yes"/>
      <point x="63" y="168"/>
      <point x="59" y="160"/>
      <point x="57" y="152" type="curve" smooth="yes"/>
      <point x="55" y="144"/>
      <point x="53" y="138"/>
      <point x="53" y="130" type="curve" smooth="yes"/>
      <point x="53" y="112"/>
      <point x="58" y="96"/>
      <point x="66" y="85" type="curve" smooth="yes"/>
      <point x="74" y="74"/>
      <point x="86" y="64"/>
      <point x="100" y="58" type="curve"/>
      <point x="72" y="48"/>
      <point x="50" y="34"/>
      <point x="34" y="16" type="curve" smooth="yes"/>
      <point x="18" y="-2"/>
      <point x="10" y="-23"/>
      <point x="10" y="-48" type="curve" smooth="yes"/>
      <point x="10" y="-66"/>
      <point x="15" y="-82"/>
      <point x="24" y="-98" type="curve" smooth="yes"/>
      <point x="33" y="-114"/>
      <point x="47" y="-129"/>
      <point x="65" y="-141" type="curve" smooth="yes"/>
      <point x="83" y="-153"/>
      <point x="106" y="-163"/>
      <point x="134" y="-171" type="curve" smooth="yes"/>
      <point x="162" y="-179"/>
      <point x="195" y="-182"/>
      <point x="232" y="-182" type="curve" smooth="yes"/>
      <point x="269" y="-182"/>
      <point x="302" y="-178"/>
      <point x="332" y="-168" type="curve" smooth="yes"/>
      <point x="362" y="-158"/>
      <point x="386" y="-146"/>
      <point x="406" y="-130" type="curve" smooth="yes"/>
      <point x="426" y="-114"/>
      <point x="443" y="-96"/>
      <point x="454" y="-76" type="curve" smooth="yes"/>
      <point x="465" y="-56"/>
      <point x="470" y="-34"/>
      <point x="470" y="-12" type="curve" smooth="yes"/>
      <point x="470" y="12"/>
      <point x="466" y="30"/>
      <point x="456" y="44" type="curve" smooth="yes"/>
      <point x="446" y="58"/>
      <point x="433" y="71"/>
      <point x="417" y="79" type="curve" smooth="yes"/>
      <point x="401" y="87"/>
      <point x="382" y="93"/>
      <point x="362" y="97" type="curve" smooth="yes"/>
      <point x="342" y="101"/>
      <point x="321" y="102"/>
      <point x="300" y="104" type="curve" smooth="yes"/>
      <point x="279" y="106"/>
      <point x="258" y="108"/>
      <point x="238" y="108" type="curve" smooth="yes"/>
      <point x="218" y="108"/>
      <point x="199" y="110"/>
      <point x="183" y="112" type="curve" smooth="yes"/>
      <point x="167" y="114"/>
      <point x="154" y="119"/>
      <point x="144" y="125" type="curve" smooth="yes"/>
      <point x="134" y="131"/>
      <point x="130" y="140"/>
      <point x="130" y="152" type="curve" smooth="yes"/>
      <point x="130" y="160"/>
      <point x="132" y="166"/>
      <point x="138" y="174" type="curve" smooth="yes"/>
      <point x="144" y="182"/>
      <point x="152" y="190"/>
      <point x="162" y="196" type="curve"/>
      <point x="183" y="190"/>
      <point x="205" y="187"/>
      <point x="229" y="187" type="curve" smooth="yes"/>
      <point x="257" y="187"/>
      <point x="282" y="190"/>
      <point x="305" y="198" type="curve" smooth="yes"/>
      <point x="328" y="206"/>
      <point x="348" y="218"/>
      <point x="365" y="232" type="curve" smooth="yes"/>
      <point x="382" y="246"/>
      <point x="394" y="263"/>
      <point x="404" y="283" type="curve" smooth="yes"/>
      <point x="414" y="303"/>
      <point x="418" y="326"/>
      <point x="418" y="350" type="curve" smooth="yes"/>
      <point x="418" y="376"/>
      <point x="414" y="400"/>
      <point x="402" y="422" type="curve"/>
      <point x="459" y="430" type="line"/>
      <point x="473" y="433"/>
      <point x="480" y="440"/>
      <point x="480" y="451" type="curve" smooth="yes"/>
      <point x="480" y="484" type="line"/>
      <point x="342" y="484" type="line"/>
      <point x="326" y="494"/>
      <point x="309" y="501"/>
      <point x="290" y="506" type="curve" smooth="yes"/>
      <point x="271" y="511"/>
      <point x="251" y="513"/>
      <point x="229" y="513" type="curve"/>
    </contour>
    <contour>
      <point x="387" y="-30" type="line"/>
      <point x="387" y="-44"/>
      <point x="383" y="-55"/>
      <point x="376" y="-66" type="curve" smooth="yes"/>
      <point x="369" y="-77"/>
      <point x="359" y="-86"/>
      <point x="346" y="-94" type="curve" smooth="yes"/>
      <point x="333" y="-102"/>
      <point x="317" y="-109"/>
      <point x="298" y="-113" type="curve" smooth="yes"/>
      <point x="279" y="-117"/>
      <point x="258" y="-120"/>
      <point x="234" y="-120" type="curve" smooth="yes"/>
      <point x="210" y="-120"/>
      <point x="188" y="-118"/>
      <point x="170" y="-114" type="curve" smooth="yes"/>
      <point x="152" y="-110"/>
      <point x="137" y="-104"/>
      <point x="125" y="-97" type="curve" smooth="yes"/>
      <point x="113" y="-90"/>
      <point x="104" y="-82"/>
      <point x="98" y="-72" type="curve" smooth="yes"/>
      <point x="92" y="-62"/>
      <point x="89" y="-52"/>
      <point x="89" y="-40" type="curve" smooth="yes"/>
      <point x="89" y="-22"/>
      <point x="95" y="-6"/>
      <point x="107" y="7" type="curve" smooth="yes"/>
      <point x="119" y="20"/>
      <point x="135" y="31"/>
      <point x="154" y="40" type="curve"/>
      <point x="170" y="38"/>
      <point x="187" y="35"/>
      <point x="205" y="34" type="curve" smooth="yes"/>
      <point x="223" y="33"/>
      <point x="240" y="33"/>
      <point x="258" y="32" type="curve" smooth="yes"/>
      <point x="276" y="31"/>
      <point x="292" y="29"/>
      <point x="308" y="27" type="curve" smooth="yes"/>
      <point x="324" y="25"/>
      <point x="337" y="22"/>
      <point x="349" y="18" type="curve" smooth="yes"/>
      <point x="361" y="14"/>
      <point x="371" y="8"/>
      <point x="378" y="0" type="curve" smooth="yes"/>
      <point x="385" y="-8"/>
      <point x="388" y="-18"/>
      <point x="388" y="-30" type="curve"/>
    </contour>
    <contour>
      <point x="230" y="246" type="line"/>
      <point x="212" y="246"/>
      <point x="198" y="248"/>
      <point x="184" y="253" type="curve" smooth="yes"/>
      <point x="170" y="258"/>
      <point x="159" y="265"/>
      <point x="149" y="274" type="curve" smooth="yes"/>
      <point x="139" y="283"/>
      <point x="133" y="294"/>
      <point x="128" y="306" type="curve" smooth="yes"/>
      <point x="123" y="318"/>
      <point x="120" y="332"/>
      <point x="120" y="347" type="curve" smooth="yes"/>
      <point x="120" y="378"/>
      <point x="129" y="403"/>
      <point x="148" y="421" type="curve" smooth="yes"/>
      <point x="167" y="439"/>
      <point x="194" y="448"/>
      <point x="230" y="448" type="curve" smooth="yes"/>
      <point x="266" y="448"/>
      <point x="293" y="439"/>
      <point x="312" y="421" type="curve" smooth="yes"/>
      <point x="331" y="403"/>
      <point x="341" y="378"/>
      <point x="341" y="347" type="curve" smooth="yes"/>
      <point x="341" y="332"/>
      <point x="338" y="318"/>
      <point x="334" y="306" type="curve" smooth="yes"/>
      <point x="330" y="294"/>
      <point x="323" y="282"/>
      <point x="313" y="273" type="curve" smooth="yes"/>
      <point x="303" y="264"/>
      <point x="292" y="257"/>
      <point x="278" y="252" type="curve" smooth="yes"/>
      <point x="264" y="247"/>
      <point x="248" y="244"/>
      <point x="230" y="244" type="curve"/>
    </contour>
    <contour>
      <point x="254" y="506" type="move" name="top"/>
    </contour>
    <contour>
      <point x="254" y="0" type="move" name="bottom"/>
    </contour>
  </outline>
</glyph>
<glyph name="h" format="1">
  <advance width="625"/>
  <unicode hex="0068"/>
  <note>
    h
  </note>
  <outline>
    <contour>
      <point x="196" y="736" type="line"/>
      <point x="24" y="736" type="line"/>
      <point x="24" y="694" type="line" smooth="yes"/>
      <point x="24" y="684"/>
      <point x="30" y="677"/>
      <point x="40" y="675" type="curve"/>
      <point x="46" y="673"/>
      <point x="68" y="669"/>
      <point x="106" y="663" type="curve"/>
      <point x="106" y="72" type="line"/>
      <point x="50" y="61" type="line" smooth="yes"/>
      <point x="40" y="59"/>
      <point x="34" y="52"/>
      <point x="34" y="42" type="curve" smooth="yes"/>
      <point x="34" y="0" type="line"/>
      <point x="268" y="0" type="line"/>
      <point x="268" y="42" type="line" smooth="yes"/>
      <point x="268" y="52"/>
      <point x="262" y="59"/>
      <point x="252" y="61" type="curve"/>
      <point x="248" y="62"/>
      <point x="234" y="65"/>
      <point x="208" y="70" type="curve" smooth="yes"/>
      <point x="196" y="72" type="line"/>
      <point x="196" y="372" type="line"/>
      <point x="238" y="419"/>
      <point x="282" y="443"/>
      <point x="332" y="443" type="curve" smooth="yes"/>
      <point x="403" y="443"/>
      <point x="439" y="402"/>
      <point x="439" y="322" type="curve" smooth="yes"/>
      <point x="439" y="0" type="line"/>
      <point x="600" y="0" type="line"/>
      <point x="600" y="42" type="line" smooth="yes"/>
      <point x="600" y="52"/>
      <point x="595" y="59"/>
      <point x="585" y="61" type="curve"/>
      <point x="579" y="63"/>
      <point x="560" y="67"/>
      <point x="528" y="73" type="curve"/>
      <point x="528" y="322" type="line" smooth="yes"/>
      <point x="528" y="380"/>
      <point x="513" y="428"/>
      <point x="484" y="462" type="curve" smooth="yes"/>
      <point x="454" y="497"/>
      <point x="412" y="514"/>
      <point x="358" y="514" type="curve" smooth="yes"/>
      <point x="297" y="514"/>
      <point x="244" y="488"/>
      <point x="196" y="438" type="curve"/>
    </contour>
    <contour>
      <point x="313" y="253" type="move" name="center"/>
    </contour>
    <contour>
      <point x="313" y="0" type="move" name="bottom"/>
    </contour>
    <contour>
      <point x="313" y="506" type="move" name="top"/>
    </contour>
  </outline>
</glyph>
<glyph name="i" format="1">
  <advance width="289"/>
  <unicode hex="0069"/>
  <note>
    i
  </note>
  <outline>
    <contour>
      <point x="110" y="615"/>
      <point x="116" y="611"/>
      <point x="124" y="607" type="curve" smooth="yes"/>
      <point x="132" y="603"/>
      <point x="140" y="602"/>
      <point x="148" y="602" type="curve" smooth="yes"/>
      <point x="156" y="602"/>
      <point x="164" y="603"/>
      <point x="172" y="607" type="curve" smooth="yes"/>
      <point x="180" y="611"/>
      <point x="186" y="615"/>
      <point x="192" y="621" type="curve" smooth="yes"/>
      <point x="198" y="627"/>
      <point x="202" y="633"/>
      <point x="206" y="641" type="curve" smooth="yes"/>
      <point x="210" y="649"/>
      <point x="212" y="657"/>
      <point x="212" y="665" type="curve" smooth="yes"/>
      <point x="212" y="673"/>
      <point x="210" y="682"/>
      <point x="206" y="690" type="curve" smooth="yes"/>
      <point x="202" y="698"/>
      <point x="198" y="705"/>
      <point x="192" y="711" type="curve" smooth="yes"/>
      <point x="186" y="717"/>
      <point x="180" y="721"/>
      <point x="172" y="725" type="curve" smooth="yes"/>
      <point x="164" y="729"/>
      <point x="156" y="730"/>
      <point x="148" y="730" type="curve" smooth="yes"/>
      <point x="140" y="730"/>
      <point x="132" y="729"/>
      <point x="124" y="725" type="curve" smooth="yes"/>
      <point x="116" y="721"/>
      <point x="110" y="717"/>
      <point x="104" y="711" type="curve" smooth="yes"/>
      <point x="98" y="705"/>
      <point x="94" y="698"/>
      <point x="90" y="690" type="curve" smooth="yes"/>
      <point x="86" y="682"/>
      <point x="85" y="673"/>
      <point x="85" y="665" type="curve" smooth="yes"/>
      <point x="85" y="657"/>
      <point x="86" y="649"/>
      <point x="90" y="641" type="curve" smooth="yes"/>
      <point x="94" y="633"/>
      <point x="98" y="627"/>
      <point x="104" y="621" type="curve" smooth="yes"/>
    </contour>
    <contour>
      <point x="240" y="64"/>
      <point x="192" y="73"/>
      <point x="192" y="73" type="curve"/>
      <point x="192" y="506" type="line"/>
      <point x="31" y="506" type="line"/>
      <point x="31" y="464" type="line" smooth="yes"/>
      <point x="31" y="455"/>
      <point x="37" y="447"/>
      <point x="46" y="445" type="curve" smooth="yes"/>
      <point x="55" y="443"/>
      <point x="104" y="434"/>
      <point x="104" y="434" type="curve"/>
      <point x="104" y="73" type="line"/>
      <point x="104" y="73"/>
      <point x="55" y="64"/>
      <point x="46" y="62" type="curve" smooth="yes"/>
      <point x="37" y="60"/>
      <point x="31" y="52"/>
      <point x="31" y="43" type="curve" smooth="yes"/>
      <point x="31" y="0" type="line"/>
      <point x="264" y="0" type="line"/>
      <point x="264" y="43" type="line" smooth="yes"/>
      <point x="264" y="52"/>
      <point x="258" y="60"/>
      <point x="249" y="62" type="curve" smooth="yes"/>
    </contour>
    <contour>
      <point x="145" y="0" type="move" name="bottom"/>
    </contour>
  </outline>
</glyph>
<glyph name="k" format="1">
  <advance width="578"/>
  <unicode hex="006B"/>
  <note>
    k
  </note>
  <outline>
    <contour>
      <point x="536" y="62" type="line"/>
      <point x="532" y="62"/>
      <point x="521" y="64"/>
      <point x="504" y="68" type="curve"/>
      <point x="478" y="72" type="line"/>
      <point x="338" y="250" type="line"/>
      <point x="330" y="264"/>
      <point x="320" y="273"/>
      <point x="308" y="281" type="curve"/>
      <point x="318" y="287"/>
      <point x="327" y="296"/>
      <point x="337" y="308" type="curve"/>
      <point x="455" y="434" type="line"/>
      <point x="488" y="440"/>
      <point x="509" y="444"/>
      <point x="517" y="446" type="curve" smooth="yes"/>
      <point x="525" y="448"/>
      <point x="530" y="454"/>
      <point x="530" y="464" type="curve" smooth="yes"/>
      <point x="530" y="506" type="line"/>
      <point x="524" y="506" type="line"/>
      <point x="442" y="506" type="line"/>
      <point x="318" y="506" type="line"/>
      <point x="318" y="464" type="line" smooth="yes"/>
      <point x="318" y="454"/>
      <point x="324" y="447"/>
      <point x="334" y="445" type="curve"/>
      <point x="338" y="444"/>
      <point x="342" y="444"/>
      <point x="350" y="442" type="curve"/>
      <point x="354" y="442"/>
      <point x="358" y="440"/>
      <point x="362" y="440" type="curve"/>
      <point x="248" y="318" type="line"/>
      <point x="240" y="308"/>
      <point x="228" y="304"/>
      <point x="216" y="304" type="curve" smooth="yes"/>
      <point x="194" y="304" type="line"/>
      <point x="194" y="737" type="line"/>
      <point x="104" y="737" type="line"/>
      <point x="32" y="737" type="line"/>
      <point x="32" y="694" type="line" smooth="yes"/>
      <point x="32" y="684"/>
      <point x="37" y="678"/>
      <point x="47" y="676" type="curve"/>
      <point x="53" y="674"/>
      <point x="72" y="670"/>
      <point x="104" y="664" type="curve"/>
      <point x="104" y="73" type="line"/>
      <point x="47" y="62" type="line" smooth="yes"/>
      <point x="37" y="60"/>
      <point x="32" y="53"/>
      <point x="32" y="43" type="curve" smooth="yes"/>
      <point x="32" y="0" type="line"/>
      <point x="266" y="0" type="line"/>
      <point x="266" y="43" type="line" smooth="yes"/>
      <point x="266" y="53"/>
      <point x="260" y="60"/>
      <point x="250" y="62" type="curve" smooth="yes"/>
      <point x="216" y="69"/>
      <point x="198" y="73"/>
      <point x="194" y="73" type="curve"/>
      <point x="194" y="242" type="line"/>
      <point x="218" y="242" type="line" smooth="yes"/>
      <point x="228" y="242"/>
      <point x="236" y="241"/>
      <point x="241" y="239" type="curve" smooth="yes"/>
      <point x="246" y="237"/>
      <point x="251" y="233"/>
      <point x="256" y="226" type="curve"/>
      <point x="422" y="18" type="line" smooth="yes"/>
      <point x="432" y="6"/>
      <point x="443" y="0"/>
      <point x="456" y="0" type="curve" smooth="yes"/>
      <point x="550" y="0" type="line"/>
      <point x="550" y="44" type="line" smooth="yes"/>
      <point x="550" y="54"/>
      <point x="545" y="60"/>
      <point x="535" y="62" type="curve"/>
    </contour>
    <contour>
      <point x="289" y="506" type="move" name="top"/>
    </contour>
    <contour>
      <point x="289" y="0" type="move" name="bottom"/>
    </contour>
  </outline>
</glyph>
<glyph name="o" format="1">
  <advance width="528"/>
  <unicode hex="006F"/>
  <note>
    o
  </note>
  <outline>
    <contour>
      <point x="227" y="514"/>
      <point x="194" y="508"/>
      <point x="164" y="496" type="curve" smooth="yes"/>
      <point x="134" y="484"/>
      <point x="108" y="466"/>
      <point x="87" y="444" type="curve" smooth="yes"/>
      <point x="66" y="422"/>
      <point x="50" y="394"/>
      <point x="38" y="362" type="curve" smooth="yes"/>
      <point x="26" y="330"/>
      <point x="22" y="294"/>
      <point x="22" y="254" type="curve" smooth="yes"/>
      <point x="22" y="214"/>
      <point x="26" y="178"/>
      <point x="38" y="146" type="curve" smooth="yes"/>
      <point x="50" y="114"/>
      <point x="66" y="86"/>
      <point x="87" y="64" type="curve" smooth="yes"/>
      <point x="108" y="42"/>
      <point x="134" y="24"/>
      <point x="164" y="12" type="curve" smooth="yes"/>
      <point x="194" y="0"/>
      <point x="227" y="-6"/>
      <point x="264" y="-6" type="curve" smooth="yes"/>
      <point x="301" y="-6"/>
      <point x="334" y="0"/>
      <point x="364" y="12" type="curve" smooth="yes"/>
      <point x="394" y="24"/>
      <point x="420" y="42"/>
      <point x="441" y="64" type="curve" smooth="yes"/>
      <point x="462" y="86"/>
      <point x="478" y="114"/>
      <point x="489" y="146" type="curve" smooth="yes"/>
      <point x="500" y="178"/>
      <point x="506" y="214"/>
      <point x="506" y="254" type="curve" smooth="yes"/>
      <point x="506" y="294"/>
      <point x="500" y="330"/>
      <point x="489" y="362" type="curve" smooth="yes"/>
      <point x="478" y="394"/>
      <point x="462" y="422"/>
      <point x="441" y="444" type="curve" smooth="yes"/>
      <point x="420" y="466"/>
      <point x="394" y="484"/>
      <point x="364" y="496" type="curve" smooth="yes"/>
      <point x="334" y="508"/>
      <point x="301" y="514"/>
      <point x="264" y="514" type="curve" smooth="yes"/>
    </contour>
    <contour>
      <point x="238" y="62"/>
      <point x="216" y="68"/>
      <point x="198" y="76" type="curve" smooth="yes"/>
      <point x="180" y="84"/>
      <point x="164" y="96"/>
      <point x="152" y="112" type="curve" smooth="yes"/>
      <point x="140" y="128"/>
      <point x="130" y="148"/>
      <point x="124" y="172" type="curve" smooth="yes"/>
      <point x="118" y="196"/>
      <point x="114" y="222"/>
      <point x="114" y="252" type="curve" smooth="yes"/>
      <point x="114" y="282"/>
      <point x="118" y="310"/>
      <point x="124" y="334" type="curve" smooth="yes"/>
      <point x="130" y="358"/>
      <point x="140" y="378"/>
      <point x="152" y="394" type="curve" smooth="yes"/>
      <point x="164" y="410"/>
      <point x="180" y="424"/>
      <point x="198" y="432" type="curve" smooth="yes"/>
      <point x="216" y="440"/>
      <point x="238" y="444"/>
      <point x="264" y="444" type="curve" smooth="yes"/>
      <point x="314" y="444"/>
      <point x="352" y="428"/>
      <point x="376" y="394" type="curve" smooth="yes"/>
      <point x="400" y="360"/>
      <point x="413" y="313"/>
      <point x="413" y="253" type="curve" smooth="yes"/>
      <point x="413" y="193"/>
      <point x="400" y="146"/>
      <point x="376" y="112" type="curve" smooth="yes"/>
      <point x="352" y="78"/>
      <point x="314" y="62"/>
      <point x="264" y="62" type="curve" smooth="yes"/>
    </contour>
    <contour>
      <point x="264" y="0" type="move" name="bottom"/>
    </contour>
    <contour>
      <point x="475" y="10" type="move" name="ogonek"/>
    </contour>
    <contour>
      <point x="264" y="506" type="move" name="top"/>
    </contour>
    <contour>
      <point x="508" y="506" type="move" name="topright"/>
    </contour>
    <contour>
      <point x="264" y="253" type="move" name="center"/>
    </contour>
  </outline>
</glyph>
<glyph name="q" format="1">
  <advance width="555"/>
  <unicode hex="0071"/>
  <note>
    q
  </note>
  <outline>
    <contour>
      <point x="381" y="75" type="line"/>
      <point x="381" y="-98" type="line"/>
      <point x="343" y="-104"/>
      <point x="320" y="-108"/>
      <point x="312" y="-110" type="curve" smooth="yes"/>
      <point x="304" y="-112"/>
      <point x="299" y="-118"/>
      <point x="299" y="-128" type="curve" smooth="yes"/>
      <point x="299" y="-171" type="line"/>
      <point x="550" y="-171" type="line"/>
      <point x="550" y="-128" type="line" smooth="yes"/>
      <point x="550" y="-118"/>
      <point x="544" y="-112"/>
      <point x="534" y="-110" type="curve"/>
      <point x="528" y="-108"/>
      <point x="508" y="-104"/>
      <point x="470" y="-98" type="curve"/>
      <point x="470" y="487" type="line"/>
      <point x="434" y="494" type="line" smooth="yes"/>
      <point x="362" y="508"/>
      <point x="300" y="515"/>
      <point x="246" y="515" type="curve" smooth="yes"/>
      <point x="181" y="515"/>
      <point x="129" y="493"/>
      <point x="88" y="447" type="curve" smooth="yes"/>
      <point x="45" y="399"/>
      <point x="23" y="336"/>
      <point x="23" y="254" type="curve" smooth="yes"/>
      <point x="23" y="252" type="line" smooth="yes"/>
      <point x="23" y="170"/>
      <point x="41" y="106"/>
      <point x="75" y="60" type="curve" smooth="yes"/>
      <point x="109" y="16"/>
      <point x="155" y="-6"/>
      <point x="215" y="-6" type="curve" smooth="yes"/>
      <point x="279" y="-6"/>
      <point x="334" y="21"/>
      <point x="380" y="75" type="curve"/>
    </contour>
    <contour>
      <point x="158" y="65"/>
      <point x="114" y="128"/>
      <point x="114" y="252" type="curve" smooth="yes"/>
      <point x="114" y="278" type="line" smooth="yes"/>
      <point x="114" y="294"/>
      <point x="118" y="315"/>
      <point x="124" y="337" type="curve" smooth="yes"/>
      <point x="144" y="407"/>
      <point x="189" y="444"/>
      <point x="255" y="446" type="curve" smooth="yes"/>
      <point x="261" y="446" type="line" smooth="yes"/>
      <point x="297" y="446"/>
      <point x="336" y="441"/>
      <point x="380" y="430" type="curve"/>
      <point x="380" y="142" type="line"/>
      <point x="342" y="91"/>
      <point x="296" y="65"/>
      <point x="244" y="65" type="curve" smooth="yes"/>
    </contour>
    <contour>
      <point x="278" y="506" type="move" name="top"/>
    </contour>
    <contour>
      <point x="278" y="0" type="move" name="bottom"/>
    </contour>
  </outline>
</glyph>
<glyph name="r" format="1">
  <advance width="432"/>
  <unicode hex="0072"/>
  <note>
    r
  </note>
  <outline>
    <contour>
      <point x="190" y="403" type="line"/>
      <point x="184" y="482" type="line"/>
      <point x="182" y="491"/>
      <point x="180" y="497"/>
      <point x="176" y="501" type="curve" smooth="yes"/>
      <point x="172" y="505"/>
      <point x="167" y="506"/>
      <point x="157" y="506" type="curve" smooth="yes"/>
      <point x="106" y="506" type="line"/>
      <point x="34" y="506" type="line"/>
      <point x="34" y="464" type="line" smooth="yes"/>
      <point x="34" y="454"/>
      <point x="39" y="447"/>
      <point x="49" y="445" type="curve"/>
      <point x="55" y="443"/>
      <point x="74" y="439"/>
      <point x="106" y="433" type="curve"/>
      <point x="106" y="72" type="line"/>
      <point x="49" y="61" type="line" smooth="yes"/>
      <point x="39" y="59"/>
      <point x="34" y="52"/>
      <point x="34" y="42" type="curve" smooth="yes"/>
      <point x="34" y="0" type="line"/>
      <point x="267" y="0" type="line"/>
      <point x="267" y="42" type="line" smooth="yes"/>
      <point x="267" y="52"/>
      <point x="262" y="59"/>
      <point x="252" y="61" type="curve" smooth="yes"/>
      <point x="222" y="67"/>
      <point x="203" y="70"/>
      <point x="195" y="72" type="curve"/>
      <point x="195" y="322" type="line"/>
      <point x="223" y="392"/>
      <point x="267" y="428"/>
      <point x="325" y="428" type="curve" smooth="yes"/>
      <point x="343" y="428"/>
      <point x="356" y="426"/>
      <point x="366" y="423" type="curve" smooth="yes"/>
      <point x="376" y="420"/>
      <point x="384" y="418"/>
      <point x="390" y="418" type="curve" smooth="yes"/>
      <point x="396" y="418"/>
      <point x="401" y="423"/>
      <point x="403" y="431" type="curve"/>
      <point x="414" y="498" type="line"/>
      <point x="394" y="510"/>
      <point x="371" y="516"/>
      <point x="345" y="516" type="curve" smooth="yes"/>
      <point x="279" y="516"/>
      <point x="228" y="478"/>
      <point x="191" y="403" type="curve"/>
    </contour>
    <contour>
      <point x="216" y="506" type="move" name="top"/>
    </contour>
    <contour>
      <point x="216" y="0" type="move" name="bottom"/>
    </contour>
  </outline>
</glyph>
<glyph name="v" format="1">
  <advance width="596"/>
  <unicode hex="0076"/>
  <note>
    v
  </note>
  <outline>
    <contour>
      <point x="543" y="506" type="line"/>
      <point x="353" y="506" type="line"/>
      <point x="353" y="464" type="line" smooth="yes"/>
      <point x="353" y="454"/>
      <point x="358" y="447"/>
      <point x="368" y="445" type="curve" smooth="yes"/>
      <point x="398" y="439"/>
      <point x="417" y="436"/>
      <point x="425" y="434" type="curve"/>
      <point x="317" y="162" type="line" smooth="yes"/>
      <point x="311" y="146"/>
      <point x="305" y="122"/>
      <point x="297" y="90" type="curve"/>
      <point x="291" y="122"/>
      <point x="285" y="147"/>
      <point x="279" y="162" type="curve" smooth="yes"/>
      <point x="172" y="434" type="line"/>
      <point x="203" y="440"/>
      <point x="221" y="442"/>
      <point x="227" y="444" type="curve"/>
      <point x="237" y="446"/>
      <point x="242" y="453"/>
      <point x="242" y="463" type="curve" smooth="yes"/>
      <point x="242" y="506" type="line"/>
      <point x="15" y="506" type="line"/>
      <point x="15" y="463" type="line" smooth="yes"/>
      <point x="15" y="453"/>
      <point x="20" y="446"/>
      <point x="30" y="444" type="curve"/>
      <point x="32" y="444"/>
      <point x="39" y="442"/>
      <point x="52" y="440" type="curve" smooth="yes"/>
      <point x="65" y="438"/>
      <point x="73" y="436"/>
      <point x="79" y="434" type="curve"/>
      <point x="256" y="-1" type="line"/>
      <point x="337" y="-1" type="line"/>
      <point x="514" y="434" type="line"/>
      <point x="543" y="440"/>
      <point x="559" y="444"/>
      <point x="563" y="444" type="curve"/>
      <point x="573" y="446"/>
      <point x="578" y="452"/>
      <point x="578" y="462" type="curve" smooth="yes"/>
      <point x="578" y="506" type="line"/>
    </contour>
    <contour>
      <point x="298" y="506" type="move" name="top"/>
    </contour>
    <contour>
      <point x="298" y="0" type="move" name="bottom"/>
    </contour>
  </outline>
</glyph>
<glyph name="w" format="1">
  <advance width="869"/>
  <unicode hex="0077"/>
  <note>
    w
  </note>
  <outline>
    <contour>
      <point x="624" y="506" type="line"/>
      <point x="624" y="464" type="line" smooth="yes"/>
      <point x="624" y="454"/>
      <point x="630" y="447"/>
      <point x="640" y="445" type="curve" smooth="yes"/>
      <point x="674" y="438"/>
      <point x="694" y="434"/>
      <point x="698" y="434" type="curve"/>
      <point x="616" y="162" type="line" smooth="yes"/>
      <point x="610" y="140"/>
      <point x="605" y="117"/>
      <point x="601" y="94" type="curve"/>
      <point x="593" y="125"/>
      <point x="587" y="148"/>
      <point x="583" y="162" type="curve" smooth="yes"/>
      <point x="478" y="490" type="line" smooth="yes"/>
      <point x="474" y="502"/>
      <point x="466" y="508"/>
      <point x="453" y="508" type="curve" smooth="yes"/>
      <point x="414" y="508" type="line" smooth="yes"/>
      <point x="402" y="508"/>
      <point x="394" y="502"/>
      <point x="390" y="490" type="curve" smooth="yes"/>
      <point x="284" y="162" type="line" smooth="yes"/>
      <point x="274" y="130"/>
      <point x="267" y="107"/>
      <point x="264" y="93" type="curve"/>
      <point x="262" y="109"/>
      <point x="256" y="132"/>
      <point x="250" y="162" type="curve"/>
      <point x="170" y="434" type="line"/>
      <point x="200" y="440"/>
      <point x="219" y="443"/>
      <point x="225" y="445" type="curve"/>
      <point x="235" y="447"/>
      <point x="240" y="454"/>
      <point x="240" y="464" type="curve" smooth="yes"/>
      <point x="240" y="506" type="line"/>
      <point x="14" y="506" type="line"/>
      <point x="14" y="464" type="line" smooth="yes"/>
      <point x="14" y="454"/>
      <point x="20" y="447"/>
      <point x="30" y="445" type="curve"/>
      <point x="33" y="445"/>
      <point x="43" y="442"/>
      <point x="63" y="438" type="curve"/>
      <point x="71" y="436"/>
      <point x="78" y="435"/>
      <point x="80" y="435" type="curve"/>
      <point x="220" y="0" type="line"/>
      <point x="288" y="0" type="line" smooth="yes"/>
      <point x="298" y="0"/>
      <point x="304" y="5"/>
      <point x="308" y="17" type="curve" smooth="yes"/>
      <point x="422" y="360" type="line"/>
      <point x="424" y="368"/>
      <point x="426" y="374"/>
      <point x="428" y="382" type="curve" smooth="yes"/>
      <point x="430" y="390"/>
      <point x="430" y="398"/>
      <point x="432" y="406" type="curve"/>
      <point x="434" y="400"/>
      <point x="435" y="392"/>
      <point x="437" y="384" type="curve" smooth="yes"/>
      <point x="439" y="376"/>
      <point x="441" y="368"/>
      <point x="444" y="360" type="curve"/>
      <point x="556" y="16" type="line"/>
      <point x="559" y="4"/>
      <point x="565" y="0"/>
      <point x="574" y="0" type="curve" smooth="yes"/>
      <point x="644" y="0" type="line"/>
      <point x="785" y="434" type="line"/>
      <point x="788" y="434"/>
      <point x="796" y="437"/>
      <point x="810" y="439" type="curve" smooth="yes"/>
      <point x="824" y="441"/>
      <point x="831" y="444"/>
      <point x="835" y="444" type="curve"/>
      <point x="845" y="446"/>
      <point x="850" y="452"/>
      <point x="850" y="462" type="curve" smooth="yes"/>
      <point x="850" y="505" type="line"/>
    </contour>
    <contour>
      <point x="435" y="506" type="move" name="top"/>
    </contour>
    <contour>
      <point x="435" y="0" type="move" name="bottom"/>
    </contour>
  </outline>
</glyph>
<glyph name="bar" format="1">
  <advance width="179"/>
  <unicode hex="007C"/>
  <note>
    bar
  </note>
  <outline>
    <contour>
      <point x="56" y="766" type="line"/>
      <point x="56" y="-172" type="line"/>
      <point x="124" y="-172" type="line"/>
      <point x="124" y="766" type="line"/>
    </contour>
  </outline>
</glyph>
<glyph name="braceright" format="1">
  <advance width="277"/>
  <unicode hex="007D"/>
  <note>
    braceright
  </note>
  <outline>
    <contour>
      <point x="187" y="212" type="line"/>
      <point x="187" y="233"/>
      <point x="192" y="250"/>
      <point x="204" y="264" type="curve" smooth="yes"/>
      <point x="216" y="278"/>
      <point x="234" y="284"/>
      <point x="256" y="284" type="curve"/>
      <point x="256" y="338" type="line"/>
      <point x="234" y="338"/>
      <point x="216" y="344"/>
      <point x="204" y="358" type="curve" smooth="yes"/>
      <point x="192" y="372"/>
      <point x="187" y="388"/>
      <point x="187" y="410" type="curve" smooth="yes"/>
      <point x="187" y="426"/>
      <point x="189" y="444"/>
      <point x="191" y="460" type="curve" smooth="yes"/>
      <point x="193" y="476"/>
      <point x="197" y="493"/>
      <point x="200" y="509" type="curve" smooth="yes"/>
      <point x="203" y="525"/>
      <point x="206" y="542"/>
      <point x="208" y="558" type="curve" smooth="yes"/>
      <point x="210" y="574"/>
      <point x="212" y="592"/>
      <point x="212" y="610" type="curve" smooth="yes"/>
      <point x="212" y="633"/>
      <point x="209" y="653"/>
      <point x="202" y="673" type="curve" smooth="yes"/>
      <point x="195" y="693"/>
      <point x="184" y="709"/>
      <point x="170" y="723" type="curve" smooth="yes"/>
      <point x="156" y="737"/>
      <point x="140" y="748"/>
      <point x="120" y="756" type="curve" smooth="yes"/>
      <point x="100" y="764"/>
      <point x="76" y="767"/>
      <point x="48" y="767" type="curve" smooth="yes"/>
      <point x="21" y="767" type="line"/>
      <point x="21" y="728" type="line" smooth="yes"/>
      <point x="21" y="722"/>
      <point x="24" y="716"/>
      <point x="28" y="713" type="curve" smooth="yes"/>
      <point x="32" y="710"/>
      <point x="37" y="708"/>
      <point x="41" y="708" type="curve" smooth="yes"/>
      <point x="51" y="708" type="line" smooth="yes"/>
      <point x="77" y="708"/>
      <point x="97" y="700"/>
      <point x="112" y="683" type="curve" smooth="yes"/>
      <point x="127" y="666"/>
      <point x="134" y="642"/>
      <point x="134" y="614" type="curve" smooth="yes"/>
      <point x="134" y="596"/>
      <point x="132" y="578"/>
      <point x="130" y="560" type="curve" smooth="yes"/>
      <point x="128" y="542"/>
      <point x="125" y="526"/>
      <point x="122" y="510" type="curve" smooth="yes"/>
      <point x="119" y="494"/>
      <point x="116" y="476"/>
      <point x="114" y="460" type="curve" smooth="yes"/>
      <point x="112" y="444"/>
      <point x="111" y="426"/>
      <point x="111" y="410" type="curve" smooth="yes"/>
      <point x="111" y="398"/>
      <point x="112" y="386"/>
      <point x="116" y="375" type="curve" smooth="yes"/>
      <point x="120" y="364"/>
      <point x="125" y="354"/>
      <point x="132" y="346" type="curve" smooth="yes"/>
      <point x="139" y="338"/>
      <point x="147" y="330"/>
      <point x="156" y="324" type="curve" smooth="yes"/>
      <point x="165" y="318"/>
      <point x="175" y="313"/>
      <point x="186" y="310" type="curve"/>
      <point x="175" y="307"/>
      <point x="165" y="303"/>
      <point x="156" y="297" type="curve" smooth="yes"/>
      <point x="147" y="291"/>
      <point x="139" y="283"/>
      <point x="132" y="275" type="curve" smooth="yes"/>
      <point x="125" y="267"/>
      <point x="120" y="256"/>
      <point x="116" y="246" type="curve" smooth="yes"/>
      <point x="112" y="236"/>
      <point x="110" y="224"/>
      <point x="110" y="212" type="curve" smooth="yes"/>
      <point x="110" y="196"/>
      <point x="112" y="178"/>
      <point x="114" y="162" type="curve" smooth="yes"/>
      <point x="116" y="146"/>
      <point x="119" y="129"/>
      <point x="122" y="113" type="curve" smooth="yes"/>
      <point x="125" y="97"/>
      <point x="128" y="80"/>
      <point x="130" y="62" type="curve" smooth="yes"/>
      <point x="132" y="44"/>
      <point x="134" y="26"/>
      <point x="134" y="8" type="curve" smooth="yes"/>
      <point x="134" y="-21"/>
      <point x="126" y="-44"/>
      <point x="111" y="-60" type="curve" smooth="yes"/>
      <point x="96" y="-76"/>
      <point x="76" y="-86"/>
      <point x="50" y="-86" type="curve" smooth="yes"/>
      <point x="40" y="-86" type="line" smooth="yes"/>
      <point x="36" y="-86"/>
      <point x="31" y="-87"/>
      <point x="27" y="-90" type="curve" smooth="yes"/>
      <point x="23" y="-93"/>
      <point x="20" y="-98"/>
      <point x="20" y="-104" type="curve" smooth="yes"/>
      <point x="20" y="-144" type="line"/>
      <point x="46" y="-144" type="line" smooth="yes"/>
      <point x="74" y="-144"/>
      <point x="98" y="-140"/>
      <point x="118" y="-132" type="curve" smooth="yes"/>
      <point x="138" y="-124"/>
      <point x="156" y="-114"/>
      <point x="170" y="-100" type="curve" smooth="yes"/>
      <point x="184" y="-86"/>
      <point x="193" y="-70"/>
      <point x="200" y="-50" type="curve" smooth="yes"/>
      <point x="207" y="-30"/>
      <point x="211" y="-9"/>
      <point x="211" y="14" type="curve" smooth="yes"/>
      <point x="211" y="32"/>
      <point x="209" y="49"/>
      <point x="207" y="65" type="curve" smooth="yes"/>
      <point x="205" y="81"/>
      <point x="201" y="98"/>
      <point x="198" y="114" type="curve" smooth="yes"/>
      <point x="195" y="130"/>
      <point x="192" y="148"/>
      <point x="190" y="164" type="curve" smooth="yes"/>
      <point x="188" y="180"/>
      <point x="186" y="198"/>
      <point x="186" y="214" type="curve"/>
    </contour>
  </outline>
</glyph>
<glyph name="exclamdown" format="1">
  <advance width="200"/>
  <unicode hex="00A1"/>
  <note>
    exclamdown
  </note>
  <outline>
    <contour>
      <point x="60" y="-172" type="line"/>
      <point x="144" y="-172" type="line"/>
      <point x="144" y="99" type="line" smooth="yes"/>
      <point x="144" y="114"/>
      <point x="143" y="128"/>
      <point x="143" y="142" type="curve" smooth="yes"/>
      <point x="143" y="156"/>
      <point x="141" y="172"/>
      <point x="140" y="186" type="curve" smooth="yes"/>
      <point x="139" y="200"/>
      <point x="138" y="214"/>
      <point x="136" y="230" type="curve" smooth="yes"/>
      <point x="134" y="246"/>
      <point x="133" y="262"/>
      <point x="131" y="280" type="curve"/>
      <point x="70" y="280" type="line"/>
      <point x="68" y="262"/>
      <point x="67" y="246"/>
      <point x="65" y="230" type="curve" smooth="yes"/>
      <point x="63" y="214"/>
      <point x="62" y="200"/>
      <point x="61" y="186" type="curve" smooth="yes"/>
      <point x="60" y="172"/>
      <point x="58" y="156"/>
      <point x="58" y="142" type="curve" smooth="yes"/>
      <point x="58" y="99" type="line"/>
    </contour>
    <contour>
      <point x="36" y="452" type="line"/>
      <point x="36" y="444"/>
      <point x="37" y="436"/>
      <point x="40" y="428" type="curve" smooth="yes"/>
      <point x="43" y="420"/>
      <point x="47" y="414"/>
      <point x="53" y="408" type="curve" smooth="yes"/>
      <point x="59" y="402"/>
      <point x="64" y="399"/>
      <point x="72" y="395" type="curve" smooth="yes"/>
      <point x="80" y="391"/>
      <point x="88" y="390"/>
      <point x="97" y="390" type="curve" smooth="yes"/>
      <point x="105" y="390"/>
      <point x="113" y="391"/>
      <point x="121" y="395" type="curve" smooth="yes"/>
      <point x="129" y="399"/>
      <point x="134" y="402"/>
      <point x="140" y="408" type="curve" smooth="yes"/>
      <point x="146" y="414"/>
      <point x="150" y="420"/>
      <point x="154" y="428" type="curve" smooth="yes"/>
      <point x="158" y="436"/>
      <point x="159" y="444"/>
      <point x="159" y="452" type="curve" smooth="yes"/>
      <point x="159" y="461"/>
      <point x="158" y="468"/>
      <point x="154" y="476" type="curve" smooth="yes"/>
      <point x="150" y="484"/>
      <point x="146" y="490"/>
      <point x="140" y="496" type="curve" smooth="yes"/>
      <point x="134" y="502"/>
      <point x="129" y="506"/>
      <point x="121" y="509" type="curve" smooth="yes"/>
      <point x="113" y="512"/>
      <point x="105" y="514"/>
      <point x="97" y="514" type="curve" smooth="yes"/>
      <point x="88" y="514"/>
      <point x="80" y="512"/>
      <point x="72" y="509" type="curve" smooth="yes"/>
      <point x="64" y="506"/>
      <point x="58" y="502"/>
      <point x="52" y="496" type="curve" smooth="yes"/>
      <point x="46" y="490"/>
      <point x="43" y="484"/>
      <point x="40" y="476" type="curve" smooth="yes"/>
      <point x="37" y="468"/>
      <point x="35" y="461"/>
      <point x="35" y="452" type="curve"/>
    </contour>
  </outline>
</glyph>
<glyph name="cent" format="1">
  <advance width="460"/>
  <unicode hex="00A2"/>
  <note>
    cent
  </note>
  <outline>
    <contour>
      <point x="414" y="103" type="line"/>
      <point x="410" y="109"/>
      <point x="405" y="112"/>
      <point x="398" y="112" type="curve" smooth="yes"/>
      <point x="391" y="112"/>
      <point x="385" y="109"/>
      <point x="379" y="104" type="curve" smooth="yes"/>
      <point x="373" y="99"/>
      <point x="366" y="92"/>
      <point x="356" y="86" type="curve" smooth="yes"/>
      <point x="346" y="80"/>
      <point x="335" y="74"/>
      <point x="321" y="69" type="curve" smooth="yes"/>
      <point x="307" y="64"/>
      <point x="295" y="62"/>
      <point x="284" y="62" type="curve" smooth="yes"/>
      <point x="262" y="62" type="line"/>
      <point x="262" y="63" type="line"/>
      <point x="288" y="443" type="line"/>
      <point x="288" y="444" type="line"/>
      <point x="294" y="444"/>
      <point x="305" y="442"/>
      <point x="317" y="440" type="curve"/>
      <point x="326" y="438"/>
      <point x="338" y="434"/>
      <point x="354" y="430" type="curve"/>
      <point x="358" y="386"/>
      <point x="359" y="364"/>
      <point x="360" y="360" type="curve"/>
      <point x="362" y="350"/>
      <point x="366" y="346"/>
      <point x="376" y="346" type="curve" smooth="yes"/>
      <point x="416" y="346" type="line"/>
      <point x="416" y="477" type="line"/>
      <point x="370" y="496"/>
      <point x="329" y="508"/>
      <point x="293" y="512" type="curve"/>
      <point x="301" y="628" type="line"/>
      <point x="268" y="628" type="line" smooth="yes"/>
      <point x="261" y="628"/>
      <point x="254" y="625"/>
      <point x="250" y="620" type="curve" smooth="yes"/>
      <point x="246" y="615"/>
      <point x="243" y="609"/>
      <point x="243" y="602" type="curve"/>
      <point x="237" y="513" type="line"/>
      <point x="175" y="507"/>
      <point x="126" y="483"/>
      <point x="90" y="441" type="curve" smooth="yes"/>
      <point x="48" y="394"/>
      <point x="28" y="332"/>
      <point x="28" y="254" type="curve" smooth="yes"/>
      <point x="28" y="174"/>
      <point x="49" y="110"/>
      <point x="92" y="62" type="curve" smooth="yes"/>
      <point x="122" y="30"/>
      <point x="158" y="9"/>
      <point x="201" y="-1" type="curve"/>
      <point x="194" y="-116" type="line"/>
      <point x="226" y="-116" type="line" smooth="yes"/>
      <point x="233" y="-116"/>
      <point x="240" y="-113"/>
      <point x="244" y="-108" type="curve" smooth="yes"/>
      <point x="248" y="-103"/>
      <point x="251" y="-98"/>
      <point x="251" y="-92" type="curve"/>
      <point x="256" y="-6" type="line"/>
      <point x="336" y="-4"/>
      <point x="397" y="22"/>
      <point x="438" y="72" type="curve"/>
    </contour>
    <contour>
      <point x="119" y="254" type="line"/>
      <point x="119" y="284"/>
      <point x="122" y="310"/>
      <point x="128" y="334" type="curve" smooth="yes"/>
      <point x="144" y="394"/>
      <point x="180" y="430"/>
      <point x="232" y="442" type="curve"/>
      <point x="216" y="206"/>
      <point x="207" y="84"/>
      <point x="205" y="76" type="curve"/>
      <point x="187" y="84"/>
      <point x="171" y="97"/>
      <point x="159" y="113" type="curve" smooth="yes"/>
      <point x="133" y="147"/>
      <point x="119" y="196"/>
      <point x="119" y="256" type="curve"/>
    </contour>
  </outline>
</glyph>
<glyph name="currency" format="1">
  <advance width="508"/>
  <unicode hex="00A4"/>
  <note>
    currency
  </note>
  <outline>
    <contour>
      <point x="76" y="336" type="line"/>
      <point x="76" y="316"/>
      <point x="78" y="298"/>
      <point x="84" y="281" type="curve" smooth="yes"/>
      <point x="90" y="264"/>
      <point x="98" y="248"/>
      <point x="108" y="234" type="curve"/>
      <point x="32" y="158" type="line"/>
      <point x="77" y="112" type="line"/>
      <point x="154" y="188" type="line"/>
      <point x="168" y="178"/>
      <point x="183" y="172"/>
      <point x="200" y="166" type="curve" smooth="yes"/>
      <point x="217" y="160"/>
      <point x="235" y="158"/>
      <point x="254" y="158" type="curve" smooth="yes"/>
      <point x="273" y="158"/>
      <point x="291" y="160"/>
      <point x="309" y="166" type="curve" smooth="yes"/>
      <point x="327" y="172"/>
      <point x="343" y="180"/>
      <point x="357" y="190" type="curve"/>
      <point x="433" y="114" type="line"/>
      <point x="478" y="160" type="line"/>
      <point x="402" y="235" type="line"/>
      <point x="412" y="249"/>
      <point x="419" y="265"/>
      <point x="425" y="282" type="curve" smooth="yes"/>
      <point x="431" y="299"/>
      <point x="433" y="317"/>
      <point x="433" y="336" type="curve" smooth="yes"/>
      <point x="433" y="356"/>
      <point x="430" y="373"/>
      <point x="424" y="390" type="curve" smooth="yes"/>
      <point x="418" y="407"/>
      <point x="410" y="424"/>
      <point x="400" y="438" type="curve"/>
      <point x="476" y="514" type="line"/>
      <point x="432" y="560" type="line"/>
      <point x="355" y="483" type="line"/>
      <point x="341" y="493"/>
      <point x="325" y="500"/>
      <point x="308" y="506" type="curve" smooth="yes"/>
      <point x="291" y="512"/>
      <point x="273" y="514"/>
      <point x="254" y="514" type="curve" smooth="yes"/>
      <point x="234" y="514"/>
      <point x="216" y="512"/>
      <point x="198" y="506" type="curve" smooth="yes"/>
      <point x="180" y="500"/>
      <point x="164" y="492"/>
      <point x="150" y="482" type="curve"/>
      <point x="75" y="558" type="line"/>
      <point x="30" y="512" type="line"/>
      <point x="106" y="436" type="line"/>
      <point x="96" y="422"/>
      <point x="90" y="405"/>
      <point x="84" y="388" type="curve" smooth="yes"/>
      <point x="78" y="371"/>
      <point x="75" y="353"/>
      <point x="75" y="334" type="curve"/>
    </contour>
    <contour>
      <point x="141" y="334" type="line"/>
      <point x="141" y="350"/>
      <point x="144" y="364"/>
      <point x="150" y="378" type="curve" smooth="yes"/>
      <point x="156" y="392"/>
      <point x="164" y="404"/>
      <point x="174" y="414" type="curve" smooth="yes"/>
      <point x="184" y="424"/>
      <point x="196" y="432"/>
      <point x="210" y="438" type="curve" smooth="yes"/>
      <point x="224" y="444"/>
      <point x="238" y="448"/>
      <point x="254" y="448" type="curve" smooth="yes"/>
      <point x="270" y="448"/>
      <point x="284" y="444"/>
      <point x="298" y="438" type="curve" smooth="yes"/>
      <point x="312" y="432"/>
      <point x="324" y="424"/>
      <point x="334" y="414" type="curve" smooth="yes"/>
      <point x="344" y="404"/>
      <point x="352" y="392"/>
      <point x="358" y="378" type="curve" smooth="yes"/>
      <point x="364" y="364"/>
      <point x="367" y="350"/>
      <point x="367" y="334" type="curve" smooth="yes"/>
      <point x="367" y="318"/>
      <point x="364" y="305"/>
      <point x="358" y="291" type="curve" smooth="yes"/>
      <point x="352" y="277"/>
      <point x="344" y="266"/>
      <point x="334" y="256" type="curve" smooth="yes"/>
      <point x="324" y="246"/>
      <point x="312" y="238"/>
      <point x="298" y="232" type="curve" smooth="yes"/>
      <point x="284" y="226"/>
      <point x="270" y="222"/>
      <point x="254" y="222" type="curve" smooth="yes"/>
      <point x="238" y="222"/>
      <point x="224" y="226"/>
      <point x="210" y="232" type="curve" smooth="yes"/>
      <point x="196" y="238"/>
      <point x="184" y="246"/>
      <point x="174" y="256" type="curve" smooth="yes"/>
      <point x="164" y="266"/>
      <point x="156" y="277"/>
      <point x="150" y="291" type="curve" smooth="yes"/>
      <point x="144" y="305"/>
      <point x="140" y="318"/>
      <point x="140" y="334" type="curve"/>
    </contour>
  </outline>
</glyph>
<glyph name="yen" format="1">
  <advance width="572"/>
  <unicode hex="00A5"/>
  <note>
    yen
  </note>
  <outline>
    <contour>
      <point x="73" y="312" type="line"/>
      <point x="73" y="262" type="line"/>
      <point x="243" y="262" type="line"/>
      <point x="243" y="209" type="line"/>
      <point x="73" y="209" type="line"/>
      <point x="73" y="158" type="line"/>
      <point x="243" y="158" type="line"/>
      <point x="243" y="0" type="line"/>
      <point x="332" y="0" type="line"/>
      <point x="332" y="158" type="line"/>
      <point x="502" y="158" type="line"/>
      <point x="502" y="209" type="line"/>
      <point x="332" y="209" type="line"/>
      <point x="332" y="262" type="line"/>
      <point x="502" y="262" type="line"/>
      <point x="502" y="312" type="line"/>
      <point x="349" y="312" type="line"/>
      <point x="554" y="716" type="line"/>
      <point x="478" y="716" type="line" smooth="yes"/>
      <point x="470" y="716"/>
      <point x="464" y="714"/>
      <point x="458" y="710" type="curve" smooth="yes"/>
      <point x="452" y="706"/>
      <point x="448" y="700"/>
      <point x="446" y="694" type="curve"/>
      <point x="308" y="412" type="line"/>
      <point x="304" y="400"/>
      <point x="299" y="390"/>
      <point x="296" y="380" type="curve" smooth="yes"/>
      <point x="293" y="370"/>
      <point x="290" y="360"/>
      <point x="288" y="350" type="curve"/>
      <point x="286" y="360"/>
      <point x="284" y="368"/>
      <point x="280" y="378" type="curve" smooth="yes"/>
      <point x="276" y="388"/>
      <point x="272" y="398"/>
      <point x="268" y="410" type="curve"/>
      <point x="130" y="693" type="line"/>
      <point x="126" y="699"/>
      <point x="121" y="705"/>
      <point x="116" y="709" type="curve" smooth="yes"/>
      <point x="111" y="713"/>
      <point x="104" y="715"/>
      <point x="96" y="715" type="curve" smooth="yes"/>
      <point x="22" y="715" type="line"/>
      <point x="226" y="311" type="line"/>
    </contour>
  </outline>
</glyph>
<glyph name="section" format="1">
  <advance width="451"/>
  <unicode hex="00A7"/>
  <note>
    section
  </note>
  <outline>
    <contour>
      <point x="314" y="-65"/>
      <point x="398" y="-4"/>
      <point x="398" y="98" type="curve" smooth="yes"/>
      <point x="398" y="140"/>
      <point x="377" y="175"/>
      <point x="342" y="201" type="curve"/>
      <point x="394" y="223"/>
      <point x="422" y="267"/>
      <point x="422" y="324" type="curve" smooth="yes"/>
      <point x="422" y="400"/>
      <point x="364" y="438"/>
      <point x="282" y="475" type="curve" smooth="yes"/>
      <point x="214" y="505"/>
      <point x="142" y="528"/>
      <point x="142" y="578" type="curve" smooth="yes"/>
      <point x="142" y="629"/>
      <point x="189" y="656"/>
      <point x="245" y="656" type="curve" smooth="yes"/>
      <point x="277" y="656"/>
      <point x="322" y="641"/>
      <point x="346" y="625" type="curve" smooth="yes"/>
      <point x="358" y="617"/>
      <point x="374" y="620"/>
      <point x="380" y="632" type="curve" smooth="yes"/>
      <point x="400" y="665" type="line"/>
      <point x="358" y="703"/>
      <point x="305" y="724"/>
      <point x="241" y="724" type="curve" smooth="yes"/>
      <point x="145" y="724"/>
      <point x="60" y="669"/>
      <point x="60" y="577" type="curve" smooth="yes"/>
      <point x="60" y="536"/>
      <point x="78" y="497"/>
      <point x="116" y="468" type="curve"/>
      <point x="60" y="446"/>
      <point x="27" y="408"/>
      <point x="27" y="348" type="curve" smooth="yes"/>
      <point x="27" y="291"/>
      <point x="65" y="247"/>
      <point x="119" y="222" type="curve" smooth="yes"/>
      <point x="221" y="177"/>
      <point x="319" y="155"/>
      <point x="319" y="85" type="curve" smooth="yes"/>
      <point x="319" y="29"/>
      <point x="273" y="0"/>
      <point x="214" y="0" type="curve" smooth="yes"/>
      <point x="164" y="0"/>
      <point x="141" y="12"/>
      <point x="102" y="38" type="curve" smooth="yes"/>
      <point x="86" y="49"/>
      <point x="66" y="48"/>
      <point x="58" y="31" type="curve" smooth="yes"/>
      <point x="38" y="-3" type="line"/>
      <point x="82" y="-43"/>
      <point x="138" y="-65"/>
      <point x="207" y="-65" type="curve" smooth="yes"/>
    </contour>
    <contour>
      <point x="274" y="238"/>
      <point x="252" y="249"/>
      <point x="230" y="258" type="curve" smooth="yes"/>
      <point x="168" y="283"/>
      <point x="108" y="310"/>
      <point x="108" y="360" type="curve" smooth="yes"/>
      <point x="108" y="361" type="line" smooth="yes"/>
      <point x="108" y="397"/>
      <point x="132" y="420"/>
      <point x="168" y="436" type="curve"/>
      <point x="173" y="434"/>
      <point x="232" y="407"/>
      <point x="250" y="399" type="curve" smooth="yes"/>
      <point x="300" y="375"/>
      <point x="345" y="352"/>
      <point x="345" y="302" type="curve" smooth="yes"/>
      <point x="345" y="268"/>
      <point x="326" y="242"/>
      <point x="294" y="228" type="curve"/>
    </contour>
  </outline>
</glyph>
<glyph name="dieresis" format="1">
  <advance width="374"/>
  <unicode hex="00A8"/>
  <note>
    dieresis
  </note>
  <outline>
    <contour>
      <point x="154" y="652"/>
      <point x="153" y="659"/>
      <point x="150" y="666" type="curve" smooth="yes"/>
      <point x="147" y="673"/>
      <point x="144" y="679"/>
      <point x="138" y="684" type="curve" smooth="yes"/>
      <point x="132" y="689"/>
      <point x="126" y="693"/>
      <point x="119" y="696" type="curve" smooth="yes"/>
      <point x="112" y="699"/>
      <point x="105" y="701"/>
      <point x="97" y="701" type="curve" smooth="yes"/>
      <point x="89" y="701"/>
      <point x="82" y="699"/>
      <point x="76" y="696" type="curve" smooth="yes"/>
      <point x="70" y="693"/>
      <point x="63" y="689"/>
      <point x="58" y="684" type="curve" smooth="yes"/>
      <point x="53" y="679"/>
      <point x="49" y="673"/>
      <point x="46" y="666" type="curve" smooth="yes"/>
      <point x="43" y="659"/>
      <point x="42" y="652"/>
      <point x="42" y="644" type="curve" smooth="yes"/>
      <point x="42" y="636"/>
      <point x="43" y="630"/>
      <point x="46" y="624" type="curve" smooth="yes"/>
      <point x="49" y="618"/>
      <point x="53" y="611"/>
      <point x="58" y="606" type="curve" smooth="yes"/>
      <point x="63" y="601"/>
      <point x="70" y="597"/>
      <point x="76" y="594" type="curve" smooth="yes"/>
      <point x="82" y="591"/>
      <point x="89" y="590"/>
      <point x="97" y="590" type="curve" smooth="yes"/>
      <point x="105" y="590"/>
      <point x="111" y="591"/>
      <point x="118" y="594" type="curve" smooth="yes"/>
      <point x="125" y="597"/>
      <point x="131" y="601"/>
      <point x="137" y="606" type="curve" smooth="yes"/>
      <point x="143" y="611"/>
      <point x="147" y="618"/>
      <point x="150" y="624" type="curve" smooth="yes"/>
      <point x="153" y="630"/>
      <point x="154" y="636"/>
      <point x="154" y="644" type="curve" smooth="yes"/>
    </contour>
    <contour>
      <point x="334" y="644" type="line"/>
      <point x="334" y="652"/>
      <point x="332" y="659"/>
      <point x="329" y="666" type="curve" smooth="yes"/>
      <point x="326" y="673"/>
      <point x="322" y="679"/>
      <point x="317" y="684" type="curve" smooth="yes"/>
      <point x="312" y="689"/>
      <point x="306" y="693"/>
      <point x="299" y="696" type="curve" smooth="yes"/>
      <point x="292" y="699"/>
      <point x="285" y="701"/>
      <point x="277" y="701" type="curve" smooth="yes"/>
      <point x="269" y="701"/>
      <point x="262" y="699"/>
      <point x="255" y="696" type="curve" smooth="yes"/>
      <point x="248" y="693"/>
      <point x="242" y="689"/>
      <point x="237" y="684" type="curve" smooth="yes"/>
      <point x="232" y="679"/>
      <point x="228" y="673"/>
      <point x="225" y="666" type="curve" smooth="yes"/>
      <point x="222" y="659"/>
      <point x="220" y="652"/>
      <point x="220" y="644" type="curve" smooth="yes"/>
      <point x="220" y="636"/>
      <point x="222" y="630"/>
      <point x="225" y="624" type="curve" smooth="yes"/>
      <point x="228" y="618"/>
      <point x="232" y="611"/>
      <point x="237" y="606" type="curve" smooth="yes"/>
      <point x="242" y="601"/>
      <point x="248" y="597"/>
      <point x="255" y="594" type="curve" smooth="yes"/>
      <point x="262" y="591"/>
      <point x="268" y="590"/>
      <point x="276" y="590" type="curve" smooth="yes"/>
      <point x="284" y="590"/>
      <point x="291" y="591"/>
      <point x="298" y="594" type="curve" smooth="yes"/>
      <point x="305" y="597"/>
      <point x="311" y="601"/>
      <point x="316" y="606" type="curve" smooth="yes"/>
      <point x="321" y="611"/>
      <point x="325" y="618"/>
      <point x="328" y="624" type="curve" smooth="yes"/>
      <point x="331" y="630"/>
      <point x="332" y="636"/>
      <point x="332" y="644" type="curve"/>
    </contour>
  </outline>
</glyph>
<glyph name="copyright" format="1">
  <advance width="793"/>
  <unicode hex="00A9"/>
  <note>
    copyright
  </note>
  <outline>
    <contour>
      <point x="512" y="232" type="line"/>
      <point x="494" y="220" type="line" smooth="yes"/>
      <point x="488" y="216"/>
      <point x="480" y="212"/>
      <point x="472" y="208" type="curve" smooth="yes"/>
      <point x="464" y="204"/>
      <point x="455" y="202"/>
      <point x="444" y="200" type="curve" smooth="yes"/>
      <point x="433" y="198"/>
      <point x="420" y="198"/>
      <point x="404" y="198" type="curve" smooth="yes"/>
      <point x="384" y="198"/>
      <point x="364" y="201"/>
      <point x="346" y="208" type="curve" smooth="yes"/>
      <point x="328" y="215"/>
      <point x="314" y="225"/>
      <point x="302" y="239" type="curve" smooth="yes"/>
      <point x="290" y="253"/>
      <point x="279" y="270"/>
      <point x="272" y="290" type="curve" smooth="yes"/>
      <point x="265" y="310"/>
      <point x="262" y="332"/>
      <point x="262" y="358" type="curve" smooth="yes"/>
      <point x="262" y="383"/>
      <point x="265" y="406"/>
      <point x="272" y="426" type="curve" smooth="yes"/>
      <point x="279" y="446"/>
      <point x="289" y="462"/>
      <point x="302" y="476" type="curve" smooth="yes"/>
      <point x="315" y="490"/>
      <point x="331" y="500"/>
      <point x="350" y="508" type="curve" smooth="yes"/>
      <point x="369" y="516"/>
      <point x="390" y="520"/>
      <point x="414" y="520" type="curve" smooth="yes"/>
      <point x="434" y="520"/>
      <point x="450" y="518"/>
      <point x="462" y="514" type="curve" smooth="yes"/>
      <point x="474" y="510"/>
      <point x="485" y="505"/>
      <point x="493" y="501" type="curve" smooth="yes"/>
      <point x="501" y="497"/>
      <point x="508" y="493"/>
      <point x="513" y="489" type="curve" smooth="yes"/>
      <point x="518" y="485"/>
      <point x="524" y="484"/>
      <point x="528" y="484" type="curve" smooth="yes"/>
      <point x="532" y="484"/>
      <point x="536" y="484"/>
      <point x="538" y="486" type="curve" smooth="yes"/>
      <point x="544" y="492" type="line"/>
      <point x="566" y="525" type="line"/>
      <point x="547" y="543"/>
      <point x="526" y="558"/>
      <point x="500" y="570" type="curve" smooth="yes"/>
      <point x="474" y="582"/>
      <point x="444" y="587"/>
      <point x="408" y="587" type="curve" smooth="yes"/>
      <point x="376" y="587"/>
      <point x="345" y="581"/>
      <point x="317" y="570" type="curve" smooth="yes"/>
      <point x="289" y="559"/>
      <point x="264" y="544"/>
      <point x="244" y="524" type="curve" smooth="yes"/>
      <point x="224" y="504"/>
      <point x="208" y="480"/>
      <point x="196" y="452" type="curve" smooth="yes"/>
      <point x="184" y="424"/>
      <point x="179" y="394"/>
      <point x="179" y="360" type="curve" smooth="yes"/>
      <point x="179" y="326"/>
      <point x="184" y="296"/>
      <point x="194" y="268" type="curve" smooth="yes"/>
      <point x="204" y="240"/>
      <point x="220" y="215"/>
      <point x="239" y="195" type="curve" smooth="yes"/>
      <point x="258" y="175"/>
      <point x="281" y="159"/>
      <point x="308" y="147" type="curve" smooth="yes"/>
      <point x="335" y="135"/>
      <point x="365" y="130"/>
      <point x="397" y="130" type="curve" smooth="yes"/>
      <point x="435" y="130"/>
      <point x="468" y="136"/>
      <point x="496" y="148" type="curve" smooth="yes"/>
      <point x="524" y="160"/>
      <point x="547" y="177"/>
      <point x="566" y="199" type="curve"/>
      <point x="536" y="231" type="line" smooth="yes"/>
      <point x="534" y="233"/>
      <point x="532" y="235"/>
      <point x="530" y="236" type="curve" smooth="yes"/>
      <point x="528" y="237"/>
      <point x="527" y="237"/>
      <point x="523" y="237" type="curve" smooth="yes"/>
      <point x="521" y="237"/>
      <point x="519" y="237"/>
      <point x="517" y="236" type="curve" smooth="yes"/>
      <point x="515" y="235"/>
      <point x="512" y="234"/>
      <point x="510" y="232" type="curve"/>
    </contour>
    <contour>
      <point x="29" y="358" type="line"/>
      <point x="29" y="324"/>
      <point x="34" y="292"/>
      <point x="42" y="261" type="curve" smooth="yes"/>
      <point x="50" y="230"/>
      <point x="62" y="201"/>
      <point x="78" y="174" type="curve" smooth="yes"/>
      <point x="94" y="147"/>
      <point x="114" y="122"/>
      <point x="136" y="100" type="curve" smooth="yes"/>
      <point x="158" y="78"/>
      <point x="183" y="60"/>
      <point x="210" y="44" type="curve" smooth="yes"/>
      <point x="237" y="28"/>
      <point x="266" y="14"/>
      <point x="297" y="6" type="curve" smooth="yes"/>
      <point x="328" y="-2"/>
      <point x="360" y="-6"/>
      <point x="394" y="-6" type="curve" smooth="yes"/>
      <point x="428" y="-6"/>
      <point x="460" y="-2"/>
      <point x="491" y="6" type="curve" smooth="yes"/>
      <point x="522" y="14"/>
      <point x="551" y="28"/>
      <point x="578" y="44" type="curve" smooth="yes"/>
      <point x="605" y="60"/>
      <point x="630" y="78"/>
      <point x="652" y="100" type="curve" smooth="yes"/>
      <point x="674" y="122"/>
      <point x="694" y="147"/>
      <point x="710" y="174" type="curve" smooth="yes"/>
      <point x="726" y="201"/>
      <point x="738" y="230"/>
      <point x="746" y="261" type="curve" smooth="yes"/>
      <point x="754" y="292"/>
      <point x="759" y="324"/>
      <point x="759" y="358" type="curve" smooth="yes"/>
      <point x="759" y="392"/>
      <point x="754" y="423"/>
      <point x="746" y="454" type="curve" smooth="yes"/>
      <point x="738" y="485"/>
      <point x="725" y="515"/>
      <point x="709" y="542" type="curve" smooth="yes"/>
      <point x="693" y="569"/>
      <point x="674" y="593"/>
      <point x="652" y="615" type="curve" smooth="yes"/>
      <point x="630" y="637"/>
      <point x="605" y="656"/>
      <point x="578" y="672" type="curve" smooth="yes"/>
      <point x="551" y="688"/>
      <point x="521" y="701"/>
      <point x="490" y="709" type="curve" smooth="yes"/>
      <point x="459" y="717"/>
      <point x="428" y="722"/>
      <point x="394" y="722" type="curve" smooth="yes"/>
      <point x="360" y="722"/>
      <point x="327" y="717"/>
      <point x="296" y="709" type="curve" smooth="yes"/>
      <point x="265" y="701"/>
      <point x="237" y="688"/>
      <point x="210" y="672" type="curve" smooth="yes"/>
      <point x="183" y="656"/>
      <point x="158" y="637"/>
      <point x="136" y="615" type="curve" smooth="yes"/>
      <point x="114" y="593"/>
      <point x="94" y="569"/>
      <point x="78" y="542" type="curve" smooth="yes"/>
      <point x="62" y="515"/>
      <point x="49" y="485"/>
      <point x="41" y="454" type="curve" smooth="yes"/>
      <point x="33" y="423"/>
      <point x="28" y="392"/>
      <point x="28" y="358" type="curve"/>
    </contour>
    <contour>
      <point x="78" y="358" type="line"/>
      <point x="78" y="402"/>
      <point x="86" y="444"/>
      <point x="102" y="483" type="curve" smooth="yes"/>
      <point x="118" y="522"/>
      <point x="142" y="556"/>
      <point x="170" y="585" type="curve" smooth="yes"/>
      <point x="198" y="614"/>
      <point x="232" y="637"/>
      <point x="270" y="654" type="curve" smooth="yes"/>
      <point x="308" y="671"/>
      <point x="350" y="680"/>
      <point x="394" y="680" type="curve" smooth="yes"/>
      <point x="424" y="680"/>
      <point x="451" y="676"/>
      <point x="478" y="668" type="curve" smooth="yes"/>
      <point x="505" y="660"/>
      <point x="530" y="650"/>
      <point x="554" y="636" type="curve" smooth="yes"/>
      <point x="578" y="622"/>
      <point x="599" y="605"/>
      <point x="618" y="585" type="curve" smooth="yes"/>
      <point x="637" y="565"/>
      <point x="652" y="544"/>
      <point x="666" y="520" type="curve" smooth="yes"/>
      <point x="680" y="496"/>
      <point x="690" y="470"/>
      <point x="698" y="442" type="curve" smooth="yes"/>
      <point x="706" y="414"/>
      <point x="709" y="386"/>
      <point x="709" y="356" type="curve" smooth="yes"/>
      <point x="709" y="312"/>
      <point x="700" y="270"/>
      <point x="684" y="231" type="curve" smooth="yes"/>
      <point x="668" y="192"/>
      <point x="644" y="158"/>
      <point x="616" y="129" type="curve" smooth="yes"/>
      <point x="588" y="100"/>
      <point x="554" y="76"/>
      <point x="516" y="60" type="curve" smooth="yes"/>
      <point x="478" y="44"/>
      <point x="436" y="36"/>
      <point x="392" y="36" type="curve" smooth="yes"/>
      <point x="362" y="36"/>
      <point x="335" y="38"/>
      <point x="308" y="46" type="curve" smooth="yes"/>
      <point x="281" y="54"/>
      <point x="256" y="64"/>
      <point x="232" y="78" type="curve" smooth="yes"/>
      <point x="208" y="92"/>
      <point x="187" y="108"/>
      <point x="168" y="128" type="curve" smooth="yes"/>
      <point x="149" y="148"/>
      <point x="134" y="170"/>
      <point x="120" y="194" type="curve" smooth="yes"/>
      <point x="106" y="218"/>
      <point x="96" y="242"/>
      <point x="88" y="270" type="curve" smooth="yes"/>
      <point x="80" y="298"/>
      <point x="77" y="326"/>
      <point x="77" y="356" type="curve"/>
    </contour>
  </outline>
</glyph>
<glyph name="ordfeminine" format="1">
  <advance width="333"/>
  <unicode hex="00AA"/>
  <note>
    ordfeminine
  </note>
  <outline>
    <contour>
      <point x="288" y="420" type="line"/>
      <point x="288" y="610" type="line" smooth="yes"/>
      <point x="288" y="627"/>
      <point x="285" y="643"/>
      <point x="280" y="657" type="curve" smooth="yes"/>
      <point x="275" y="671"/>
      <point x="268" y="683"/>
      <point x="258" y="693" type="curve" smooth="yes"/>
      <point x="248" y="703"/>
      <point x="237" y="710"/>
      <point x="223" y="716" type="curve" smooth="yes"/>
      <point x="209" y="722"/>
      <point x="193" y="725"/>
      <point x="175" y="725" type="curve" smooth="yes"/>
      <point x="151" y="725"/>
      <point x="128" y="722"/>
      <point x="108" y="714" type="curve" smooth="yes"/>
      <point x="88" y="706"/>
      <point x="70" y="694"/>
      <point x="52" y="678" type="curve"/>
      <point x="62" y="656" type="line"/>
      <point x="64" y="652"/>
      <point x="66" y="650"/>
      <point x="70" y="648" type="curve" smooth="yes"/>
      <point x="74" y="646"/>
      <point x="78" y="644"/>
      <point x="82" y="644" type="curve" smooth="yes"/>
      <point x="88" y="644"/>
      <point x="93" y="645"/>
      <point x="98" y="648" type="curve" smooth="yes"/>
      <point x="103" y="651"/>
      <point x="108" y="654"/>
      <point x="114" y="658" type="curve" smooth="yes"/>
      <point x="120" y="662"/>
      <point x="128" y="664"/>
      <point x="136" y="667" type="curve" smooth="yes"/>
      <point x="144" y="670"/>
      <point x="155" y="672"/>
      <point x="167" y="672" type="curve" smooth="yes"/>
      <point x="186" y="672"/>
      <point x="200" y="666"/>
      <point x="210" y="656" type="curve" smooth="yes"/>
      <point x="220" y="646"/>
      <point x="224" y="631"/>
      <point x="224" y="610" type="curve" smooth="yes"/>
      <point x="224" y="592" type="line"/>
      <point x="188" y="592"/>
      <point x="159" y="588"/>
      <point x="135" y="582" type="curve" smooth="yes"/>
      <point x="111" y="576"/>
      <point x="91" y="568"/>
      <point x="77" y="559" type="curve" smooth="yes"/>
      <point x="63" y="550"/>
      <point x="52" y="540"/>
      <point x="46" y="529" type="curve" smooth="yes"/>
      <point x="40" y="518"/>
      <point x="36" y="507"/>
      <point x="36" y="495" type="curve" smooth="yes"/>
      <point x="36" y="481"/>
      <point x="38" y="470"/>
      <point x="42" y="460" type="curve" smooth="yes"/>
      <point x="46" y="450"/>
      <point x="53" y="441"/>
      <point x="61" y="434" type="curve" smooth="yes"/>
      <point x="69" y="427"/>
      <point x="79" y="422"/>
      <point x="90" y="418" type="curve" smooth="yes"/>
      <point x="101" y="414"/>
      <point x="112" y="414"/>
      <point x="124" y="414" type="curve" smooth="yes"/>
      <point x="136" y="414"/>
      <point x="146" y="414"/>
      <point x="156" y="416" type="curve" smooth="yes"/>
      <point x="166" y="418"/>
      <point x="175" y="422"/>
      <point x="183" y="426" type="curve" smooth="yes"/>
      <point x="191" y="430"/>
      <point x="199" y="434"/>
      <point x="207" y="440" type="curve" smooth="yes"/>
      <point x="215" y="446"/>
      <point x="222" y="451"/>
      <point x="230" y="458" type="curve"/>
      <point x="236" y="434" type="line"/>
      <point x="238" y="428"/>
      <point x="242" y="424"/>
      <point x="245" y="422" type="curve" smooth="yes"/>
      <point x="248" y="420"/>
      <point x="252" y="418"/>
      <point x="258" y="418" type="curve"/>
    </contour>
    <contour>
      <point x="145" y="460" type="line"/>
      <point x="131" y="460"/>
      <point x="120" y="462"/>
      <point x="112" y="468" type="curve" smooth="yes"/>
      <point x="104" y="474"/>
      <point x="99" y="484"/>
      <point x="99" y="498" type="curve" smooth="yes"/>
      <point x="99" y="505"/>
      <point x="102" y="512"/>
      <point x="106" y="518" type="curve" smooth="yes"/>
      <point x="110" y="524"/>
      <point x="117" y="529"/>
      <point x="127" y="533" type="curve" smooth="yes"/>
      <point x="137" y="537"/>
      <point x="150" y="541"/>
      <point x="166" y="544" type="curve" smooth="yes"/>
      <point x="182" y="547"/>
      <point x="201" y="549"/>
      <point x="225" y="549" type="curve"/>
      <point x="225" y="496" type="line"/>
      <point x="213" y="484"/>
      <point x="200" y="476"/>
      <point x="188" y="470" type="curve" smooth="yes"/>
      <point x="176" y="464"/>
      <point x="161" y="460"/>
      <point x="144" y="460" type="curve"/>
    </contour>
  </outline>
</glyph>
<glyph name="logicalnot" format="1">
  <advance width="522"/>
  <unicode hex="00AC"/>
  <note>
    logicalnot
  </note>
  <outline>
    <contour>
      <point x="44" y="370" type="line"/>
      <point x="44" y="302" type="line"/>
      <point x="398" y="302" type="line"/>
      <point x="398" y="158" type="line"/>
      <point x="474" y="158" type="line"/>
      <point x="474" y="370" type="line"/>
    </contour>
  </outline>
</glyph>
<glyph name="registered" format="1">
  <advance width="793"/>
  <unicode hex="00AE"/>
  <note>
    registered
  </note>
  <outline>
    <contour>
      <point x="32" y="358" type="line"/>
      <point x="32" y="324"/>
      <point x="36" y="292"/>
      <point x="44" y="261" type="curve" smooth="yes"/>
      <point x="52" y="230"/>
      <point x="65" y="201"/>
      <point x="81" y="174" type="curve" smooth="yes"/>
      <point x="97" y="147"/>
      <point x="116" y="122"/>
      <point x="138" y="100" type="curve" smooth="yes"/>
      <point x="160" y="78"/>
      <point x="185" y="60"/>
      <point x="212" y="44" type="curve" smooth="yes"/>
      <point x="239" y="28"/>
      <point x="269" y="14"/>
      <point x="300" y="6" type="curve" smooth="yes"/>
      <point x="331" y="-2"/>
      <point x="362" y="-6"/>
      <point x="396" y="-6" type="curve" smooth="yes"/>
      <point x="430" y="-6"/>
      <point x="463" y="-2"/>
      <point x="494" y="6" type="curve" smooth="yes"/>
      <point x="525" y="14"/>
      <point x="553" y="28"/>
      <point x="580" y="44" type="curve" smooth="yes"/>
      <point x="607" y="60"/>
      <point x="632" y="78"/>
      <point x="654" y="100" type="curve" smooth="yes"/>
      <point x="676" y="122"/>
      <point x="696" y="147"/>
      <point x="712" y="174" type="curve" smooth="yes"/>
      <point x="728" y="201"/>
      <point x="740" y="230"/>
      <point x="748" y="261" type="curve" smooth="yes"/>
      <point x="756" y="292"/>
      <point x="762" y="324"/>
      <point x="762" y="358" type="curve" smooth="yes"/>
      <point x="762" y="392"/>
      <point x="756" y="423"/>
      <point x="748" y="454" type="curve" smooth="yes"/>
      <point x="740" y="485"/>
      <point x="728" y="515"/>
      <point x="712" y="542" type="curve" smooth="yes"/>
      <point x="696" y="569"/>
      <point x="676" y="593"/>
      <point x="654" y="615" type="curve" smooth="yes"/>
      <point x="632" y="637"/>
      <point x="607" y="656"/>
      <point x="580" y="672" type="curve" smooth="yes"/>
      <point x="553" y="688"/>
      <point x="524" y="701"/>
      <point x="493" y="709" type="curve" smooth="yes"/>
      <point x="462" y="717"/>
      <point x="430" y="722"/>
      <point x="396" y="722" type="curve" smooth="yes"/>
      <point x="362" y="722"/>
      <point x="330" y="717"/>
      <point x="299" y="709" type="curve" smooth="yes"/>
      <point x="268" y="701"/>
      <point x="239" y="688"/>
      <point x="212" y="672" type="curve" smooth="yes"/>
      <point x="185" y="656"/>
      <point x="160" y="637"/>
      <point x="138" y="615" type="curve" smooth="yes"/>
      <point x="116" y="593"/>
      <point x="96" y="569"/>
      <point x="80" y="542" type="curve" smooth="yes"/>
      <point x="64" y="515"/>
      <point x="52" y="485"/>
      <point x="44" y="454" type="curve" smooth="yes"/>
      <point x="36" y="423"/>
      <point x="30" y="392"/>
      <point x="30" y="358" type="curve"/>
    </contour>
    <contour>
      <point x="80" y="358" type="line" smooth="yes"/>
      <point x="80" y="402"/>
      <point x="89" y="444"/>
      <point x="105" y="483" type="curve" smooth="yes"/>
      <point x="121" y="522"/>
      <point x="144" y="556"/>
      <point x="172" y="585" type="curve" smooth="yes"/>
      <point x="200" y="614"/>
      <point x="235" y="637"/>
      <point x="273" y="654" type="curve" smooth="yes"/>
      <point x="311" y="671"/>
      <point x="352" y="680"/>
      <point x="396" y="680" type="curve" smooth="yes"/>
      <point x="426" y="680"/>
      <point x="454" y="676"/>
      <point x="481" y="668" type="curve" smooth="yes"/>
      <point x="508" y="660"/>
      <point x="532" y="650"/>
      <point x="556" y="636" type="curve" smooth="yes"/>
      <point x="580" y="622"/>
      <point x="601" y="605"/>
      <point x="620" y="585" type="curve" smooth="yes"/>
      <point x="639" y="565"/>
      <point x="655" y="544"/>
      <point x="669" y="520" type="curve" smooth="yes"/>
      <point x="683" y="496"/>
      <point x="692" y="470"/>
      <point x="700" y="442" type="curve" smooth="yes"/>
      <point x="708" y="414"/>
      <point x="712" y="386"/>
      <point x="712" y="356" type="curve" smooth="yes"/>
      <point x="712" y="312"/>
      <point x="702" y="270"/>
      <point x="686" y="231" type="curve" smooth="yes"/>
      <point x="670" y="192"/>
      <point x="647" y="158"/>
      <point x="619" y="129" type="curve" smooth="yes"/>
      <point x="591" y="100"/>
      <point x="556" y="76"/>
      <point x="518" y="60" type="curve" smooth="yes"/>
      <point x="480" y="44"/>
      <point x="438" y="36"/>
      <point x="394" y="36" type="curve" smooth="yes"/>
      <point x="364" y="36"/>
      <point x="337" y="38"/>
      <point x="310" y="46" type="curve" smooth="yes"/>
      <point x="283" y="54"/>
      <point x="258" y="64"/>
      <point x="234" y="78" type="curve" smooth="yes"/>
      <point x="210" y="92"/>
      <point x="190" y="108"/>
      <point x="171" y="128" type="curve" smooth="yes"/>
      <point x="152" y="148"/>
      <point x="136" y="170"/>
      <point x="122" y="194" type="curve" smooth="yes"/>
      <point x="108" y="218"/>
      <point x="98" y="242"/>
      <point x="90" y="270" type="curve" smooth="yes"/>
      <point x="82" y="298"/>
      <point x="80" y="326"/>
      <point x="80" y="356" type="curve" smooth="yes"/>
    </contour>
    <contour>
      <point x="322" y="311" type="line"/>
      <point x="362" y="311" type="line" smooth="yes"/>
      <point x="370" y="311"/>
      <point x="378" y="310"/>
      <point x="382" y="308" type="curve" smooth="yes"/>
      <point x="386" y="306"/>
      <point x="389" y="301"/>
      <point x="392" y="297" type="curve"/>
      <point x="492" y="146" type="line"/>
      <point x="498" y="138"/>
      <point x="506" y="134"/>
      <point x="517" y="134" type="curve" smooth="yes"/>
      <point x="591" y="134" type="line"/>
      <point x="477" y="300" type="line" smooth="yes"/>
      <point x="473" y="306"/>
      <point x="470" y="313"/>
      <point x="466" y="318" type="curve" smooth="yes"/>
      <point x="462" y="323"/>
      <point x="457" y="326"/>
      <point x="451" y="330" type="curve"/>
      <point x="487" y="338"/>
      <point x="513" y="354"/>
      <point x="531" y="376" type="curve" smooth="yes"/>
      <point x="549" y="398"/>
      <point x="558" y="424"/>
      <point x="558" y="456" type="curve" smooth="yes"/>
      <point x="558" y="496"/>
      <point x="544" y="527"/>
      <point x="516" y="548" type="curve" smooth="yes"/>
      <point x="488" y="569"/>
      <point x="447" y="580"/>
      <point x="389" y="580" type="curve" smooth="yes"/>
      <point x="245" y="580" type="line"/>
      <point x="245" y="134" type="line"/>
      <point x="323" y="134" type="line"/>
    </contour>
    <contour>
      <point x="323" y="368" type="line"/>
      <point x="323" y="520" type="line"/>
      <point x="389" y="520" type="line" smooth="yes"/>
      <point x="407" y="520"/>
      <point x="420" y="518"/>
      <point x="432" y="515" type="curve" smooth="yes"/>
      <point x="444" y="512"/>
      <point x="453" y="508"/>
      <point x="460" y="502" type="curve" smooth="yes"/>
      <point x="467" y="496"/>
      <point x="473" y="488"/>
      <point x="476" y="478" type="curve" smooth="yes"/>
      <point x="479" y="468"/>
      <point x="480" y="458"/>
      <point x="480" y="446" type="curve" smooth="yes"/>
      <point x="480" y="434"/>
      <point x="478" y="422"/>
      <point x="474" y="412" type="curve" smooth="yes"/>
      <point x="470" y="402"/>
      <point x="466" y="394"/>
      <point x="458" y="388" type="curve" smooth="yes"/>
      <point x="450" y="382"/>
      <point x="439" y="378"/>
      <point x="426" y="374" type="curve" smooth="yes"/>
      <point x="413" y="370"/>
      <point x="397" y="368"/>
      <point x="379" y="368" type="curve" smooth="yes"/>
    </contour>
  </outline>
</glyph>
